<svg xmlns="http://www.w3.org/2000/svg" xmlns:xlink="http://www.w3.org/1999/xlink">

<symbol  width="11" height="18" id="facebook" viewBox="0 0 11 18" fill="none">
<path d="M7.14599 17.4257V9.48996H10.4038L10.8881 6.38285H7.14599V4.40375C7.14599 3.50716 7.44998 2.89329 9.01585 2.89329H11V0.123131C10.0346 0.0381105 9.06422 -0.00294155 8.0933 0.000163795C5.21369 0.000163795 3.23661 1.44479 3.23661 4.09682V6.37704H0V9.48415H3.24368V17.4257H7.14599Z"/>
</symbol>

<symbol id="instagram" width="24" height="24" viewBox="0 0 24 24" fill="none" >
<path d="M11.999 7.37695C10.7726 7.37695 9.59651 7.86412 8.72934 8.73129C7.86217 9.59846 7.375 10.7746 7.375 12.001C7.375 13.2273 7.86217 14.4034 8.72934 15.2706C9.59651 16.1378 10.7726 16.625 11.999 16.625C13.2254 16.625 14.4015 16.1378 15.2687 15.2706C16.1358 14.4034 16.623 13.2273 16.623 12.001C16.623 10.7746 16.1358 9.59846 15.2687 8.73129C14.4015 7.86412 13.2254 7.37695 11.999 7.37695ZM11.999 15.004C11.2023 15.004 10.4382 14.6875 9.87485 14.1241C9.31149 13.5607 8.995 12.7967 8.995 12C8.995 11.2032 9.31149 10.4392 9.87485 9.8758C10.4382 9.31245 11.2023 8.99595 11.999 8.99595C12.7957 8.99595 13.5598 9.31245 14.1231 9.8758C14.6865 10.4392 15.003 11.2032 15.003 12C15.003 12.7967 14.6865 13.5607 14.1231 14.1241C13.5598 14.6875 12.7957 15.004 11.999 15.004Z" fill="white"/>
<path d="M16.806 8.28491C17.4014 8.28491 17.884 7.80227 17.884 7.20691C17.884 6.61154 17.4014 6.12891 16.806 6.12891C16.2107 6.12891 15.728 6.61154 15.728 7.20691C15.728 7.80227 16.2107 8.28491 16.806 8.28491Z" fill="white"/>
<path d="M20.533 6.11088C20.3015 5.51306 19.9477 4.97017 19.4943 4.51694C19.041 4.06372 18.4979 3.71015 17.9 3.47888C17.2003 3.21624 16.4612 3.07422 15.714 3.05888C14.751 3.01688 14.446 3.00488 12.004 3.00488C9.56201 3.00488 9.24901 3.00488 8.29401 3.05888C7.5474 3.07344 6.80877 3.21548 6.11001 3.47888C5.51195 3.70988 4.96878 4.06335 4.51535 4.51661C4.06192 4.96987 3.70824 5.51291 3.47701 6.11088C3.21432 6.8105 3.07263 7.54972 3.05801 8.29688C3.01501 9.25888 3.00201 9.56388 3.00201 12.0069C3.00201 14.4489 3.00201 14.7599 3.05801 15.7169C3.07301 16.4649 3.21401 17.2029 3.47701 17.9039C3.70889 18.5016 4.06291 19.0445 4.51645 19.4977C4.96999 19.9509 5.51308 20.3045 6.11101 20.5359C6.80845 20.8091 7.54739 20.9613 8.29601 20.9859C9.25901 21.0279 9.56401 21.0409 12.006 21.0409C14.448 21.0409 14.761 21.0409 15.716 20.9859C16.4631 20.9707 17.2022 20.829 17.902 20.5669C18.4998 20.3351 19.0426 19.9812 19.496 19.5279C19.9493 19.0745 20.3032 18.5316 20.535 17.9339C20.798 17.2339 20.939 16.4959 20.954 15.7479C20.997 14.7859 21.01 14.4809 21.01 12.0379C21.01 9.59488 21.01 9.28488 20.954 8.32788C20.9424 7.57016 20.7999 6.82013 20.533 6.11088ZM19.315 15.6429C19.3086 16.2192 19.2034 16.7901 19.004 17.3309C18.8538 17.7198 18.6239 18.0729 18.3291 18.3676C18.0342 18.6622 17.681 18.8919 17.292 19.0419C16.7572 19.2403 16.1924 19.3455 15.622 19.3529C14.672 19.3969 14.404 19.4079 11.968 19.4079C9.53001 19.4079 9.28101 19.4079 8.31301 19.3529C7.74294 19.3459 7.17834 19.2407 6.64401 19.0419C6.2537 18.8929 5.89902 18.6636 5.6029 18.3688C5.30679 18.0741 5.07585 17.7205 4.92501 17.3309C4.72846 16.7959 4.62333 16.2317 4.61401 15.6619C4.57101 14.7119 4.56101 14.4439 4.56101 12.0079C4.56101 9.57088 4.56101 9.32188 4.61401 8.35288C4.62048 7.77691 4.72567 7.2063 4.92501 6.66588C5.23001 5.87688 5.85501 5.25588 6.64401 4.95388C7.1786 4.75602 7.74304 4.65085 8.31301 4.64288C9.26401 4.59988 9.53101 4.58788 11.968 4.58788C14.405 4.58788 14.655 4.58788 15.622 4.64288C16.1924 4.64974 16.7574 4.75495 17.292 4.95388C17.6809 5.10416 18.0342 5.33409 18.329 5.62891C18.6238 5.92374 18.8537 6.27695 19.004 6.66588C19.2006 7.20083 19.3057 7.76504 19.315 8.33488C19.358 9.28588 19.369 9.55288 19.369 11.9899C19.369 14.4259 19.369 14.6879 19.326 15.6439H19.315V15.6429Z" fill="white"/>
</symbol>

<symbol id="twitter" width="20" height="15" viewBox="0 0 20 15" fill="none">
<path d="M17.9452 4.39489C17.9585 4.54773 17.9585 4.69969 17.9585 4.85166C17.9585 9.50231 13.8337 14.8613 6.29554 14.8613C3.97313 14.8613 1.81559 14.284 0 13.2814C0.329737 13.3137 0.647262 13.325 0.99023 13.325C2.83533 13.3288 4.62818 12.7994 6.07979 11.822C5.22432 11.8087 4.39505 11.5665 3.70775 11.1292C3.02046 10.6918 2.50945 10.0813 2.24608 9.38266C2.49949 9.41498 2.75392 9.43681 3.02056 9.43681C3.38795 9.43681 3.75738 9.39314 4.10035 9.31716C3.17195 9.1563 2.33714 8.72445 1.73786 8.09505C1.13857 7.46565 0.811819 6.67755 0.813149 5.86476V5.82109C1.35966 6.08223 1.99369 6.24555 2.66538 6.26738C2.10268 5.94649 1.64128 5.51107 1.32235 4.99995C1.00342 4.48883 0.836875 3.91791 0.837574 3.33812C0.837574 2.68485 1.0401 2.08572 1.39528 1.56345C2.42534 2.6508 3.71006 3.54036 5.16623 4.1745C6.6224 4.80865 8.21755 5.17324 9.84836 5.24467C9.78526 4.98266 9.74659 4.71105 9.74659 4.43856C9.74632 3.97652 9.85217 3.51896 10.0581 3.09204C10.264 2.66513 10.5659 2.27723 10.9467 1.95051C11.3274 1.6238 11.7794 1.36468 12.2769 1.18797C12.7743 1.01126 13.3075 0.920425 13.8459 0.920655C15.0265 0.920655 16.092 1.34511 16.841 2.03157C17.7588 1.87927 18.6389 1.59177 19.4423 1.18179C19.1364 1.99473 18.4956 2.68406 17.6399 3.12065C18.4539 3.04099 19.2494 2.85729 20 2.57568C19.4394 3.27707 18.7447 3.89213 17.9452 4.39489Z" fill="white"/>
</symbol>

</svg>