<svg width="18.000000" height="21.000000" viewBox="0 0 18 21" fill="none" xmlns="http://www.w3.org/2000/svg" xmlns:xlink="http://www.w3.org/1999/xlink">
	<desc>
			Created with Pixso.
	</desc>
	<defs/>
	<path id="Location" d="M9 0C4.03741 0 0 3.92664 0 8.75305C0 14.3148 3.71069 17.6703 6.17175 19.891C6.95477 20.6311 7.98163 21 9.00629 21C10.0287 21 11.0488 20.6323 11.8206 19.8984C14.2812 17.6777 18 14.3206 18 8.75305C18 3.92664 13.9626 0 9 0ZM9 12.2544C7.01508 12.2544 5.40002 10.6836 5.40002 8.75305C5.40002 6.82263 7.01508 5.25183 9 5.25183C10.9849 5.25183 12.6 6.82263 12.6 8.75305C12.6 10.6836 10.9849 12.2544 9 12.2544Z" fill="#FE390C" fill-opacity="1.000000" fill-rule="nonzero"/>
</svg>
