<svg width="40.000000" height="40.000000" viewBox="0 0 40 40" fill="none" xmlns="http://www.w3.org/2000/svg" xmlns:xlink="http://www.w3.org/1999/xlink">
	<desc>
			Created with Pixso.
	</desc>
	<defs>
		<clipPath id="clip12_223">
			<rect id="Arrow - Down" width="20.000000" height="20.000000" transform="translate(10.000000 30.000000) rotate(-90.000000)" fill="white" fill-opacity="0"/>
		</clipPath>
	</defs>
	<rect id="Rectangle 398" y="40.000000" rx="2.000000" width="40.000000" height="40.000000" transform="rotate(-90 0.000000 40.000000)" fill="#FE390C" fill-opacity="1.000000"/>
	<rect id="Arrow - Down" width="20.000000" height="20.000000" transform="translate(10.000000 30.000000) rotate(-90.000000)" fill="#000000" fill-opacity="0"/>
	<g clip-path="url(#clip12_223)">
		<path id="Combined-Shape" d="M13.3334 19.7715C13.3334 19.4551 13.5685 19.1936 13.8735 19.1522L13.9584 19.1465L24.9451 19.147L20.9759 15.1941C20.7313 14.9505 20.7304 14.5548 20.974 14.3102C21.1954 14.0878 21.5425 14.0669 21.7877 14.2479L21.8578 14.3083L26.8995 19.3283C26.9318 19.3604 26.9598 19.3951 26.9835 19.4318C26.9902 19.4428 26.9971 19.4542 27.0035 19.4657C27.0095 19.4756 27.0149 19.4858 27.02 19.4962C27.027 19.5113 27.0339 19.5269 27.0402 19.5428C27.0453 19.5551 27.0496 19.567 27.0534 19.579C27.058 19.5939 27.0625 19.6098 27.0663 19.6259C27.0692 19.6372 27.0715 19.648 27.0734 19.6589C27.0762 19.6751 27.0786 19.6919 27.0803 19.7088C27.0817 19.7218 27.0826 19.7346 27.0831 19.7474C27.0832 19.7552 27.0834 19.7633 27.0834 19.7715L27.0831 19.7957C27.0826 19.808 27.0817 19.8202 27.0806 19.8325L27.0834 19.7715C27.0834 19.8109 27.0797 19.8495 27.0728 19.8869C27.0711 19.8959 27.0692 19.905 27.067 19.9142C27.0626 19.933 27.0575 19.9511 27.0516 19.9689C27.0486 19.9777 27.0453 19.9871 27.0417 19.9965C27.0344 20.0153 27.0264 20.0332 27.0177 20.0507C27.0137 20.0589 27.0091 20.0675 27.0043 20.076C26.9965 20.0899 26.9885 20.1031 26.98 20.1159C26.974 20.125 26.9673 20.1345 26.9604 20.1438L26.955 20.151C26.9381 20.173 26.9199 20.1939 26.9003 20.2134L26.8995 20.214L21.8579 25.2348C21.6133 25.4784 21.2176 25.4776 20.974 25.233C20.7526 25.0107 20.7332 24.6634 20.9152 24.4191L20.9758 24.3492L24.9434 20.397L13.9584 20.3965C13.6132 20.3965 13.3334 20.1167 13.3334 19.7715Z" fill="#FFFFFF" fill-opacity="1.000000" fill-rule="nonzero"/>
	</g>
</svg>
