<svg width="9.296387" height="5.336060" viewBox="0 0 9.29639 5.33606" fill="none" xmlns="http://www.w3.org/2000/svg" xmlns:xlink="http://www.w3.org/1999/xlink">
	<desc>
			Created with Pixso.
	</desc>
	<defs/>
	<path id="Vector" d="M4.62695 5.33606C4.71484 5.33661 4.80176 5.31976 4.88281 5.28656C4.96436 5.25342 5.03809 5.20453 5.1001 5.14276L9.1001 1.14276C9.22607 1.01721 9.29639 0.846924 9.29639 0.669373C9.29639 0.491882 9.22607 0.321594 9.1001 0.196045C8.97461 0.0704956 8.80469 0 8.62695 0C8.44922 0 8.2793 0.0704956 8.15381 0.196045L4.62695 3.72943L1.1001 0.202759C0.972656 0.0935059 0.808594 0.036438 0.641113 0.0429077C0.473145 0.0493774 0.313965 0.118958 0.195312 0.237671C0.0766602 0.356445 0.00683594 0.515564 0.000488281 0.68335C-0.00585938 0.851135 0.0512695 1.0152 0.160156 1.14276L4.16016 5.14276C4.28467 5.26593 4.45215 5.33533 4.62695 5.33606Z" fill="#100D22" fill-opacity="1.000000" fill-rule="nonzero"/>
</svg>
