<svg width="42.000000" height="42.000000" viewBox="0 0 42 42" fill="none" xmlns="http://www.w3.org/2000/svg" xmlns:xlink="http://www.w3.org/1999/xlink">
	<desc>
			Created with Pixso.
	</desc>
	<defs>
		<clipPath id="clip14_10">
			<rect id="Frame" width="22.400002" height="22.400002" transform="translate(10.000000 10.000122)" fill="white" fill-opacity="0"/>
		</clipPath>
	</defs>
	<circle id="Ellipse 216" cx="21.000000" cy="21.000000" r="21.000000" fill="#FFFFFF" fill-opacity="0.100000"/>
	<rect id="Frame" width="22.400002" height="22.400002" transform="translate(10.000000 10.000122)" fill="#FFFFFF" fill-opacity="0"/>
	<g clip-path="url(#clip14_10)">
		<path id="Vector" d="M29.2827 16.5148C28.4683 15.1034 27.2961 13.9315 25.8845 13.1174C24.4536 12.2841 22.8922 11.8668 21.2 11.8668C19.5079 11.8668 17.9464 12.2841 16.5147 13.1174C15.0839 13.9509 13.9508 15.084 13.1174 16.5148C12.2839 17.9457 11.8667 19.5081 11.8667 21.2002C11.8667 22.8923 12.283 24.4547 13.1174 25.8855C13.9315 27.2971 15.1038 28.469 16.5156 29.2828C17.9464 30.1163 19.5079 30.5334 21.2 30.5334C22.8922 30.5334 24.4536 30.1163 25.8854 29.2828C27.2971 28.4688 28.4692 27.297 29.2836 25.8855C30.1171 24.4547 30.5334 22.8923 30.5334 21.2002C30.5334 19.5081 30.1171 17.9457 29.2827 16.5148ZM21.2 13.4161C23.0667 13.4161 24.7206 14.0134 26.1653 15.2073C25.3067 16.303 24.0317 17.2046 22.3387 17.9139C21.4035 16.2218 20.3899 14.8087 19.2951 13.6765C19.9156 13.505 20.5563 13.4174 21.2 13.4161ZM15.1427 16.3468C15.8252 15.4801 16.6887 14.7729 17.673 14.2748C18.8041 15.3958 19.843 16.7948 20.7903 18.4749C18.9236 19.0348 16.9506 19.3148 14.872 19.3148C14.3372 19.3148 13.9331 19.3027 13.6587 19.2775C13.9448 18.2083 14.4501 17.2102 15.1427 16.3468ZM13.416 21.2002C13.416 21.1498 13.4188 21.0881 13.4254 21.0134C13.4319 20.9388 13.4347 20.8772 13.4347 20.8268C13.6718 20.8398 14.033 20.8455 14.5183 20.8455C17.0066 20.8455 19.3212 20.5029 21.4614 19.8188C21.6359 20.167 21.817 20.559 22.0027 20.9949C20.7707 21.2683 19.507 21.9337 18.2124 22.9922C16.9179 24.0505 15.9734 25.1641 15.376 26.3335C14.0693 24.8523 13.416 23.1415 13.416 21.2002ZM21.2 28.9841C19.4323 28.9841 17.8456 28.4363 16.4391 27.3424C17.0001 26.2345 17.8615 25.1752 19.0254 24.1682C20.1883 23.1602 21.3428 22.532 22.488 22.2828C23.2104 24.2792 23.699 26.3527 23.944 28.4615C23.0694 28.8032 22.1391 28.9805 21.2 28.9841ZM27.808 25.2882C27.1971 26.2723 26.3745 27.108 25.4 27.7344C25.176 25.7931 24.7467 23.9012 24.113 22.0588C24.9828 21.9972 25.7603 21.9655 26.4463 21.9655C27.192 21.9655 28.0199 21.9972 28.928 22.0588C28.8062 23.2067 28.423 24.3114 27.808 25.2882ZM26.6507 20.6215C25.5681 20.6215 24.5666 20.6654 23.6454 20.7522C23.4503 20.2415 23.2386 19.7372 23.0107 19.2401C24.939 18.3945 26.3073 17.3679 27.1165 16.1602C28.2365 17.4799 28.8468 18.9854 28.9457 20.6775C28.1879 20.6401 27.4225 20.6215 26.6507 20.6215Z" fill="#FFFFFF" fill-opacity="1.000000" fill-rule="nonzero"/>
	</g>
</svg>
