<svg width="28.666664" height="28.673153" viewBox="0 0 28.6667 28.6732" fill="none" xmlns="http://www.w3.org/2000/svg" xmlns:xlink="http://www.w3.org/1999/xlink">
	<desc>
			Created with Pixso.
	</desc>
	<defs/>
	<path id="Combined-Shape" d="M20.5813 0C25.4173 0 28.6667 3.39543 28.6667 8.44858L28.6667 20.2246C28.6667 25.2777 25.4173 28.6732 20.5813 28.6732L8.08533 28.6732C3.24933 28.6732 0 25.2777 0 20.2246L0 8.44858C0 3.39543 3.24933 0 8.08533 0L20.5813 0ZM20.5813 2.00045L8.08533 2.00045C4.38933 2.00045 2 4.53036 2 8.44858L2 20.2246C2 24.1428 4.38933 26.6727 8.08533 26.6727L20.5813 26.6727C24.2787 26.6727 26.6667 24.1428 26.6667 20.2246L26.6667 8.44858C26.6667 4.53036 24.2787 2.00045 20.5813 2.00045ZM8.16146 10.9391C8.71347 10.9391 9.16146 11.3872 9.16146 11.9394L9.16146 21.0881C9.16146 21.6402 8.71347 22.0883 8.16146 22.0883C7.60947 22.0883 7.16146 21.6402 7.16146 21.0881L7.16146 11.9394C7.16146 11.3872 7.60947 10.9391 8.16146 10.9391ZM14.3841 6.55948C14.9361 6.55948 15.3841 7.00759 15.3841 7.55971L15.3841 21.0868C15.3841 21.6389 14.9361 22.087 14.3841 22.087C13.8321 22.087 13.3841 21.6389 13.3841 21.0868L13.3841 7.55971C13.3841 7.00759 13.8321 6.55948 14.3841 6.55948ZM20.5045 15.7736C21.0565 15.7736 21.5045 16.2217 21.5045 16.7738L21.5045 21.0868C21.5045 21.6389 21.0565 22.087 20.5045 22.087C19.9525 22.087 19.5045 21.6389 19.5045 21.0868L19.5045 16.7738C19.5045 16.2217 19.9525 15.7736 20.5045 15.7736Z" fill="#FE390C" fill-opacity="1.000000" fill-rule="evenodd"/>
</svg>
