<svg width="144.666687" height="28.000000" viewBox="0 0 144.667 28" fill="none" xmlns="http://www.w3.org/2000/svg" xmlns:xlink="http://www.w3.org/1999/xlink">
	<desc>
			Created with Pixso.
	</desc>
	<defs/>
	<rect id="behance" width="144.666672" height="28.000000" fill="#FFFFFF" fill-opacity="0"/>
	<path id="Vector" d="M11.9754 22.7426C12.5461 22.7426 13.0879 22.6895 13.5977 22.5708C14.1145 22.4522 14.5734 22.2659 14.9605 21.9891C15.3477 21.7237 15.6679 21.3594 15.9014 20.8953C16.1348 20.4363 16.2466 19.84 16.2466 19.1187C16.2466 17.7065 15.8654 16.7032 15.1082 16.0944C14.3489 15.4939 13.3363 15.1952 12.0912 15.1952L5.80164 15.1952L5.80164 22.7426L11.9754 22.7426ZM11.6562 11.076C12.6808 11.076 13.5288 10.8221 14.2013 10.3069C14.8668 9.80115 15.19 8.96332 15.19 7.81439C15.19 7.17743 15.0822 6.64978 14.8668 6.24078C14.6443 5.83179 14.3489 5.51123 13.9758 5.28748C13.6057 5.05438 13.1876 4.89307 12.7018 4.8067C12.2258 4.70886 11.726 4.67139 11.2142 4.67139L5.80164 4.67139L5.80164 11.076L11.6562 11.076ZM12.4044 0.00268555C13.6605 0.00268555 14.7949 0.11615 15.8315 0.350281C16.8622 0.578186 17.7421 0.959106 18.4854 1.48157C19.2177 2.00299 19.7904 2.69714 20.2005 3.57135C20.6006 4.43304 20.8021 5.51123 20.8021 6.78717C20.8021 8.16718 20.5018 9.31927 19.9012 10.2403C19.2965 11.1603 18.4076 11.9149 17.2203 12.5008C18.8376 12.9857 20.0349 13.8401 20.829 15.0536C21.6272 16.2755 22.0173 17.7388 22.0173 19.4528C22.0173 20.8432 21.7619 22.039 21.2531 23.0454C20.7382 24.0643 20.0378 24.8906 19.1748 25.5275C18.3048 26.1707 17.3051 26.6422 16.1857 26.9492C15.0783 27.2562 13.9289 27.4102 12.7516 27.4102L0.0169678 27.4102L0.0169678 0.00268555L12.4044 0.00268555Z" fill="#A7AAB4" fill-opacity="1.000000" fill-rule="nonzero"/>
	<path id="Vector" d="M36.2684 12.2249C35.6469 11.5079 34.5953 11.1197 33.3122 11.1197C32.4772 11.1197 31.7858 11.2664 31.233 11.5651C30.6923 11.8596 30.2483 12.227 29.9101 12.6589C29.5728 13.0981 29.3424 13.5612 29.2087 14.0566C29.075 14.5395 28.9952 14.9777 28.9702 15.3648L37.4727 15.3648C37.3479 13.9744 36.892 12.9472 36.2684 12.2249ZM30.2643 22.6509C31.0464 23.4481 32.1779 23.8499 33.6435 23.8499C34.6971 23.8499 35.6079 23.572 36.3722 23.0173C37.1294 22.4646 37.5904 21.8724 37.769 21.2584L42.3704 21.2584C41.6311 23.6469 40.5087 25.3527 38.9772 26.3788C37.4647 27.4102 35.6189 27.9243 33.4689 27.9243C31.9703 27.9243 30.6214 27.6703 29.4112 27.1729C28.201 26.6681 27.1893 25.9604 26.3383 25.0383C25.5092 24.1121 24.8657 23.0173 24.4068 21.7319C23.9528 20.4529 23.7233 19.0365 23.7233 17.5014C23.7233 16.0173 23.9618 14.6311 24.4257 13.35C24.9006 12.0646 25.5561 10.9553 26.4181 10.0248C27.2831 9.08923 28.3078 8.35132 29.501 7.81226C30.6953 7.27417 32.0112 7.00464 33.4689 7.00464C35.0782 7.00464 36.4879 7.32727 37.6961 7.98602C38.9004 8.6344 39.8871 9.51385 40.6633 10.6149C41.4385 11.715 41.9902 12.9722 42.3354 14.3813C42.6767 15.7894 42.7974 17.2599 42.6986 18.8002L28.9702 18.8002C28.9702 20.3686 29.4791 21.8537 30.2643 22.6509Z" fill="#A7AAB4" fill-opacity="1.000000" fill-rule="nonzero"/>
	<path id="Vector" d="M50.1205 0.00268555L50.1205 10.3371L50.2402 10.3371C50.9037 9.18707 51.7428 8.35138 52.7744 7.83313C53.804 7.31067 54.8087 7.05255 55.7875 7.05255C57.1833 7.05255 58.3266 7.24408 59.2195 7.63849C60.1135 8.04022 60.8209 8.5835 61.3387 9.2901C61.8465 9.99365 62.2057 10.8522 62.4162 11.8638C62.6227 12.8734 62.7295 13.9869 62.7295 15.215L62.7295 27.4102L57.4786 27.4102L57.4786 16.2047C57.4786 14.5707 57.2341 13.3427 56.7473 12.5392C56.2594 11.7348 55.3934 11.331 54.1443 11.331C52.7315 11.331 51.7099 11.7775 51.0773 12.6589C50.4328 13.5405 50.1205 14.9912 50.1205 17.0103L50.1205 27.4102L44.8716 27.4102L44.8716 0.00268555L50.1205 0.00268555Z" fill="#A7AAB4" fill-opacity="1.000000" fill-rule="nonzero"/>
	<path id="Vector" d="M76.7452 18.1914C76.4199 18.3038 76.0598 18.3985 75.6886 18.4807C75.3055 18.5567 74.9054 18.6181 74.4904 18.6722C74.0793 18.7242 73.6563 18.7836 73.2462 18.8606C72.8551 18.9407 72.4641 19.0406 72.0919 19.1707C71.7128 19.2998 71.3805 19.4715 71.1072 19.688C70.8238 19.9075 70.5983 20.1823 70.4257 20.5122C70.2581 20.8431 70.1683 21.273 70.1683 21.7809C70.1683 22.2659 70.2581 22.6749 70.4257 23.011C70.5983 23.3441 70.8238 23.6042 71.1201 23.7968C71.4155 23.9893 71.7617 24.1246 72.1468 24.1995C72.5379 24.2807 72.942 24.3109 73.356 24.3109C74.3836 24.3109 75.1758 24.1329 75.7405 23.7759C76.3022 23.4169 76.7252 22.9881 76.9896 22.4886C77.259 21.989 77.4216 21.4853 77.4745 20.9774C77.5433 20.4664 77.5742 20.0543 77.5742 19.7452L77.5742 17.7064C77.3478 17.9156 77.0814 18.0769 76.7452 18.1914ZM66.4599 10.4692C66.9916 9.62518 67.6771 8.94141 68.5111 8.43042C69.3452 7.91425 70.2771 7.55103 71.3247 7.3335C72.3683 7.10974 73.4119 7.00464 74.4714 7.00464C75.4242 7.00464 76.388 7.0733 77.3807 7.21484C78.3575 7.35535 79.2504 7.63116 80.0605 8.04224C80.8697 8.45538 81.5291 9.02051 82.04 9.75842C82.5578 10.4775 82.8202 11.4517 82.8202 12.6589L82.8202 23.0016C82.8202 23.9008 82.8721 24.7552 82.9638 25.5732C83.0676 26.3986 83.336 27.0178 83.5894 27.4237L78.2517 27.4102C78.0951 27.1729 77.9654 26.8013 77.9045 26.4777C77.8427 26.1613 77.7997 25.8355 77.7758 25.5015C76.9447 26.3986 75.97 27.0292 74.8346 27.3893C73.7082 27.7442 72.5598 27.9243 71.3805 27.9243C70.4766 27.9243 69.6346 27.8046 68.8464 27.5735C68.0702 27.3425 67.3807 26.9845 66.7931 26.5005C66.2025 26.0073 65.7485 25.3953 65.4173 24.6543C65.088 23.9092 64.9184 23.0225 64.9184 21.9984C64.9184 20.8682 65.113 19.9377 65.4971 19.2092C65.8712 18.4807 66.3571 17.8948 66.9647 17.4608C67.5623 17.0237 68.2487 16.6948 69.026 16.4805C69.7962 16.264 70.5784 16.085 71.3536 15.959C72.1408 15.8331 72.907 15.7311 73.6722 15.652C74.4395 15.574 75.1039 15.4626 75.6976 15.3065C76.2832 15.1545 76.7522 14.9235 77.0964 14.6311C77.4346 14.3376 77.5972 13.9109 77.5742 13.3427C77.5742 12.7557 77.4745 12.2874 77.2939 11.9377C77.1123 11.5932 76.8669 11.3278 76.5666 11.1342C76.2583 10.9407 75.9111 10.8137 75.511 10.746C75.1039 10.6846 74.6729 10.6503 74.213 10.6503C73.1904 10.6503 72.3812 10.8876 71.8076 11.3434C71.2179 11.8128 70.8787 12.585 70.7739 13.6632L65.532 13.6632C65.6078 12.3759 65.9111 11.3132 66.4599 10.4692Z" fill="#A7AAB4" fill-opacity="1.000000" fill-rule="nonzero"/>
	<path id="Vector" d="M90.6571 7.57092L90.6571 10.3372L90.7738 10.3372C91.4353 9.18713 92.2883 8.35144 93.3479 7.83313C94.3985 7.31073 95.487 7.05261 96.5904 7.05261C97.9922 7.05261 99.1425 7.24408 100.031 7.63855C100.936 8.04028 101.64 8.5835 102.15 9.29016C102.672 9.99371 103.032 10.8523 103.241 11.8639C103.453 12.8734 103.557 13.987 103.557 15.215L103.557 27.4103L98.3045 27.4103L98.3045 16.2048C98.3045 14.5708 98.058 13.3428 97.5682 12.5393C97.0713 11.7349 96.2143 11.2186 94.9562 11.2186C93.5345 11.2186 92.4988 11.7775 91.8623 12.659C91.2218 13.5405 90.9045 14.9913 90.9045 17.0103L90.9045 27.4103L85.7085 27.4103L85.7085 7.57092L90.6571 7.57092Z" fill="#A7AAB4" fill-opacity="1.000000" fill-rule="nonzero"/>
	<path id="Vector" d="M115.185 11.1197C114.345 11.1197 113.651 11.3132 113.093 11.715C112.524 12.1157 112.059 12.6235 111.704 13.2532C111.347 13.8787 111.101 14.5707 110.948 15.3284C110.806 16.085 110.726 16.8343 110.726 17.5795C110.726 18.2996 110.806 19.0292 110.948 19.7744C111.101 20.5153 111.335 21.1845 111.667 21.7944C112.003 22.3918 112.45 22.883 113.015 23.2712C113.576 23.6573 114.26 23.8499 115.071 23.8499C116.329 23.8499 117.293 23.4835 117.968 22.7581C118.641 22.0286 119.057 21.0482 119.232 19.8201L124.279 19.8201C123.932 22.4521 122.951 24.4628 121.335 25.8491C119.714 27.226 117.638 27.9243 115.11 27.9243C113.681 27.9243 112.383 27.6703 111.186 27.1729C109.991 26.6681 108.976 25.9729 108.14 25.0758C107.304 24.1766 106.655 23.1078 106.18 21.8652C105.716 20.6205 105.483 19.254 105.483 17.7709C105.483 16.2349 105.699 14.8038 106.129 13.4811C106.557 12.1635 107.19 11.0219 108.033 10.0644C108.868 9.10065 109.89 8.35132 111.098 7.81226C112.301 7.27417 113.676 7.00464 115.22 7.00464C116.349 7.00464 117.433 7.16388 118.481 7.46149C119.521 7.76538 120.455 8.2348 121.276 8.86444C122.098 9.48987 122.771 10.2694 123.287 11.1988C123.797 12.1281 124.088 13.2417 124.169 14.5145L119.045 14.5145C118.705 12.2499 117.418 11.1197 115.185 11.1197Z" fill="#A7AAB4" fill-opacity="1.000000" fill-rule="nonzero"/>
	<path id="Vector" d="M27.9017 1.84167L38.5522 1.84167L38.5522 4.54651L27.9017 4.54651L27.9017 1.84167Z" fill="#A7AAB4" fill-opacity="1.000000" fill-rule="nonzero"/>
	<path id="Vector" d="M138.205 12.2249C137.575 11.5079 136.515 11.1197 135.248 11.1197C134.414 11.1197 133.721 11.2664 133.158 11.5651C132.616 11.8596 132.122 12.227 131.789 12.6589C131.457 13.0981 131.219 13.5612 131.08 14.0566C130.956 14.5395 130.869 14.9777 130.846 15.3648L139.413 15.3648C139.273 13.9744 138.828 12.9472 138.205 12.2249ZM132.136 22.6509C132.921 23.4481 134.106 23.8499 135.583 23.8499C136.634 23.8499 137.543 23.572 138.302 23.0173C139.062 22.4646 139.532 21.8724 139.7 21.2584L144.301 21.2584C143.566 23.6469 142.437 25.3527 140.915 26.3788C139.397 27.4102 137.559 27.9243 135.401 27.9243C133.898 27.9243 132.545 27.6703 131.343 27.1729C130.135 26.6681 129.122 25.9604 128.275 25.0383C127.437 24.1121 126.795 23.0173 126.338 21.7319C125.884 20.4529 125.658 19.0365 125.658 17.5014C125.658 16.0173 125.892 14.6311 126.357 13.35C126.828 12.0646 127.497 10.9553 128.354 10.0248C129.223 9.08923 130.239 8.35132 131.429 7.81226C132.624 7.27417 133.951 7.00464 135.401 7.00464C137.008 7.00464 138.424 7.32727 139.62 7.98602C140.827 8.6344 141.819 9.51385 142.589 10.6149C143.365 11.715 143.922 12.9722 144.265 14.3813C144.602 15.7894 144.732 17.2599 144.635 18.8002L130.846 18.8002C130.846 20.3686 131.348 21.8537 132.136 22.6509Z" fill="#A7AAB4" fill-opacity="1.000000" fill-rule="nonzero"/>
</svg>
