<svg width="42.000000" height="42.000000" viewBox="0 0 42 42" fill="none" xmlns="http://www.w3.org/2000/svg" xmlns:xlink="http://www.w3.org/1999/xlink">
	<desc>
			Created with Pixso.
	</desc>
	<defs>
		<clipPath id="clip827_261">
			<rect id="Frame" width="22.400002" height="22.400002" transform="translate(10.000000 10.000122)" fill="white" fill-opacity="0"/>
		</clipPath>
	</defs>
	<circle id="Bg" cx="21.000000" cy="21.000000" r="21.000000" fill="#F7F7F7" fill-opacity="1.000000"/>
	<rect id="Frame" width="22.400002" height="22.400002" transform="translate(10.000000 10.000122)" fill="#FFFFFF" fill-opacity="0"/>
	<g clip-path="url(#clip827_261)">
		<path id="Vector" d="M16.6924 14.6752C16.6924 15.803 15.7783 16.7173 14.6504 16.7173C13.5225 16.7173 12.6084 15.803 12.6084 14.6752C12.6084 13.5474 13.5225 12.6331 14.6504 12.6331C15.7783 12.6331 16.6924 13.5474 16.6924 14.6752Z" fill="#111214" fill-opacity="1.000000" fill-rule="evenodd"/>
		<path id="Vector" d="M18.6211 18.2648L18.6211 29.5945L22.1387 29.5945L22.1387 23.9917C22.1387 22.5133 22.417 21.0815 24.25 21.0815C26.0576 21.0815 26.0801 22.7719 26.0801 24.085L26.0801 29.5955L29.5996 29.5955L29.5996 23.3822C29.5996 20.3302 28.9434 17.9847 25.376 17.9847C23.6631 17.9847 22.5146 18.9246 22.0459 19.8141L21.998 19.8141L21.998 18.2648L18.6211 18.2648ZM12.8887 18.2648L16.4121 18.2648L16.4121 29.5945L12.8887 29.5945L12.8887 18.2648Z" fill="#111214" fill-opacity="1.000000" fill-rule="nonzero"/>
	</g>
</svg>
