<svg width="42.000000" height="42.000000" viewBox="0 0 42 42" fill="none" xmlns="http://www.w3.org/2000/svg" xmlns:xlink="http://www.w3.org/1999/xlink">
	<desc>
			Created with Pixso.
	</desc>
	<defs>
		<clipPath id="clip827_266">
			<rect id="Frame" width="22.400002" height="22.400002" transform="translate(10.000000 10.000122)" fill="white" fill-opacity="0"/>
		</clipPath>
	</defs>
	<circle id="Bg" cx="21.000000" cy="21.000000" r="21.000000" fill="#F7F7F7" fill-opacity="1.000000"/>
	<rect id="Frame" width="22.400002" height="22.400002" transform="translate(10.000000 10.000122)" fill="#FFFFFF" fill-opacity="0"/>
	<g clip-path="url(#clip827_266)">
		<path id="Vector" d="M29.2822 16.5148C28.4678 15.1034 27.2959 13.9315 25.8838 13.1174C24.4531 12.2841 22.8916 11.8668 21.1992 11.8668C19.5078 11.8668 17.9463 12.2841 16.5146 13.1174C15.083 13.9509 13.9502 15.084 13.1172 16.5148C12.2832 17.9457 11.8662 19.5081 11.8662 21.2002C11.8662 22.8923 12.2822 24.4547 13.1172 25.8855C13.9307 27.2971 15.1035 28.469 16.5156 29.2828C17.9463 30.1163 19.5078 30.5334 21.1992 30.5334C22.8916 30.5334 24.4531 30.1163 25.8848 29.2828C27.2969 28.4688 28.4688 27.297 29.2832 25.8855C30.1162 24.4547 30.5332 22.8923 30.5332 21.2002C30.5332 19.5081 30.1162 17.9457 29.2822 16.5148ZM21.1992 13.4161C23.0664 13.4161 24.7197 14.0134 26.165 15.2073C25.3066 16.303 24.0312 17.2046 22.3379 17.9139C21.4033 16.2218 20.3896 14.8087 19.2949 13.6765C19.915 13.505 20.5557 13.4174 21.1992 13.4161ZM15.1426 16.3468C15.8242 15.4801 16.6885 14.7729 17.6729 14.2748C18.8037 15.3958 19.8428 16.7948 20.79 18.4749C18.9229 19.0348 16.9502 19.3148 14.8711 19.3148C14.3369 19.3148 13.9326 19.3027 13.6582 19.2775C13.9443 18.2083 14.4492 17.2102 15.1426 16.3468ZM13.416 21.2002C13.416 21.1498 13.418 21.0881 13.4248 21.0134C13.4316 20.9388 13.4346 20.8772 13.4346 20.8268C13.6709 20.8398 14.0322 20.8455 14.5176 20.8455C17.0059 20.8455 19.3203 20.5029 21.4609 19.8188C21.6357 20.167 21.8164 20.559 22.002 20.9949C20.7705 21.2683 19.5068 21.9337 18.2119 22.9922C16.917 24.0505 15.9727 25.1641 15.376 26.3335C14.0693 24.8523 13.416 23.1415 13.416 21.2002ZM21.1992 28.9841C19.4316 28.9841 17.8447 28.4363 16.4385 27.3424C17 26.2345 17.8613 25.1752 19.0244 24.1682C20.1875 23.1602 21.3428 22.532 22.4873 22.2828C23.21 24.2792 23.6982 26.3527 23.9434 28.4615C23.0693 28.8032 22.1387 28.9805 21.1992 28.9841ZM27.8076 25.2882C27.1963 26.2723 26.374 27.108 25.3994 27.7344C25.1758 25.7931 24.7461 23.9012 24.1123 22.0588C24.9824 21.9972 25.7598 21.9655 26.4463 21.9655C27.1914 21.9655 28.0195 21.9972 28.9277 22.0588C28.8057 23.2067 28.4229 24.3114 27.8076 25.2882ZM26.6504 20.6215C25.5674 20.6215 24.5664 20.6654 23.6445 20.7522C23.4502 20.2415 23.2383 19.7372 23.0098 19.2401C24.9385 18.3945 26.3066 17.3679 27.1162 16.1602C28.2363 17.4799 28.8467 18.9854 28.9453 20.6775C28.1875 20.6401 27.4219 20.6215 26.6504 20.6215Z" fill="#111214" fill-opacity="1.000000" fill-rule="nonzero"/>
	</g>
</svg>
