<svg width="42.000000" height="42.000000" viewBox="0 0 42 42" fill="none" xmlns="http://www.w3.org/2000/svg" xmlns:xlink="http://www.w3.org/1999/xlink">
	<desc>
			Created with Pixso.
	</desc>
	<defs>
		<clipPath id="clip827_270">
			<rect id="Frame" width="22.400002" height="22.400002" transform="translate(10.000000 10.000122)" fill="white" fill-opacity="0"/>
		</clipPath>
	</defs>
	<circle id="Bg" cx="21.000000" cy="21.000000" r="21.000000" fill="#F7F7F7" fill-opacity="1.000000"/>
	<rect id="Frame" width="22.400002" height="22.400002" transform="translate(10.000000 10.000122)" fill="#FFFFFF" fill-opacity="0"/>
	<g clip-path="url(#clip827_270)">
		<path id="Vector" d="M21.1982 16.8854C20.0537 16.8854 18.9561 17.3401 18.1465 18.1494C17.3379 18.9587 16.8828 20.0565 16.8828 21.201C16.8828 22.3457 17.3379 23.4435 18.1465 24.2528C18.9561 25.0621 20.0537 25.5168 21.1982 25.5168C22.3428 25.5168 23.4404 25.0621 24.25 24.2528C25.0596 23.4435 25.5146 22.3457 25.5146 21.201C25.5146 20.0565 25.0596 18.9587 24.25 18.1494C23.4404 17.3401 22.3428 16.8854 21.1982 16.8854ZM21.1982 24.0039C20.4551 24.0039 19.7422 23.7085 19.2158 23.1827C18.6904 22.6569 18.3945 21.9437 18.3945 21.2002C18.3945 20.4565 18.6904 19.7434 19.2158 19.2177C19.7422 18.6919 20.4551 18.3965 21.1982 18.3965C21.9424 18.3965 22.6553 18.6919 23.1807 19.2177C23.707 19.7434 24.002 20.4565 24.002 21.2002C24.002 21.9437 23.707 22.6569 23.1807 23.1827C22.6553 23.7085 21.9424 24.0039 21.1982 24.0039Z" fill="#111214" fill-opacity="1.000000" fill-rule="nonzero"/>
		<path id="Vector" d="M26.6924 16.7266C26.6924 17.2822 26.2412 17.7327 25.6855 17.7327C25.1299 17.7327 24.6797 17.2822 24.6797 16.7266C24.6797 16.1709 25.1299 15.7205 25.6855 15.7205C26.2412 15.7205 26.6924 16.1709 26.6924 16.7266Z" fill="#111214" fill-opacity="1.000000" fill-rule="evenodd"/>
		<path id="Vector" d="M29.1641 15.7037C28.9482 15.1458 28.6182 14.639 28.1943 14.2161C27.7715 13.7931 27.2646 13.463 26.707 13.2472C26.0537 13.0021 25.3633 12.8695 24.666 12.8552C23.7676 12.816 23.4824 12.8048 21.2041 12.8048C18.9248 12.8048 18.6318 12.8048 17.7412 12.8552C17.0439 12.8688 16.3545 13.0013 15.7021 13.2472C15.1445 13.4628 14.6377 13.7927 14.2139 14.2157C13.791 14.6388 13.4609 15.1456 13.2451 15.7037C13 16.3567 12.8672 17.0466 12.8545 17.744C12.8135 18.6418 12.8018 18.9265 12.8018 21.2067C12.8018 23.4858 12.8018 23.7761 12.8545 24.6693C12.8682 25.3674 13 26.0563 13.2451 26.7106C13.4619 27.2684 13.792 27.775 14.2148 28.1981C14.6387 28.6211 15.1455 28.951 15.7031 29.1671C16.3545 29.4221 17.0439 29.5641 17.7432 29.587C18.6416 29.6262 18.9268 29.6384 21.2051 29.6384C23.4844 29.6384 23.7764 29.6384 24.668 29.587C25.3652 29.5729 26.0557 29.4407 26.708 29.196C27.2666 28.9796 27.7734 28.6494 28.1963 28.2262C28.6191 27.8031 28.9492 27.2964 29.166 26.7385C29.4111 26.0852 29.543 25.3964 29.5566 24.6982C29.5967 23.8004 29.6094 23.5157 29.6094 21.2356C29.6094 18.9554 29.6094 18.6661 29.5566 17.7729C29.5459 17.0657 29.4131 16.3657 29.1641 15.7037ZM28.0273 24.6002C28.0215 25.1382 27.9229 25.671 27.7373 26.1758C27.5967 26.5387 27.3818 26.8683 27.1074 27.1433C26.832 27.4183 26.502 27.6327 26.1387 27.7727C25.6396 27.9579 25.1123 28.056 24.5801 28.063C23.6934 28.104 23.4434 28.1143 21.1699 28.1143C18.8945 28.1143 18.6621 28.1143 17.7588 28.063C17.2266 28.0564 16.6992 27.9583 16.2012 27.7727C15.8369 27.6335 15.5059 27.4196 15.2295 27.1445C14.9531 26.8694 14.7373 26.5394 14.5967 26.1758C14.4131 25.6765 14.3154 25.1499 14.3066 24.618C14.2666 23.7313 14.2568 23.4812 14.2568 21.2076C14.2568 18.9331 14.2568 18.7007 14.3066 17.7963C14.3125 17.2587 14.4102 16.7261 14.5967 16.2218C14.8809 15.4854 15.4648 14.9058 16.2012 14.6239C16.7002 14.4392 17.2266 14.3411 17.7588 14.3336C18.6465 14.2935 18.8955 14.2822 21.1699 14.2822C23.4443 14.2822 23.6777 14.2822 24.5801 14.3336C25.1133 14.34 25.6396 14.4382 26.1387 14.6239C26.502 14.7642 26.832 14.9788 27.1074 15.2539C27.3818 15.5291 27.5967 15.8588 27.7373 16.2218C27.9209 16.7211 28.0186 17.2477 28.0273 17.7794C28.0674 18.6671 28.0771 18.9163 28.0771 21.1908C28.0771 23.4644 28.0771 23.709 28.0371 24.6012L28.0273 24.6012L28.0273 24.6002Z" fill="#111214" fill-opacity="1.000000" fill-rule="nonzero"/>
	</g>
</svg>
