<svg width="117.090919" height="28.000000" viewBox="0 0 117.091 28" fill="none" xmlns="http://www.w3.org/2000/svg" xmlns:xlink="http://www.w3.org/1999/xlink">
	<desc>
			Created with Pixso.
	</desc>
	<defs/>
	<rect id="dribbble" width="117.090919" height="28.000000" fill="#FFFFFF" fill-opacity="0"/>
	<path id="Vector" d="M35.7753 11.1826C37.1154 11.1826 38.2017 10.1266 38.2017 8.82416C38.2017 7.52161 37.1154 6.4657 35.7753 6.4657C34.4351 6.4657 33.3488 7.52161 33.3488 8.82416C33.3488 10.1266 34.4351 11.1826 35.7753 11.1826ZM115.855 19.2407C115.485 18.9884 115.2 18.9467 114.964 19.4366C110.889 28.0133 104.021 23.7335 104.703 24.1101C106.227 23.4329 110.233 20.3106 109.628 15.9996C109.26 13.3649 106.933 12.1963 104.462 12.6147C100.151 13.3451 98.5645 17.8641 99.372 21.8652C99.5134 22.5521 99.7659 23.119 100.018 23.674C95.1456 27.5242 93.2107 20.2272 92.9911 19.3553C92.9823 19.3088 96.7533 16.2545 97.8021 8.97638C98.9013 1.34857 96.3972 -0.0401611 93.8363 0.00317383C89.0978 0.083374 87.8176 9.70355 89.5376 17.7213C89.3938 17.7578 88.7231 18.1186 87.6458 18.1589C86.8704 15.7887 83.558 13.7109 82.6909 14.5115C80.521 16.5145 83.2171 20.4301 85.114 20.7374C83.9745 27.5576 76.8478 25.8683 78.1745 17.3237C80.4953 13.1361 82.2603 6.90918 81.9453 3.15009C81.8338 1.81909 80.8211 0.0359497 78.5307 0.124146C74.126 0.293579 73.6472 9.91644 74.1637 16.7462C74.1379 16.578 73.8929 17.576 72.0879 18.0723C71.6608 15.7692 67.8448 13.4577 66.9464 14.5691C65.265 16.6491 68.179 20.3577 69.5595 20.6165C68.42 27.4366 61.2934 25.7473 62.6201 17.2027C64.9408 13.0151 66.7058 6.78821 66.3907 3.02911C66.2792 1.69812 65.2667 -0.085022 62.9762 0.00317383C58.5715 0.172729 58.0926 9.79547 58.6091 16.6252C58.5831 16.4545 58.3324 17.4852 56.4536 17.9734C56.3907 14.9857 52.5608 13.6157 51.6408 14.5691C50.0011 16.2682 52.0162 19.755 53.8806 20.6165C52.7411 27.4366 45.6145 25.7473 46.9412 17.2027C49.2619 13.0151 51.0269 6.78821 50.7118 3.02911C50.6003 1.69812 49.5878 -0.085022 47.2973 0.00317383C42.8926 0.172729 42.5382 10.2792 43.0548 17.1089C41.6039 23.1491 36.7385 30.6923 37.3705 15.5817C37.4329 14.5219 37.5011 14.1192 36.9573 13.7225C36.5497 13.4139 35.623 13.5623 35.1166 13.5746C34.5009 13.5986 34.3465 13.9488 34.2105 14.4778C33.8934 15.844 33.8366 17.1684 33.7913 18.9755C33.7616 19.8209 33.6917 20.2153 33.3569 21.3679C33.0221 22.5205 31.1134 24.6268 30.0681 24.2748C28.6183 23.7901 29.0937 19.813 29.3656 17.0803C29.592 14.9206 28.8672 13.9509 27.0096 13.5983C25.9222 13.3779 25.2614 13.4119 24.129 13.065C23.0581 12.7369 22.8157 10.7684 20.5318 11.4244C19.2822 11.7835 20.0854 14.3558 19.7852 16.2624C18.309 25.6403 15.2373 25.8978 13.8123 21.3422C20.2302 6.06897 15.6689 0.0476685 12.9992 0.0476685C10.2182 0.0476685 7.03934 1.90881 8.38543 13.8182C7.7309 13.6326 7.52971 13.5327 6.81325 13.5327C2.76098 13.5327 0 16.7159 0 20.6425C0 24.5692 2.76098 27.7524 6.81325 27.7524C9.20549 27.7524 10.8848 26.6953 12.1569 25.0599C12.9867 26.2148 13.9974 27.7703 15.8454 27.7002C21.3539 27.4918 22.9561 16.512 23.145 15.8996C23.734 15.9877 24.2912 16.1547 24.8348 16.2428C25.741 16.3751 25.8067 16.7236 25.7863 17.6091C25.5463 25.0766 26.9643 27.6912 30.181 27.6912C31.9733 27.6912 33.5709 25.9803 34.6713 24.7567C35.4933 26.4051 36.8029 27.6409 38.5599 27.6912C42.8176 27.7939 44.4476 21.2001 44.2991 22.0679C44.1825 22.7487 45.6804 27.654 50.0634 27.6719C55.4929 27.6939 56.5021 21.8922 56.6226 20.9203C56.6212 20.9384 56.6197 20.9576 56.6182 20.9793C58.3419 20.6678 59.2314 19.7698 59.2314 19.7698C59.2314 19.7698 60.6154 27.7621 65.7423 27.6719C71.066 27.5781 72.07 22.3339 72.202 21.3112C72.2012 21.3212 72.2006 21.3301 72.1999 21.3412C74.2474 20.6172 74.7858 19.8908 74.7858 19.8908C74.7858 19.8908 75.886 27.7242 81.2967 27.7927C86.1186 27.8539 87.9055 23.0561 87.916 21.0478C88.7293 21.0562 90.2336 20.5791 90.1983 20.5517C90.1983 20.5517 91.9645 27.4006 96.8967 27.7524C99.2126 27.9175 100.95 26.4863 101.94 25.8333C104.267 27.6647 112.017 30.0037 116.909 21.9426C117.6 20.7858 116.115 19.4191 115.855 19.2407ZM6.61768 25.0931C4.25346 25.0931 2.73746 22.9689 2.73746 20.6785C2.73746 18.3881 4.12896 16.264 6.49318 16.264C7.55723 16.264 8.14882 16.3777 8.97751 17.0781C9.12791 17.6533 9.55359 18.9805 9.76091 19.5832C10.0384 20.3895 10.3686 21.076 10.7017 21.8231C10.2259 23.7394 8.66658 25.0931 6.61768 25.0931ZM12.3789 17.1454C12.2807 16.9932 12.3011 17.0867 12.1911 16.9429C11.7578 15.7974 10.9226 13.2404 10.8258 10.3361C10.7165 7.05084 11.28 3.20007 12.9413 3.20007C14.0669 3.20007 15.2632 11.0044 12.3789 17.1454ZM45.6678 13.7225C45.4011 11.7729 45.3872 3.08179 47.5344 3.32104C48.7199 3.78766 46.7827 11.989 45.6678 13.7225ZM61.3467 13.7225C61.08 11.7729 61.0661 3.08179 63.2133 3.32104C64.3988 3.78766 62.4616 11.989 61.3467 13.7225ZM76.9013 13.8435C76.6344 11.8939 76.6206 3.20276 78.7677 3.44202C79.9533 3.90863 78.016 12.1099 76.9013 13.8435ZM94.0734 2.81232C96.0366 2.61462 95.9555 10.9449 92.0151 16.2039C91.5071 14.3032 90.7279 3.46509 94.0734 2.81232ZM102.325 20.7374C101.694 17.6425 103.323 15.6097 105.003 15.3868C105.59 15.2957 106.441 15.6653 106.61 16.3561C106.889 17.6581 106.57 19.5894 102.811 22.0399C102.816 22.0608 102.465 21.4265 102.325 20.7374Z" fill="#A7AAB4" fill-opacity="1.000000" fill-rule="nonzero"/>
</svg>
