<svg width="104.160004" height="28.000000" viewBox="0 0 104.16 28" fill="none" xmlns="http://www.w3.org/2000/svg" xmlns:xlink="http://www.w3.org/1999/xlink">
	<desc>
			Created with Pixso.
	</desc>
	<defs/>
	<rect id="github" width="104.160004" height="28.000000" fill="#FFFFFF" fill-opacity="0"/>
	<path id="Vector" d="M20.0785 11.9478L11.3184 11.9478C11.0924 11.9478 10.9089 12.1297 10.9089 12.3534L10.9089 16.5944C10.9089 16.8181 11.0924 17.0002 11.3184 17.0002L14.7357 17.0002L14.7357 22.2692C14.7357 22.2692 13.9684 22.5282 11.8469 22.5282C9.34409 22.5282 5.84769 21.6227 5.84769 14.0099C5.84769 6.39551 9.48843 5.39368 12.9064 5.39368C15.8651 5.39368 17.1398 5.90955 17.9508 6.15802C18.2056 6.23541 18.4413 5.98413 18.4413 5.76013L19.4186 1.66254C19.4186 1.55786 19.3828 1.4317 19.2621 1.34595C18.9328 1.1134 16.9234 0 11.8469 0C5.99878 0 0 2.46362 0 14.3068C0 26.1504 6.86816 27.9152 12.6557 27.9152C17.4478 27.9152 20.3548 25.8875 20.3548 25.8875C20.4747 25.822 20.4877 25.6562 20.4877 25.5801L20.4877 12.3534C20.4877 12.1297 20.3045 11.9478 20.0785 11.9478ZM65.2008 1.48242C65.2008 1.25677 65.0202 1.07471 64.7942 1.07471L59.8617 1.07471C59.6364 1.07471 59.4532 1.25677 59.4532 1.48242C59.4532 1.48352 59.4545 10.9211 59.4545 10.9211L51.766 10.9211L51.766 1.48242C51.766 1.25677 51.5845 1.07471 51.359 1.07471L46.4267 1.07471C46.2022 1.07471 46.0193 1.25677 46.0193 1.48242L46.0193 27.0394C46.0193 27.2648 46.2022 27.4484 46.4267 27.4484L51.359 27.4484C51.5845 27.4484 51.766 27.2648 51.766 27.0394L51.766 16.1078L59.4545 16.1078C59.4545 16.1078 59.441 27.0385 59.441 27.0394C59.441 27.2648 59.624 27.4484 59.8495 27.4484L64.7938 27.4484C65.0198 27.4484 65.2004 27.2648 65.2008 27.0394L65.2008 1.48242ZM29.3705 4.89935C29.3705 3.14069 27.9465 1.71954 26.1897 1.71954C24.4347 1.71954 23.0096 3.14069 23.0096 4.89935C23.0096 6.65601 24.4347 8.08105 26.1897 8.08105C27.9465 8.08105 29.3705 6.65601 29.3705 4.89935ZM28.9791 21.6616L28.9791 9.86444C28.9791 9.64044 28.7965 9.45734 28.571 9.45734L23.6541 9.45734C23.4286 9.45734 23.2267 9.68774 23.2267 9.91168L23.2267 26.8135C23.2267 27.3102 23.5393 27.4579 23.9439 27.4579L28.3739 27.4579C28.8599 27.4579 28.9791 27.2216 28.9791 26.8055L28.9791 21.6616ZM84.0526 9.45734L79.1579 9.45734C78.9334 9.45734 78.7507 9.64044 78.7507 9.86591L78.7507 22.3973C78.7507 22.3973 77.5073 23.2982 75.7422 23.2982C73.9775 23.2982 73.509 22.5052 73.509 20.7941L73.509 9.86591C73.509 9.64044 73.3267 9.45734 73.102 9.45734L68.1343 9.45734C67.9101 9.45734 67.7264 9.64044 67.7264 9.86591L67.7264 21.6216C67.7264 26.704 70.5872 27.9475 74.5227 27.9475C77.7513 27.9475 80.3544 26.1813 80.3544 26.1813C80.3544 26.1813 80.4783 27.112 80.5343 27.2225C80.5905 27.3325 80.7366 27.4437 80.8945 27.4437L84.0548 27.4299C84.2791 27.4299 84.4627 27.2463 84.4627 27.022L84.4612 9.86591C84.4612 9.64044 84.2782 9.45734 84.0526 9.45734ZM95.3302 23.3078C93.6324 23.2567 92.4809 22.4938 92.4809 22.4938L92.4809 14.4005C92.4809 14.4005 93.617 13.711 95.0109 13.5876C96.7735 13.4313 98.4719 13.9586 98.4719 18.1219C98.4719 22.5123 97.7054 23.3787 95.3302 23.3078ZM97.2608 8.90839C94.4808 8.90839 92.5898 10.1365 92.5898 10.1365L92.5898 1.48242C92.5898 1.25677 92.4077 1.07471 92.1829 1.07471L87.2364 1.07471C87.0115 1.07471 86.8288 1.25677 86.8288 1.48242L86.8288 27.0394C86.8288 27.2648 87.0115 27.4484 87.2371 27.4484L90.669 27.4484C90.8235 27.4484 90.9406 27.3695 91.0269 27.2313C91.1122 27.0939 91.2353 26.053 91.2353 26.053C91.2353 26.053 93.258 27.9509 97.0869 27.9509C101.582 27.9509 104.16 25.6932 104.16 17.8155C104.16 9.93774 100.043 8.90839 97.2608 8.90839ZM43.1754 9.41345L39.4754 9.41345C39.4754 9.41345 39.4698 4.57452 39.4698 4.57349C39.4698 4.39038 39.3745 4.29877 39.1606 4.29877L34.1185 4.29877C33.9225 4.29877 33.8172 4.38409 33.8172 4.57068L33.8172 9.57233C33.8172 9.57233 31.2905 10.1763 31.1197 10.2251C30.9495 10.2739 30.8242 10.4293 30.8242 10.6146L30.8242 13.7576C30.8242 13.9838 31.0066 14.166 31.2321 14.166L33.8172 14.166L33.8172 21.7271C33.8172 27.3433 37.7957 27.895 40.4804 27.895C41.7071 27.895 43.1745 27.5049 43.4168 27.4164C43.5633 27.363 43.6484 27.2128 43.6484 27.0499L43.6525 23.5924C43.6525 23.3669 43.4602 23.1844 43.2436 23.1844C43.028 23.1844 42.4764 23.2712 41.9086 23.2712C40.0912 23.2712 39.4754 22.4345 39.4754 21.3514C39.4754 20.2692 39.4752 14.166 39.4752 14.166L43.1754 14.166C43.4009 14.166 43.5835 13.9838 43.5835 13.7576L43.5835 9.8208C43.5835 9.59534 43.4009 9.41345 43.1754 9.41345Z" fill="#A7AAB4" fill-opacity="1.000000" fill-rule="nonzero"/>
</svg>
