<svg width="42.000000" height="42.000000" viewBox="0 0 42 42" fill="none" xmlns="http://www.w3.org/2000/svg" xmlns:xlink="http://www.w3.org/1999/xlink">
	<desc>
			Created with Pixso.
	</desc>
	<defs>
		<clipPath id="clip14_14">
			<rect id="Frame" width="22.400002" height="22.400002" transform="translate(10.000000 10.000122)" fill="white" fill-opacity="0"/>
		</clipPath>
	</defs>
	<circle id="Ellipse 217" cx="21.000000" cy="21.000000" r="21.000000" fill="#FFFFFF" fill-opacity="0.100000"/>
	<rect id="Frame" width="22.400002" height="22.400002" transform="translate(10.000000 10.000122)" fill="#FFFFFF" fill-opacity="0"/>
	<g clip-path="url(#clip14_14)">
		<path id="Vector" d="M21.199 16.8854C20.0544 16.8854 18.9567 17.3401 18.1473 18.1494C17.338 18.9587 16.8833 20.0565 16.8833 21.201C16.8833 22.3457 17.338 23.4435 18.1473 24.2528C18.9567 25.0621 20.0544 25.5168 21.199 25.5168C22.3436 25.5168 23.4413 25.0621 24.2507 24.2528C25.0601 23.4435 25.5148 22.3457 25.5148 21.201C25.5148 20.0565 25.0601 18.9587 24.2507 18.1494C23.4413 17.3401 22.3436 16.8854 21.199 16.8854ZM21.199 24.0039C20.4554 24.0039 19.7423 23.7085 19.2165 23.1827C18.6907 22.6569 18.3953 21.9437 18.3953 21.2002C18.3953 20.4565 18.6907 19.7434 19.2165 19.2177C19.7423 18.6919 20.4554 18.3965 21.199 18.3965C21.9426 18.3965 22.6558 18.6919 23.1816 19.2177C23.7074 19.7434 24.0027 20.4565 24.0027 21.2002C24.0027 21.9437 23.7074 22.6569 23.1816 23.1827C22.6558 23.7085 21.9426 24.0039 21.199 24.0039Z" fill="#FFFFFF" fill-opacity="1.000000" fill-rule="nonzero"/>
		<path id="Vector" d="M26.6917 16.7266C26.6917 17.2822 26.2413 17.7327 25.6855 17.7327C25.1299 17.7327 24.6794 17.2822 24.6794 16.7266C24.6794 16.1709 25.1299 15.7205 25.6855 15.7205C26.2413 15.7205 26.6917 16.1709 26.6917 16.7266Z" fill="#FFFFFF" fill-opacity="1.000000" fill-rule="evenodd"/>
		<path id="Vector" d="M29.164 15.7037C28.9479 15.1458 28.6178 14.639 28.1946 14.2161C27.7714 13.7931 27.2646 13.463 26.7065 13.2472C26.0535 13.0021 25.3636 12.8695 24.6663 12.8552C23.7675 12.816 23.4828 12.8048 21.2036 12.8048C18.9244 12.8048 18.6323 12.8048 17.741 12.8552C17.0441 12.8688 16.3547 13.0013 15.7026 13.2472C15.1443 13.4628 14.6374 13.7927 14.2142 14.2157C13.791 14.6388 13.4609 15.1456 13.2451 15.7037C12.9999 16.3567 12.8677 17.0466 12.854 17.744C12.8139 18.6418 12.8018 18.9265 12.8018 21.2067C12.8018 23.4858 12.8018 23.7761 12.854 24.6693C12.868 25.3674 12.9996 26.0563 13.2451 26.7106C13.4615 27.2684 13.7919 27.775 14.2152 28.1981C14.6385 28.6211 15.1454 28.951 15.7035 29.1671C16.3544 29.4221 17.0441 29.5641 17.7428 29.587C18.6416 29.6262 18.9263 29.6384 21.2055 29.6384C23.4847 29.6384 23.7769 29.6384 24.6682 29.587C25.3655 29.5729 26.0553 29.4407 26.7084 29.196C27.2664 28.9796 27.773 28.6494 28.1961 28.2262C28.6193 27.8031 28.9495 27.2964 29.1659 26.7385C29.4114 26.0852 29.543 25.3964 29.5569 24.6982C29.5971 23.8004 29.6093 23.5157 29.6093 21.2356C29.6093 18.9554 29.6093 18.6661 29.5569 17.7729C29.5461 17.0657 29.4131 16.3657 29.164 15.7037ZM28.0272 24.6002C28.0212 25.1382 27.923 25.671 27.7369 26.1758C27.5968 26.5387 27.3822 26.8683 27.1071 27.1433C26.8318 27.4183 26.5021 27.6327 26.1391 27.7727C25.64 27.9579 25.1128 28.056 24.5804 28.063C23.6938 28.104 23.4436 28.1143 21.17 28.1143C18.8945 28.1143 18.6622 28.1143 17.7587 28.063C17.2266 28.0564 16.6996 27.9583 16.201 27.7727C15.8367 27.6335 15.5056 27.4196 15.2292 27.1445C14.9529 26.8694 14.7374 26.5394 14.5966 26.1758C14.4131 25.6765 14.315 25.1499 14.3063 24.618C14.2662 23.7313 14.2568 23.4812 14.2568 21.2076C14.2568 18.9331 14.2568 18.7007 14.3063 17.7963C14.3123 17.2587 14.4105 16.7261 14.5966 16.2218C14.8812 15.4854 15.4645 14.9058 16.201 14.6239C16.6999 14.4392 17.2267 14.3411 17.7587 14.3336C18.6463 14.2935 18.8955 14.2822 21.17 14.2822C23.4446 14.2822 23.6779 14.2822 24.5804 14.3336C25.1128 14.34 25.6401 14.4382 26.1391 14.6239C26.5021 14.7642 26.8318 14.9788 27.1069 15.2539C27.3821 15.5291 27.5967 15.8588 27.7369 16.2218C27.9204 16.7211 28.0186 17.2477 28.0272 17.7794C28.0674 18.6671 28.0776 18.9163 28.0776 21.1908C28.0776 23.4644 28.0776 23.709 28.0375 24.6012L28.0272 24.6012L28.0272 24.6002Z" fill="#FFFFFF" fill-opacity="1.000000" fill-rule="nonzero"/>
	</g>
</svg>
