<svg width="72.000000" height="18.000000" viewBox="0 0 72 18" fill="none" xmlns="http://www.w3.org/2000/svg" xmlns:xlink="http://www.w3.org/1999/xlink">
	<desc>
			Created with Pixso.
	</desc>
	<defs/>
	<path id="Vector" d="M28.4143 10.5429L32.3871 15.4286L29.25 15.4286L25.7142 10.9414L25.7142 15.4286L23.1428 15.4286L23.1428 2.57143L25.7142 2.57143L25.7142 10.1314L28.98 6.42857L32.2585 6.42857L28.4143 10.5429ZM18.1285 6.17143C16.9857 6.18852 15.924 6.76508 15.2871 7.71429L15.2871 6.42857L12.8572 6.42857L12.8572 15.4286L15.4286 15.4286L15.4286 11.2243C15.3604 10.6074 15.5514 9.98994 15.9561 9.51941C16.3607 9.04889 16.9427 8.76762 17.5629 8.74286C19.0543 8.74286 19.2858 10.2086 19.2858 11.2243L19.2858 15.4286L21.8572 15.4286L21.8572 10.6586C21.8572 7.83 20.9186 6.17143 18.1801 6.17143L18.1285 6.17143ZM41.1428 11.1343C41.1527 11.3227 41.1527 11.5116 41.1428 11.7L34.3928 11.7L34.3928 11.79C34.6191 12.8975 35.6163 13.6767 36.7457 13.6286C37.6221 13.6667 38.4762 13.3464 39.1115 12.7414L40.8214 14.0271C39.7255 15.1456 38.2075 15.7481 36.6428 15.6857C35.3464 15.7677 34.078 15.2838 33.1656 14.359C32.2532 13.4343 31.7864 12.1595 31.8857 10.8643C31.8591 9.58681 32.3647 8.35575 33.2815 7.46575C34.1984 6.57575 35.4438 6.1069 36.72 6.17143C39.1371 6.17143 41.1428 7.88143 41.1428 11.1343ZM38.7515 10.0286C38.7323 9.51389 38.5026 9.02966 38.1161 8.6893C37.7295 8.34894 37.2201 8.18236 36.7072 8.22857C35.5765 8.10634 34.5527 8.90267 34.3928 10.0286L38.7515 10.0286ZM2.57141 2.57143L0 2.57143L0 15.4286L7.71423 15.4286L7.71423 12.8571L2.57141 12.8571L2.57141 2.57143ZM48.8572 2.57143L51.4286 2.57143L51.4286 15.4286L48.9985 15.4286L48.9985 14.5286C48.3728 15.2995 47.4191 15.7287 46.4271 15.6857C45.2192 15.6547 44.0778 15.1266 43.2721 14.226C42.4666 13.3255 42.0682 12.1324 42.1714 10.9286C42.0487 9.7225 42.4384 8.52036 43.2452 7.61562C44.0521 6.71089 45.202 6.18684 46.4143 6.17143C47.3163 6.13194 48.1964 6.45618 48.8572 7.07143L48.8572 2.57143ZM49.05 10.9286C49.1318 10.3279 48.9495 9.72116 48.5502 9.26506C48.1508 8.80897 47.5734 8.54817 46.9672 8.54999C45.7371 8.63931 44.8052 9.6971 44.8715 10.9286C44.8052 12.16 45.7371 13.2178 46.9672 13.3072C47.5734 13.309 48.1508 13.0482 48.5502 12.5921C48.9495 12.136 49.1318 11.5293 49.05 10.9286ZM10.2858 2.31429C9.42786 2.3265 8.72583 3.0005 8.67859 3.85714C8.67859 4.74474 9.39807 5.46429 10.2858 5.46429C11.1733 5.46429 11.8928 4.74474 11.8928 3.85714C11.8457 3.0005 11.1436 2.3265 10.2858 2.31429ZM9 15.4286L11.5714 15.4286L11.5714 6.42857L9 6.42857L9 15.4286ZM72 1.28571L72 16.7143C72 17.4244 71.4243 18 70.7142 18L55.2858 18C54.5757 18 54 17.4244 54 16.7143L54 1.28571C54 0.575638 54.5757 0 55.2858 0L70.7142 0C71.4243 0 72 0.575638 72 1.28571ZM59.1428 6.42857L56.5714 6.42857L56.5714 15.4286L59.1428 15.4286L59.1428 6.42857ZM59.4642 3.85714C59.4642 2.96954 58.7448 2.25 57.8572 2.25C56.9695 2.25 56.25 2.96954 56.25 3.85714C56.25 4.74474 56.9695 5.46429 57.8572 5.46429C58.7448 5.46429 59.4642 4.74474 59.4642 3.85714ZM69.4286 10.6586C69.4286 7.83 68.49 6.17143 65.7515 6.17143C64.5903 6.17157 63.5055 6.75011 62.8585 7.71429L62.8585 6.42857L60.4286 6.42857L60.4286 15.4286L63 15.4286L63 11.2243C62.9318 10.6074 63.1228 9.98994 63.5275 9.51941C63.9321 9.04889 64.5142 8.76762 65.1343 8.74286C66.6257 8.74286 66.8572 10.2086 66.8572 11.2243L66.8572 15.4286L69.4286 15.4286L69.4286 10.6586Z" fill="#A7AAB4" fill-opacity="1.000000" fill-rule="nonzero"/>
</svg>
