<svg width="40.000000" height="40.000000" viewBox="0 0 40 40" fill="none" xmlns="http://www.w3.org/2000/svg" xmlns:xlink="http://www.w3.org/1999/xlink">
	<desc>
			Created with Pixso.
	</desc>
	<defs>
		<linearGradient id="paint_linear_12_51_0" x1="20.000000" y1="0.000000" x2="20.000000" y2="40.000000" gradientUnits="userSpaceOnUse">
			<stop stop-color="#FE390C"/>
			<stop offset="1.000000" stop-color="#521B0E"/>
		</linearGradient>
	</defs>
	<path d="M18.4122 33.0791C16.489 33.0791 15.017 32.5003 13.9962 31.3428C12.9845 30.1761 12.4786 28.4945 12.4786 26.2979L12.4786 14.8682C12.4786 12.8083 12.9799 11.2451 13.9825 10.1787C14.9942 9.1123 16.4708 8.5791 18.4122 8.5791C20.3536 8.5791 21.8256 9.1123 22.8282 10.1787C23.8399 11.2451 24.3458 12.8083 24.3458 14.8682L24.3458 26.2979C24.3458 28.4945 23.8354 30.1761 22.8145 31.3428C21.8028 32.5003 20.3354 33.0791 18.4122 33.0791ZM18.4532 28.6494C19.1824 28.6494 19.547 27.943 19.547 26.5303L19.547 14.7861C19.547 13.6012 19.1915 13.0088 18.4805 13.0088C17.6785 13.0088 17.2774 13.6149 17.2774 14.8271L17.2774 26.5576C17.2774 27.305 17.3686 27.8428 17.5509 28.1709C17.7332 28.4899 18.0339 28.6494 18.4532 28.6494Z" fill="#FFFFFF" fill-opacity="0.520000" fill-rule="evenodd"/>
	<path d="M1.06641 32.8604L1.06641 8.79785L10.6914 8.79785L10.6914 13.4873L5.90625 13.4873L5.90625 17.3154L10.4453 17.3154L10.4453 21.9502L5.90625 21.9502L5.90625 32.8604L1.06641 32.8604Z" fill="#FFFFFF" fill-opacity="1.000000" fill-rule="evenodd"/>
	<path d="M26.0099 32.8604L28.5939 20.1045L26.5431 8.78418L31.2463 8.78418L32.4904 17.0557L33.5978 8.78418L38.3146 8.78418L36.2638 20.1045L38.8341 32.8604L33.967 32.8604L32.4494 23.4541L30.8908 32.8604L26.0099 32.8604Z" fill="url(#paint_linear_12_51_0)" fill-opacity="1.000000" fill-rule="evenodd"/>
</svg>
