<svg width="20.000000" height="18.000000" viewBox="0 0 20 18" fill="none" xmlns="http://www.w3.org/2000/svg" xmlns:xlink="http://www.w3.org/1999/xlink">
	<desc>
			Created with Pixso.
	</desc>
	<defs/>
	<path id="Vector" d="M14.939 0C16.28 0 17.57 0.530029 18.519 1.48096C19.469 2.43005 20 3.70996 20 5.05005L20 12.95C20 15.74 17.73 18 14.939 18L5.06 18C2.26898 18 0 15.74 0 12.95L0 5.05005C0 2.26001 2.25897 0 5.06 0L14.939 0ZM16.07 5.19995C15.86 5.18896 15.66 5.26001 15.509 5.40002L11 9C10.42 9.48096 9.58899 9.48096 9 9L4.5 5.40002C4.18903 5.17004 3.75897 5.19995 3.5 5.46997C3.22998 5.73999 3.20001 6.17004 3.42902 6.46997L3.56 6.59998L8.10999 10.15C8.66998 10.59 9.349 10.83 10.06 10.83C10.769 10.83 11.46 10.59 12.019 10.15L16.53 6.54004L16.61 6.45996C16.849 6.17004 16.849 5.75 16.599 5.45996C16.46 5.31104 16.269 5.21997 16.07 5.19995Z" fill="#FE390C" fill-opacity="1.000000" fill-rule="nonzero"/>
</svg>
