<svg width="26.000000" height="26.005884" viewBox="0 0 26 26.0059" fill="none" xmlns="http://www.w3.org/2000/svg" xmlns:xlink="http://www.w3.org/1999/xlink">
	<desc>
			Created with Pixso.
	</desc>
	<defs/>
	<path id="Combined-Shape" d="M5.66667 14.67C11.092 14.67 11.3333 16.5104 11.3333 20.3379C11.3333 22.2557 11.3333 23.62 10.528 24.6189C9.60133 25.7698 7.91467 26.0059 5.66667 26.0059C3.41867 26.0059 1.73199 25.7698 0.805328 24.6189C0 23.62 0 22.257 0 20.3713L1 20.3379L0 20.3379C0 16.5104 0.241333 14.67 5.66667 14.67ZM20.3333 14.67C25.7587 14.67 26 16.5104 26 20.3379C26 22.2557 26 23.62 25.1947 24.6189C24.268 25.7698 22.5813 26.0059 20.3333 26.0059C18.0853 26.0059 16.3987 25.7698 15.472 24.6189C14.6667 23.62 14.6667 22.257 14.6667 20.3713L15.6667 20.3379L14.6667 20.3379C14.6667 16.5104 14.908 14.67 20.3333 14.67ZM5.94154 16.671L5.66667 16.6704C2.18803 16.6704 2.00964 16.9201 2.00049 19.8406L2.00105 20.9783C2.00737 22.1399 2.05162 22.9789 2.36133 23.3653C2.71466 23.8027 3.76399 24.0054 5.66667 24.0054C7.56934 24.0054 8.61867 23.8014 8.972 23.364C9.33333 22.9145 9.33333 21.8476 9.33333 20.3699C9.33333 17.0356 9.33333 16.6867 5.94154 16.671ZM20.6082 16.671L20.3333 16.6704C16.8547 16.6704 16.6763 16.9201 16.6672 19.8406L16.6677 20.9783C16.674 22.1399 16.7183 22.9789 17.028 23.3653C17.3813 23.8027 18.4307 24.0054 20.3333 24.0054C22.236 24.0054 23.2853 23.8014 23.6387 23.364C24 22.9145 24 21.8476 24 20.3699C24 17.0356 24 16.6867 20.6082 16.671ZM5.66667 0C11.092 0 11.3333 1.84042 11.3333 5.66795C11.3333 7.58572 11.3333 8.95003 10.528 9.94892C9.60133 11.0998 7.91467 11.3359 5.66667 11.3359C3.41867 11.3359 1.73199 11.0998 0.805328 9.94892C0 8.95003 0 7.58705 0 5.70129L1 5.66795L0 5.66795C0 1.84042 0.241333 0 5.66667 0ZM20.3333 0C25.7587 0 26 1.84042 26 5.66795C26 7.58572 26 8.95003 25.1947 9.94892C24.268 11.0998 22.5813 11.3359 20.3333 11.3359C18.0853 11.3359 16.3987 11.0998 15.472 9.94892C14.6667 8.95003 14.6667 7.58705 14.6667 5.70129L15.6667 5.66795L14.6667 5.66795C14.6667 1.84042 14.908 0 20.3333 0ZM5.94154 2.00105L5.66667 2.00045C2.18803 2.00045 2.00964 2.25013 2.00049 5.17057L2.00105 6.30833C2.00737 7.46988 2.05162 8.30893 2.36133 8.6953C2.71466 9.13273 3.76399 9.33545 5.66667 9.33545C7.56934 9.33545 8.61867 9.1314 8.972 8.69397C9.33333 8.24453 9.33333 7.17762 9.33333 5.69996C9.33333 2.3656 9.33333 2.01675 5.94154 2.00105ZM20.6082 2.00105L20.3333 2.00045C16.8547 2.00045 16.6763 2.25013 16.6672 5.17057L16.6677 6.30833C16.674 7.46988 16.7183 8.30893 17.028 8.6953C17.3813 9.13273 18.4307 9.33545 20.3333 9.33545C22.236 9.33545 23.2853 9.1314 23.6387 8.69397C24 8.24453 24 7.17762 24 5.69996C24 2.3656 24 2.01675 20.6082 2.00105Z" fill="#FE390C" fill-opacity="1.000000" fill-rule="evenodd"/>
</svg>
