<svg width="93.000000" height="28.000000" viewBox="0 0 93 28" fill="none" xmlns="http://www.w3.org/2000/svg" xmlns:xlink="http://www.w3.org/1999/xlink">
	<desc>
			Created with Pixso.
	</desc>
	<defs/>
	<rect id="twilio" width="93.000008" height="28.000000" fill="#FFFFFF" fill-opacity="0"/>
	<path id="Vector" d="M13.9892 0C21.7112 0 27.9783 6.23279 27.9783 13.9125C27.9783 21.5922 21.7112 27.825 13.9892 27.825C6.26715 27.825 0 21.5922 0 13.9125C0 6.23279 6.26715 0 13.9892 0ZM13.9892 3.67291C8.28159 3.67291 3.69315 8.23621 3.69315 13.9125C3.69315 19.5888 8.28159 24.1521 13.9892 24.1521C19.6967 24.1521 24.2852 19.5888 24.2852 13.9125C24.2852 8.23621 19.6967 3.67291 13.9892 3.67291ZM85.8935 9.40485C90.0343 9.40485 93 12.41 93 15.9716L93 16.0272C93 19.5888 90.0343 22.6495 85.8376 22.6495C81.6967 22.6495 78.731 19.6445 78.731 16.0828L78.731 16.0272C78.731 12.4656 81.6967 9.40485 85.8935 9.40485ZM37.7148 5.50934C37.8827 5.45367 38.0505 5.62067 38.0505 5.73193L38.0505 9.73877L45.4928 9.73877C45.6607 9.73877 45.7726 9.85004 45.8285 9.96136L46.444 12.243L47.0036 14.5247L47.0596 14.6359L47.1155 14.4133L48.5144 9.79443C48.5704 9.68311 48.7383 9.57178 48.8502 9.57178L52.5433 9.57178C52.7112 9.57178 52.8231 9.68311 52.8791 9.79443L54.3339 14.7473L54.3899 14.5247L55.6209 9.9057C55.6769 9.79443 55.8448 9.68311 55.9567 9.68311L65.4693 9.68311C65.5812 9.68311 65.6931 9.79443 65.6931 9.96136L65.6931 22.0931C65.6931 22.2043 65.5812 22.3157 65.4693 22.3157L60.713 22.3157C60.6011 22.3157 60.4892 22.2043 60.4892 22.0931L60.4892 10.4066L56.9079 22.0931C56.852 22.2043 56.6841 22.3157 56.5722 22.3157L52.6552 22.3157C52.4874 22.3157 52.3755 22.2043 52.3195 22.0931L51.5361 19.6445L50.6968 16.9733L49.0181 22.1487C48.9621 22.26 48.7942 22.3713 48.6823 22.3713L44.7654 22.3713C44.5975 22.3713 44.4856 22.26 44.4296 22.1487L40.9043 10.5178L40.9043 13.5229C40.9043 13.6343 40.7924 13.7455 40.6805 13.7455L37.9946 13.7455L37.9946 16.9176C37.9946 17.8636 38.4422 18.1976 39.2816 18.1976C39.7292 18.1976 40.1209 18.1419 40.6245 17.9193C40.7365 17.9193 40.9043 17.975 40.9043 18.1419L40.9043 21.8148C40.065 22.26 38.8339 22.5383 37.5469 22.5383C34.4693 22.5383 32.7906 21.0914 32.7906 18.0306L32.7906 13.6899L31.5596 13.6899C31.4477 13.6899 31.3357 13.5786 31.3357 13.4673L31.3357 9.9057C31.3357 9.79443 31.4477 9.68311 31.5596 9.68311L32.7906 9.68311L32.7906 7.17883C32.7906 7.06757 32.8466 7.0119 33.0144 6.95624L37.7148 5.50934ZM71.7365 5.45367C71.8484 5.45367 71.9603 5.565 71.9603 5.67633L71.9603 22.0931C71.9603 22.2043 71.8484 22.3157 71.7365 22.3157L66.9802 22.3157C66.8682 22.3157 66.7563 22.2043 66.7563 22.0931L66.7563 5.67633C66.7563 5.565 66.8682 5.45367 66.9802 5.45367L71.7365 5.45367ZM78.0036 9.68311C78.1155 9.68311 78.2274 9.79443 78.2274 9.96136L78.2274 22.0931C78.2274 22.2043 78.1155 22.3157 78.0036 22.3157L73.2473 22.3157C73.1354 22.3157 73.0235 22.2043 73.0235 22.0931L73.0235 9.9057C73.0235 9.79443 73.1354 9.68311 73.2473 9.68311L78.0036 9.68311ZM17.4585 14.469C19.0655 14.469 20.3682 15.7646 20.3682 17.3628C20.3682 18.961 19.0655 20.2566 17.4585 20.2566C15.8515 20.2566 14.5487 18.961 14.5487 17.3628C14.5487 15.7646 15.8515 14.469 17.4585 14.469ZM10.5199 14.469C12.1269 14.469 13.4296 15.7646 13.4296 17.3628C13.4296 18.961 12.1269 20.2566 10.5199 20.2566C8.91284 20.2566 7.61011 18.961 7.61011 17.3628C7.61011 15.7646 8.91284 14.469 10.5199 14.469ZM85.8376 13.7455C84.6625 13.7455 83.8231 14.6916 83.8231 15.9159L83.8231 15.9716C83.8231 17.1959 84.7184 18.1976 85.8935 18.1976C87.0686 18.1976 87.908 17.2515 87.908 16.0272C87.908 14.7473 87.0126 13.7455 85.8376 13.7455ZM17.4585 7.56842C19.0655 7.56842 20.3682 8.86401 20.3682 10.4622C20.3682 12.0604 19.0655 13.356 17.4585 13.356C15.8515 13.356 14.5487 12.0604 14.5487 10.4622C14.5487 8.86401 15.8515 7.56842 17.4585 7.56842ZM10.5199 7.56842C12.1269 7.56842 13.4296 8.86401 13.4296 10.4622C13.4296 12.0604 12.1269 13.356 10.5199 13.356C8.91284 13.356 7.61011 12.0604 7.61011 10.4622C7.61011 8.86401 8.91284 7.56842 10.5199 7.56842ZM65.5253 5.45367C65.6931 5.45367 65.8051 5.565 65.7491 5.67633L65.7491 8.51447C65.7491 8.62573 65.6372 8.73706 65.5253 8.73706L60.6011 8.73706C60.4892 8.73706 60.3773 8.62573 60.3773 8.51447L60.3773 5.67633C60.3773 5.565 60.4892 5.45367 60.6011 5.45367L65.5253 5.45367ZM78.0596 5.45367C78.2274 5.45367 78.3394 5.565 78.2834 5.67633L78.2834 8.51447C78.2834 8.62573 78.1715 8.73706 78.0596 8.73706L73.1354 8.73706C73.0235 8.73706 72.9116 8.62573 72.9116 8.51447L72.9116 5.67633C72.9116 5.565 73.0235 5.45367 73.1354 5.45367L78.0596 5.45367Z" fill="#A7AAB4" fill-opacity="1.000000" fill-rule="nonzero"/>
</svg>
