<svg width="27.115479" height="27.164011" viewBox="0 0 27.1155 27.164" fill="none" xmlns="http://www.w3.org/2000/svg" xmlns:xlink="http://www.w3.org/1999/xlink">
	<desc>
			Created with Pixso.
	</desc>
	<defs/>
	<path id="Combined-Shape" d="M12.656 0.0485439C13.208 0.0485439 13.656 0.496646 13.656 1.04877C13.656 1.6009 13.208 2.049 12.656 2.049L7.67065 2.049C4.22534 2.049 2 4.40953 2 8.06236L2 19.1502C2 22.803 4.22534 25.1636 7.67065 25.1636L19.436 25.1636C22.8813 25.1636 25.108 22.803 25.108 19.1502L25.108 13.7783C25.108 13.2262 25.556 12.7781 26.108 12.7781C26.66 12.7781 27.108 13.2262 27.108 13.7783L27.108 19.1502C27.108 23.9433 24.024 27.164 19.436 27.164L7.67065 27.164C3.08264 27.164 0 23.9433 0 19.1502L0 8.06236C0 3.26927 3.08264 0.0485439 7.67065 0.0485439L12.656 0.0485439ZM24.2688 1.22028L25.8915 2.84331C26.6821 3.63282 27.1168 4.68239 27.1155 5.79998C27.1155 6.91756 26.6808 7.9658 25.8915 8.75398L15.8795 18.7682C15.1448 19.5031 14.1661 19.9085 13.1262 19.9085L8.13147 19.9085C7.86212 19.9085 7.60345 19.7991 7.41547 19.6058C7.22748 19.4137 7.12482 19.1537 7.13147 18.8829L7.25677 13.8431C7.2821 12.8402 7.68616 11.8974 8.39545 11.1865L8.39679 11.1865L18.3608 1.22028C19.9901 -0.406758 22.6395 -0.406758 24.2688 1.22028ZM17.54 4.8691L9.81012 12.6015C9.46478 12.9469 9.2688 13.4057 9.25677 13.8925L9.1568 17.9081L13.1262 17.9081C13.6328 17.9081 14.1075 17.712 14.4661 17.3533L22.2427 9.57283L17.54 4.8691ZM19.7741 2.63526L18.9533 3.45411L23.656 8.15918L24.4781 7.33899C24.8888 6.92823 25.1155 6.38144 25.1155 5.79998C25.1155 5.21718 24.8888 4.66906 24.4781 4.2583L22.8555 2.63526C22.0062 1.7884 20.6248 1.7884 19.7741 2.63526Z" fill="#FE390C" fill-opacity="1.000000" fill-rule="evenodd"/>
</svg>
