<svg width="71.441895" height="17.968739" viewBox="0 0 71.4419 17.9687" fill="none" xmlns="http://www.w3.org/2000/svg" xmlns:xlink="http://www.w3.org/1999/xlink">
	<desc>
			Created with Pixso.
	</desc>
	<defs/>
	<path id="Vector" d="M23.0686 7.02663C23.0686 5.74505 21.8223 4.38391 19.6658 4.38391C17.2439 4.38391 14.5835 6.16046 14.177 9.70471C13.7617 13.2843 15.989 14.8753 18.2339 14.8753C20.479 14.8753 21.6543 14.0002 22.8564 12.8335C21.8223 11.5343 20.4878 12.1353 20.2314 12.2679C19.9485 12.4093 19.5862 12.6037 18.8438 12.6037C17.9775 12.6037 17.0938 12.2149 17.0938 10.5974C22.6443 10.0494 23.0686 8.30822 23.0686 7.02663ZM20.3198 7.23876C20.2844 7.63649 20.1252 8.31706 17.3147 8.69712C17.907 6.59354 19.0381 6.43445 19.5596 6.43445C20.0459 6.43445 20.3552 6.81451 20.3198 7.23876ZM10.9155 7.58346C10.9155 7.58346 9.72241 11.331 9.62524 11.6404C9.58984 11.3222 8.71484 4.59604 8.71484 4.59604C6.68188 4.59604 5.59473 6.04556 5.02026 7.57462C5.02026 7.57462 3.5708 11.331 3.44702 11.6492C3.43823 11.3575 3.22607 7.61882 3.22607 7.61882C3.10229 5.74505 1.3877 4.60487 0 4.60487L1.6792 14.7957C3.80933 14.7869 4.9585 13.3462 5.55933 11.8171C5.55933 11.8171 6.84106 8.50267 6.89404 8.35241C6.90283 8.49383 7.81323 14.7957 7.81323 14.7957C9.95215 14.7957 11.1013 13.4434 11.72 11.9674L14.7161 4.60487C12.6038 4.60487 11.49 6.04556 10.9155 7.58346ZM30.9172 4.36623C29.6003 4.36623 28.5928 5.08216 27.7441 6.13394L27.7441 6.1251L28.5042 0C26.7542 0 25.3313 1.52023 25.0571 3.78289L23.7314 14.7162C24.739 14.7162 25.8086 14.4245 26.3831 13.682C26.8958 14.3449 27.6646 14.8753 28.8047 14.8753C31.7568 14.8753 33.7808 11.4459 33.7808 8.22868C33.7632 5.29428 32.3401 4.36623 30.9172 4.36623ZM30.6433 9.62516C30.3337 11.4194 29.3352 12.6391 28.3716 12.6391C27.3994 12.6391 26.9841 12.206 26.9841 12.206C27.1697 10.6328 27.2847 9.66936 27.6382 8.83853C27.9917 8.00771 28.8313 6.68193 29.7063 6.68193C30.5637 6.68193 30.9526 7.8221 30.6433 9.62516ZM41.1521 4.60487L39.0928 4.60487L39.1016 4.49881C39.2432 3.15536 39.5613 2.44827 40.613 2.33337C41.3291 2.26266 41.6472 1.89145 41.7268 1.48487C41.7886 1.16669 41.9829 0.0618706 41.9829 0.0618706C37.8467 0.0353546 36.5474 1.82074 36.2114 4.54301L36.2026 4.60487L36.1584 4.60487C35.4868 4.60487 34.7444 5.36499 34.6206 6.32839L34.5764 6.68193L35.9551 6.68193L34.7974 16.2452L34.4438 17.9599C34.488 17.9599 34.541 17.9687 34.5852 17.9687C36.5208 17.898 37.7583 16.369 38.0322 14.1505L38.9338 6.68193L39.5789 6.68193C40.2153 6.68193 40.9578 6.04556 41.0903 4.98493L41.1521 4.60487ZM51.8645 4.4281C49.4871 4.4281 47.2419 6.17813 46.5525 8.92692C45.863 11.6757 46.906 14.9283 50.4062 14.9283C53.8975 14.9283 55.9126 11.5431 55.9126 8.72363C55.9126 5.92182 54.0122 4.4281 51.8645 4.4281ZM52.8279 9.53678C52.7041 10.783 52.1562 12.6745 50.6536 12.6745C49.1423 12.6745 49.3545 10.4648 49.5046 9.41304C49.6638 8.29054 50.2913 6.69077 51.6436 6.69077C52.8545 6.69077 52.9692 8.13145 52.8279 9.53678ZM67.6589 7.58346C67.6589 7.58346 66.4658 11.331 66.3687 11.6404C66.3333 11.3222 65.4583 4.59604 65.4583 4.59604C63.4253 4.59604 62.3381 6.04556 61.7637 7.57462C61.7637 7.57462 60.3142 11.331 60.1904 11.6492C60.1816 11.3575 59.9695 7.61882 59.9695 7.61882C59.8457 5.74505 58.1311 4.60487 56.7434 4.60487L58.4138 14.7957C60.5439 14.7869 61.6929 13.3462 62.2939 11.8171C62.2939 11.8171 63.5757 8.50267 63.6199 8.35241C63.6287 8.49383 64.5391 14.7957 64.5391 14.7957C66.678 14.7957 67.8269 13.4434 68.4456 11.9674L71.4419 4.60487C69.3384 4.60487 68.2246 6.04556 67.6589 7.58346ZM43.0967 0.0618706L41.3643 14.0356L41.0107 15.7591C41.0549 15.7591 41.1079 15.7679 41.1521 15.7679C43.0171 15.7414 44.343 14.1063 44.5903 12.0469L45.5891 4.03037C45.8896 1.5821 44.4314 0.0618706 43.0967 0.0618706Z" fill="#A7AAB4" fill-opacity="1.000000" fill-rule="nonzero"/>
</svg>
