<svg width="27.519196" height="27.610374" viewBox="0 0 27.5192 27.6104" fill="none" xmlns="http://www.w3.org/2000/svg" xmlns:xlink="http://www.w3.org/1999/xlink">
	<desc>
			Created with Pixso.
	</desc>
	<defs/>
	<path id="Combined-Shape" d="M17.196 1.12305C17.748 1.12305 18.196 1.57116 18.196 2.12328C18.196 2.6754 17.748 3.12351 17.196 3.12351L7.50534 3.12351C4.16135 3.12351 2 5.42269 2 8.9835L2 19.7619C2 23.3694 4.10934 25.6099 7.50534 25.6099L18.9773 25.6099C22.3214 25.6099 24.4827 23.3147 24.4827 19.7619L24.4827 10.3745C24.4827 9.82235 24.9307 9.37425 25.4827 9.37425C26.0347 9.37425 26.4827 9.82235 26.4827 10.3745L26.4827 19.7619C26.4827 24.4563 23.4667 27.6104 18.9773 27.6104L7.50534 27.6104C3.01599 27.6104 0 24.4563 0 19.7619L0 8.9835C0 4.28243 3.01599 1.12305 7.50534 1.12305L17.196 1.12305ZM20.0165 10.2315C20.4539 10.5703 20.5339 11.1984 20.1952 11.6345L16.2885 16.6756C16.1259 16.8864 15.8859 17.0237 15.6219 17.0557C15.3552 17.0917 15.0912 17.0144 14.8805 16.8503L11.1232 13.8977L7.74854 18.284C7.55121 18.5401 7.25519 18.6748 6.9552 18.6748C6.74188 18.6748 6.52719 18.6067 6.34586 18.468C5.90854 18.1306 5.82587 17.5025 6.16321 17.0651L10.1539 11.8772C10.3165 11.6652 10.5579 11.5278 10.8219 11.4945C11.0912 11.4598 11.3552 11.5345 11.5645 11.7012L15.3245 14.6552L18.6139 10.4102C18.9525 9.97145 19.5792 9.8901 20.0165 10.2315ZM23.9565 0C25.9219 0 27.5192 1.59769 27.5192 3.56347C27.5192 5.52925 25.9219 7.12828 23.9565 7.12828C21.9925 7.12828 20.3939 5.52925 20.3939 3.56347C20.3939 1.59769 21.9925 0 23.9565 0ZM23.9565 2.00045C23.0952 2.00045 22.3939 2.70061 22.3939 3.56347C22.3939 4.425 23.0952 5.12783 23.9565 5.12783C24.8179 5.12783 25.5192 4.425 25.5192 3.56347C25.5192 2.70061 24.8179 2.00045 23.9565 2.00045Z" fill="#FFFFFF" fill-opacity="1.000000" fill-rule="evenodd"/>
</svg>
