<svg width="64.447510" height="17.879524" viewBox="0 0 64.4475 17.8795" fill="none" xmlns="http://www.w3.org/2000/svg" xmlns:xlink="http://www.w3.org/1999/xlink">
	<desc>
			Created with Pixso.
	</desc>
	<defs/>
	<path id="Vector" d="M0 4.3561L3.83594 4.3561L6.06274 10.0613L8.32202 4.3561L12.0605 4.3561L6.43652 17.8795L2.68188 17.8795L4.22607 14.3036L0 4.3561ZM15.9453 4.12854C13.0684 4.12854 11.2478 6.71295 11.2478 9.2811C11.2478 12.1743 13.2471 14.4662 15.8965 14.4662C17.8796 14.4662 18.6272 13.2634 18.6272 13.2634L18.6272 14.2061L21.9756 14.2061L21.9756 4.3561L18.6272 4.3561L18.6272 5.25008C18.6108 5.25008 17.782 4.12854 15.9453 4.12854ZM16.6604 7.2981C17.9934 7.2981 18.676 8.35461 18.676 9.29735C18.676 10.3214 17.9446 11.3291 16.6604 11.3291C15.604 11.3291 14.645 10.4676 14.645 9.34612C14.645 8.20833 15.4089 7.2981 16.6604 7.2981ZM23.1133 14.2061L23.1133 0L26.6079 0L26.6079 5.28259C26.6079 5.28259 27.437 4.12854 29.176 4.12854C31.3054 4.12854 32.5569 5.72145 32.5569 7.98077L32.5569 14.2061L29.0786 14.2061L29.0786 8.82598C29.0786 8.06204 28.7209 7.31435 27.8921 7.31435C27.0469 7.31435 26.6079 8.06204 26.6079 8.82598L26.6079 14.2061L23.1133 14.2061ZM38.5222 4.12854C35.2227 4.12854 33.2559 6.63168 33.2559 9.32986C33.2559 12.3856 35.6289 14.4824 38.5386 14.4824C41.3506 14.4824 43.8049 12.4832 43.8049 9.37862C43.8049 5.98151 41.2205 4.12854 38.5222 4.12854ZM38.5547 7.31435C39.7251 7.31435 40.5215 8.2896 40.5215 9.31361C40.5215 10.1913 39.7739 11.2804 38.5547 11.2804C37.4331 11.2804 36.6042 10.3864 36.6042 9.29735C36.6042 8.27334 37.2869 7.31435 38.5547 7.31435ZM49.6238 4.12854C46.3242 4.12854 44.3574 6.63168 44.3574 9.32986C44.3574 12.3856 46.7305 14.4824 49.6401 14.4824C52.4519 14.4824 54.9065 12.4832 54.9065 9.37862C54.9065 5.98151 52.3381 4.12854 49.6238 4.12854ZM49.6562 7.31435C50.8267 7.31435 51.623 8.2896 51.623 9.31361C51.623 10.1913 50.8755 11.2804 49.6562 11.2804C48.5347 11.2804 47.7058 10.3864 47.7058 9.29735C47.7058 8.27334 48.4048 7.31435 49.6562 7.31435ZM57.6697 9.76872C58.9536 9.76872 59.9939 10.809 59.9939 12.0931C59.9939 13.3771 58.9536 14.4174 57.6697 14.4174C56.3855 14.4174 55.3452 13.3771 55.3452 12.0931C55.3452 10.809 56.3855 9.76872 57.6697 9.76872ZM60.7578 8.92351L56.5806 8.92351L60.2866 0L64.4475 0L60.7578 8.92351Z" fill="#A7AAB4" fill-opacity="1.000000" fill-rule="nonzero"/>
</svg>
