<svg width="93.090820" height="17.878544" viewBox="0 0 93.0908 17.8785" fill="none" xmlns="http://www.w3.org/2000/svg" xmlns:xlink="http://www.w3.org/1999/xlink">
	<desc>
			Created with Pixso.
	</desc>
	<defs/>
	<path id="Vector" d="M61.9929 5.29973C65.9746 5.29973 68.2329 8.34131 68.03 12.5627L58.6379 12.5627C58.9089 14.3506 60.5349 15.6117 62.334 15.4291C63.5652 15.4584 64.7566 14.9937 65.6428 14.1388L67.2834 15.9176C65.9958 17.2457 64.2002 17.9573 62.3525 17.8716C58.343 17.8716 55.7532 15.1987 55.7532 11.5857C55.7153 9.91527 56.3591 8.30145 57.5361 7.11565C58.7134 5.92986 60.3223 5.27425 61.9929 5.29973ZM19.0144 5.29973C22.9963 5.29973 25.2544 8.34131 25.0515 12.5627L15.6687 12.5627C15.9395 14.3467 17.5598 15.6065 19.3555 15.4291C20.5867 15.4584 21.7781 14.9937 22.6643 14.1388L24.3049 15.9176C23.0173 17.2457 21.2217 17.9573 19.374 17.8716C15.3645 17.8716 12.7747 15.1987 12.7747 11.5857C12.7368 9.91527 13.3806 8.30145 14.5576 7.11565C15.7349 5.92986 17.344 5.27425 19.0144 5.29973ZM79.6526 7.55788L77.5051 8.81138C76.9031 7.91723 75.8816 7.3978 74.8044 7.43806C73.4312 7.43806 72.7307 8.11089 72.7307 8.88511C72.7307 9.65933 73.8367 9.99114 75.5789 10.3783C75.6184 10.3869 75.6582 10.3957 75.698 10.4045L75.8176 10.4314C75.8777 10.445 75.9377 10.4589 75.9978 10.473L76.1182 10.5018C76.1584 10.5115 76.1985 10.5214 76.2388 10.5314L76.3591 10.562L76.4795 10.5936C78.1819 11.0495 79.8 11.8419 79.8 13.9729C79.8 15.6411 78.353 17.8808 74.9243 17.8624C72.7717 18.0203 70.7178 16.9361 69.6338 15.0697L71.9473 13.8254C72.5698 14.94 73.7588 15.6178 75.0349 15.5858C76.4819 15.5858 77.2285 14.8392 77.2285 13.9913C77.2285 13.1433 75.8276 12.8115 74.3069 12.4981C74.2656 12.4895 74.2246 12.4807 74.1833 12.4719L74.0601 12.4449C74.0396 12.4404 74.0188 12.4358 73.9983 12.4312L73.875 12.4031C71.9651 11.9619 70.1316 11.2179 70.1316 8.90355C70.1316 6.99564 71.9749 5.21678 74.7954 5.21678C76.7109 5.10147 78.5493 5.98756 79.6526 7.55788ZM53.3291 0L53.3291 17.6228L50.7668 17.6228L50.7668 15.9637C49.7847 17.1797 48.302 17.882 46.739 17.8717C45.1003 17.8577 43.5369 17.1822 42.4033 15.9985C41.27 14.8148 40.6631 13.2234 40.7205 11.5857C40.6499 9.94199 41.2551 8.34107 42.3958 7.15533C43.5361 5.96959 45.1123 5.30239 46.7573 5.30895C48.3013 5.29752 49.7705 5.97296 50.7668 7.15233L50.7668 0L53.3291 0ZM10.5994 5.59467L10.5994 7.9542L3.35498 15.3277L10.7285 15.3277L10.7285 17.6504L0 17.6504L0 15.3001L7.24438 7.92655L0.166016 7.92655L0.166016 5.59467L10.5994 5.59467ZM84.4363 0L84.4363 11.5396L89.865 5.53015L92.9802 5.53015L88.2705 10.7008L93.0908 17.6228L90.2061 17.6228L86.4639 12.2677L84.4363 14.489L84.4363 17.632L81.874 17.632L81.874 0L84.4363 0ZM33.1072 5.30895C36.1487 5.30895 38.7112 7.29059 38.7112 10.5718L38.7112 17.6228L36.075 17.6228L36.075 10.8944C36.075 8.92198 35.1165 7.733 33.1809 7.733C32.3342 7.67042 31.5037 7.98752 30.9143 8.59838C30.3247 9.20923 30.0374 10.0506 30.1301 10.8944L30.1301 17.6228L27.5217 17.6228L27.5217 10.5718C27.5217 7.29059 30.0657 5.30895 33.1072 5.30895ZM47.0894 7.76986C44.9819 7.76986 43.2734 9.47826 43.2734 11.5857C43.2734 13.6931 44.9819 15.4015 47.0894 15.4015C49.1968 15.4015 50.905 13.6931 50.905 11.5857C50.905 9.47826 49.1968 7.76986 47.0894 7.76986ZM58.6289 10.5442L65.2004 10.5534C65.1113 8.89145 63.6919 7.61643 62.0298 7.70535C60.3245 7.60523 58.8352 8.84834 58.6289 10.5442ZM15.6687 10.5442L22.2219 10.5534C22.1279 8.89511 20.71 7.62555 19.0513 7.71456C17.356 7.62408 15.8792 8.8595 15.6687 10.5442Z" fill="#A7AAB4" fill-opacity="1.000000" fill-rule="nonzero"/>
</svg>
