<svg width="32.000000" height="32.000000" viewBox="0 0 32 32" fill="none" xmlns="http://www.w3.org/2000/svg" xmlns:xlink="http://www.w3.org/1999/xlink">
	<desc>
			Created with Pixso.
	</desc>
	<defs>
		<filter id="filter_501_133_dd" x="0.000000" y="0.000000" width="32.000000" height="32.000000" filterUnits="userSpaceOnUse" color-interpolation-filters="sRGB">
			<feFlood flood-opacity="0" result="BackgroundImageFix"/>
			<feColorMatrix in="SourceAlpha" type="matrix" values="0 0 0 0 0 0 0 0 0 0 0 0 0 0 0 0 0 0 127 0" result="hardAlpha"/>
			<feOffset dx="0" dy="4"/>
			<feGaussianBlur stdDeviation="1.33333"/>
			<feComposite in2="hardAlpha" operator="out" k2="-1" k3="1"/>
			<feColorMatrix type="matrix" values="0 0 0 0 0 0 0 0 0 0 0 0 0 0 0 0 0 0 0.25 0"/>
			<feBlend mode="normal" in2="BackgroundImageFix" result="effect_dropShadow_1"/>
			<feBlend mode="normal" in="SourceGraphic" in2="effect_dropShadow_1" result="shape"/>
		</filter>
		<clipPath id="clip501_133">
			<rect id="3d-square 1" width="24.000000" height="24.000000" transform="translate(4.000000 0.000000)" fill="white" fill-opacity="0"/>
		</clipPath>
	</defs>
	<g filter="url(#filter_501_133_dd)">
		<rect id="3d-square 1" width="24.000000" height="24.000000" transform="translate(4.000000 0.000000)" fill="#FFFFFF" fill-opacity="0"/>
		<g clip-path="url(#clip501_133)">
			<path id="Vector" d="M19 22.75L13 22.75C7.57 22.75 5.25 20.43 5.25 15L5.25 9C5.25 3.57 7.57 1.25 13 1.25L19 1.25C24.43 1.25 26.75 3.57 26.75 9L26.75 15C26.75 20.43 24.43 22.75 19 22.75ZM13 2.75C8.39 2.75 6.75 4.39 6.75 9L6.75 15C6.75 19.61 8.39 21.25 13 21.25L19 21.25C23.61 21.25 25.25 19.61 25.25 15L25.25 9C25.25 4.39 23.61 2.75 19 2.75L13 2.75Z" fill="#9197B3" fill-opacity="1.000000" fill-rule="nonzero"/>
			<path id="Vector" d="M16 13.07C15.87 13.07 15.74 13.04 15.62 12.97L10.32 9.91C9.96 9.7 9.84 9.24 10.05 8.89C10.26 8.53 10.72 8.41 11.07 8.62L15.99 11.47L20.88 8.64C21.24 8.43 21.7 8.56 21.9 8.91C22.1 9.26 21.98 9.73 21.63 9.93L16.37 12.97C16.26 13.03 16.13 13.07 16 13.07Z" fill="#9197B3" fill-opacity="1.000000" fill-rule="nonzero"/>
			<path id="Vector" d="M16 18.52C15.59 18.52 15.25 18.18 15.25 17.77L15.25 12.33C15.25 11.92 15.59 11.58 16 11.58C16.41 11.58 16.75 11.92 16.75 12.33L16.75 17.77C16.75 18.18 16.41 18.52 16 18.52Z" fill="#9197B3" fill-opacity="1.000000" fill-rule="nonzero"/>
			<path id="Vector" d="M16 18.74C15.42 18.74 14.85 18.61 14.39 18.36L11.19 16.58C10.23 16.05 9.49 14.78 9.49 13.68L9.49 10.29C9.49 9.2 10.24 7.93 11.19 7.39L14.39 5.61C15.31 5.1 16.69 5.1 17.61 5.61L20.81 7.39C21.77 7.92 22.51 9.19 22.51 10.29L22.51 13.68C22.51 14.77 21.76 16.04 20.81 16.58L17.61 18.36C17.15 18.62 16.58 18.74 16 18.74ZM16 6.74C15.67 6.74 15.35 6.8 15.12 6.93L11.92 8.71C11.43 8.98 10.99 9.74 10.99 10.29L10.99 13.68C10.99 14.24 11.43 14.99 11.92 15.26L15.12 17.04C15.58 17.3 16.42 17.3 16.88 17.04L20.08 15.26C20.57 14.99 21.01 14.23 21.01 13.68L21.01 10.29C21.01 9.73 20.57 8.98 20.08 8.71L16.88 6.93C16.65 6.8 16.33 6.74 16 6.74Z" fill="#9197B3" fill-opacity="1.000000" fill-rule="nonzero"/>
		</g>
	</g>
</svg>
