<svg width="24.000000" height="24.000000" viewBox="0 0 24 24" fill="none" xmlns="http://www.w3.org/2000/svg" xmlns:xlink="http://www.w3.org/1999/xlink">
	<desc>
			Created with Pixso.
	</desc>
	<defs>
		<clipPath id="clip501_160">
			<rect id="discount-shape 1" width="24.000000" height="24.000000" fill="white" fill-opacity="0"/>
		</clipPath>
	</defs>
	<rect id="discount-shape 1" width="24.000000" height="24.000000" fill="#FFFFFF" fill-opacity="0"/>
	<g clip-path="url(#clip501_160)">
		<path id="Vector" d="M12 22.75C11.37 22.75 10.78 22.51 10.34 22.06L8.82 20.54C8.7 20.42 8.38 20.29 8.21 20.29L6.06 20.29C4.76 20.29 3.7 19.24 3.7 17.94L3.7 15.78C3.7 15.62 3.58 15.3 3.45 15.18L1.94 13.66C1.5 13.22 1.25 12.63 1.25 12C1.25 11.37 1.48 10.78 1.94 10.34L3.45 8.82C3.58 8.7 3.7 8.38 3.7 8.22L3.7 6.06C3.7 4.76 4.76 3.71 6.06 3.71L8.21 3.71C8.38 3.71 8.7 3.58 8.82 3.46L10.34 1.94C11.22 1.06 12.78 1.06 13.66 1.94L15.18 3.46C15.3 3.58 15.62 3.71 15.78 3.71L17.94 3.71C19.24 3.71 20.29 4.76 20.29 6.06L20.29 8.22C20.29 8.38 20.42 8.7 20.54 8.82L22.06 10.34C22.5 10.78 22.75 11.37 22.75 12C22.75 12.63 22.51 13.22 22.06 13.66L20.54 15.18C20.42 15.3 20.29 15.62 20.29 15.78L20.29 17.94C20.29 19.24 19.24 20.29 17.94 20.29L15.78 20.29C15.62 20.29 15.3 20.42 15.18 20.54L13.66 22.06C13.22 22.51 12.63 22.75 12 22.75ZM4.52 14.12C4.91 14.52 5.2 15.22 5.2 15.78L5.2 17.94C5.2 18.41 5.59 18.79 6.06 18.79L8.21 18.79C8.78 18.79 9.47 19.08 9.88 19.48L11.4 21C11.72 21.32 12.28 21.32 12.6 21L14.12 19.48C14.52 19.08 15.22 18.79 15.78 18.79L17.94 18.79C18.41 18.79 18.79 18.41 18.79 17.94L18.79 15.78C18.79 15.22 19.08 14.52 19.48 14.12L21 12.6C21.16 12.44 21.25 12.23 21.25 12C21.25 11.77 21.16 11.56 21 11.4L19.48 9.88C19.08 9.48 18.79 8.78 18.79 8.22L18.79 6.06C18.79 5.59 18.41 5.21 17.94 5.21L15.78 5.21C15.22 5.21 14.52 4.92 14.12 4.52L12.6 3C12.28 2.68 11.72 2.68 11.4 3L9.88 4.52C9.47 4.92 8.78 5.21 8.21 5.21L6.06 5.21C5.59 5.21 5.2 5.59 5.2 6.06L5.2 8.22C5.2 8.78 4.91 9.48 4.52 9.88L3 11.4C2.84 11.56 2.75 11.77 2.75 12C2.75 12.23 2.84 12.44 3 12.6L4.52 14.12Z" fill="#9197B3" fill-opacity="1.000000" fill-rule="nonzero"/>
		<path id="Vector" d="M15 16C14.44 16 13.99 15.55 13.99 15C13.99 14.45 14.44 14 14.99 14C15.54 14 15.99 14.45 15.99 15C15.99 15.55 15.55 16 15 16Z" fill="#9197B3" fill-opacity="1.000000" fill-rule="nonzero"/>
		<path id="Vector" d="M9.01 10C8.45 10 8 9.55 8 9C8 8.45 8.45 8 9 8C9.54 8 10 8.45 10 9C10 9.55 9.56 10 9.01 10Z" fill="#9197B3" fill-opacity="1.000000" fill-rule="nonzero"/>
		<path id="Vector" d="M8.99 15.74C8.8 15.74 8.61 15.67 8.46 15.52C8.17 15.23 8.17 14.75 8.46 14.46L14.46 8.46C14.75 8.17 15.23 8.17 15.52 8.46C15.81 8.75 15.81 9.23 15.52 9.52L9.52 15.52C9.37 15.67 9.18 15.74 8.99 15.74Z" fill="#9197B3" fill-opacity="1.000000" fill-rule="nonzero"/>
	</g>
</svg>
