<svg width="24.000000" height="24.000000" viewBox="0 0 24 24" fill="none" xmlns="http://www.w3.org/2000/svg" xmlns:xlink="http://www.w3.org/1999/xlink">
	<desc>
			Created with Pixso.
	</desc>
	<defs>
		<clipPath id="clip501_126">
			<rect id="icon / 24 / outline / key-square" width="24.000000" height="24.000000" fill="white" fill-opacity="0"/>
		</clipPath>
	</defs>
	<rect id="icon / 24 / outline / key-square" width="24.000000" height="24.000000" fill="#9197B3" fill-opacity="0"/>
	<g clip-path="url(#clip501_126)">
		<path id="Vector" d="M15 22C20 22 22 20 22 15L22 9C22 4 20 2 15 2L9 2C4 2 2 4 2 9L2 15C2 20 4 22 9 22L15 22Z" stroke="#9197B3" stroke-opacity="1.000000" stroke-width="1.500000" stroke-linejoin="round"/>
		<path id="Vector" d="M12.1 14.64L9.51 17.21C9.33 17.41 8.96 17.53 8.68 17.49L7.48 17.33C7.09 17.28 6.73 16.9 6.67 16.51L6.51 15.31C6.47 15.05 6.6 14.68 6.78 14.49L9.35 11.91C8.92 10.48 9.26 8.86 10.39 7.73C12.01 6.11 14.65 6.11 16.28 7.73C17.9 9.34 17.9 11.98 16.28 13.61C15.15 14.74 13.53 15.09 12.1 14.64Z" stroke="#9197B3" stroke-opacity="1.000000" stroke-width="1.500000" stroke-linejoin="round"/>
		<path id="Vector" d="M10.45 16.28L9.59 15.42" stroke="#9197B3" stroke-opacity="1.000000" stroke-width="1.500000" stroke-linejoin="round" stroke-linecap="round"/>
		<path id="Vector" d="M13.39 10.7L13.4 10.7" stroke="#9197B3" stroke-opacity="1.000000" stroke-width="2.000000" stroke-linejoin="round" stroke-linecap="round"/>
	</g>
</svg>
