<svg width="37.000000" height="37.000000" viewBox="0 0 37 37" fill="none" xmlns="http://www.w3.org/2000/svg" xmlns:xlink="http://www.w3.org/1999/xlink">
	<desc>
			Created with Pixso.
	</desc>
	<defs>
		<clipPath id="clip501_190">
			<rect id="setting 1" width="37.000000" height="37.000000" fill="white" fill-opacity="0"/>
		</clipPath>
	</defs>
	<rect id="setting 1" width="37.000000" height="37.000000" fill="#FFFFFF" fill-opacity="0"/>
	<g clip-path="url(#clip501_190)">
		<path id="Vector" d="M18.5 34.88C17.46 34.88 16.41 34.65 15.6 34.17L7.12 29.29C3.66 26.96 3.45 26.6 3.45 22.95L3.45 14.04C3.45 10.39 3.65 10.03 7.04 7.73L15.58 2.8C17.2 1.86 19.74 1.86 21.36 2.8L29.87 7.7C33.33 10.03 33.54 10.39 33.54 14.04L33.54 22.93C33.54 26.59 33.34 26.94 29.95 29.24L21.41 34.17C20.58 34.65 19.53 34.88 18.5 34.88ZM18.5 4.42C17.85 4.42 17.22 4.54 16.77 4.8L8.29 9.71C5.78 11.4 5.78 11.4 5.78 14.04L5.78 22.93C5.78 25.57 5.78 25.57 8.35 27.31L16.77 32.17C17.68 32.69 19.33 32.69 20.24 32.17L28.72 27.27C31.21 25.57 31.21 25.57 31.21 22.93L31.21 14.04C31.21 11.4 31.21 11.4 28.64 9.66L20.22 4.8C19.77 4.54 19.14 4.42 18.5 4.42Z" fill="#000000" fill-opacity="1.000000" fill-rule="nonzero"/>
		<path id="Vector" d="M18.5 24.28C15.3 24.28 12.71 21.69 12.71 18.5C12.71 15.3 15.3 12.71 18.5 12.71C21.69 12.71 24.28 15.3 24.28 18.5C24.28 21.69 21.69 24.28 18.5 24.28ZM18.5 15.03C16.58 15.03 15.03 16.58 15.03 18.5C15.03 20.41 16.58 21.96 18.5 21.96C20.41 21.96 21.96 20.41 21.96 18.5C21.96 16.58 20.41 15.03 18.5 15.03Z" fill="#000000" fill-opacity="1.000000" fill-rule="nonzero"/>
	</g>
</svg>
