<svg width="24.000000" height="24.000000" viewBox="0 0 24 24" fill="none" xmlns="http://www.w3.org/2000/svg" xmlns:xlink="http://www.w3.org/1999/xlink">
	<desc>
			Created with Pixso.
	</desc>
	<defs>
		<clipPath id="clip501_169">
			<rect id="message-question 1" width="24.000000" height="24.000000" fill="white" fill-opacity="0"/>
		</clipPath>
	</defs>
	<rect id="message-question 1" width="24.000000" height="24.000000" fill="#FFFFFF" fill-opacity="0"/>
	<g clip-path="url(#clip501_169)">
		<path id="Vector" d="M8 22.31C7.71 22.31 7.42 22.24 7.16 22.1C6.59 21.8 6.25 21.2 6.25 20.56L6.25 19.15C3.22 18.84 1.25 16.61 1.25 13.43L1.25 7.43C1.25 3.99 3.56 1.68 7 1.68L17 1.68C20.44 1.68 22.75 3.99 22.75 7.43L22.75 13.43C22.75 16.87 20.44 19.18 17 19.18L13.23 19.18L8.96 22.03C8.67 22.22 8.34 22.31 8 22.31ZM7 3.17C4.41 3.17 2.75 4.84 2.75 7.42L2.75 13.43C2.75 16.01 4.41 17.68 7 17.68C7.4 17.68 7.75 18.02 7.75 18.43L7.75 20.56C7.75 20.69 7.83 20.75 7.88 20.78C7.92 20.81 8.03 20.84 8.14 20.77L12.59 17.81C12.71 17.73 12.86 17.68 13.01 17.68L17.01 17.68C19.59 17.68 21.26 16.01 21.26 13.43L21.26 7.42C21.26 4.84 19.59 3.17 17.01 3.17L7 3.17Z" fill="#9197B3" fill-opacity="1.000000" fill-rule="nonzero"/>
		<path id="Vector" d="M11.99 12.1C11.58 12.1 11.24 11.76 11.24 11.35L11.24 11.14C11.24 9.98 12.09 9.41 12.41 9.19C12.78 8.94 12.9 8.77 12.9 8.51C12.9 8.01 12.49 7.6 11.99 7.6C11.49 7.6 11.08 8.01 11.08 8.51C11.08 8.92 10.74 9.26 10.33 9.26C9.92 9.26 9.58 8.92 9.58 8.51C9.58 7.18 10.66 6.1 11.99 6.1C13.32 6.1 14.4 7.18 14.4 8.51C14.4 9.65 13.56 10.22 13.25 10.43C12.86 10.69 12.74 10.86 12.74 11.14L12.74 11.35C12.74 11.77 12.4 12.1 11.99 12.1Z" fill="#9197B3" fill-opacity="1.000000" fill-rule="nonzero"/>
		<path id="Vector" d="M12 14.6C11.58 14.6 11.25 14.26 11.25 13.85C11.25 13.44 11.59 13.1 12 13.1C12.41 13.1 12.75 13.44 12.75 13.85C12.75 14.26 12.42 14.6 12 14.6Z" fill="#9197B3" fill-opacity="1.000000" fill-rule="nonzero"/>
	</g>
</svg>
