<svg width="26" height="25" viewBox="0 0 26 25" fill="none" xmlns="http://www.w3.org/2000/svg">
<path fill-rule="evenodd" clip-rule="evenodd" d="M4.6573 23.7179C4.53088 24.4386 5.24192 25.0026 5.86989 24.6799L13.0024 21.014L20.1349 24.6799C20.7628 25.0026 21.4739 24.4386 21.3475 23.7179L19.9992 16.0325L25.7229 10.578C26.2579 10.0682 25.981 9.13617 25.2644 9.03437L17.3043 7.90358L13.7551 0.872945C13.4354 0.239617 12.5693 0.239617 12.2496 0.872945L8.70043 7.90358L0.74041 9.03437C0.0238023 9.13617 -0.253098 10.0682 0.281821 10.578L6.00561 16.0325L4.6573 23.7179ZM12.6273 19.2197L6.63794 22.2981L7.7661 15.8675C7.81928 15.5643 7.71929 15.2539 7.50164 15.0465L2.77802 10.5451L9.36302 9.60964C9.63524 9.57097 9.87292 9.39711 10.0013 9.14274L13.0024 3.19795L16.0034 9.14274C16.1318 9.39711 16.3695 9.57097 16.6417 9.60964L23.2267 10.5451L18.5031 15.0465C18.2855 15.2539 18.1855 15.5643 18.2387 15.8675L19.3668 22.2981L13.3775 19.2197C13.1409 19.0981 12.8639 19.0981 12.6273 19.2197Z" fill="#9D875C"/>
</svg>
