<svg width="80" height="80" viewBox="0 0 80 80" fill="none" xmlns="http://www.w3.org/2000/svg">
<g clip-path="url(#clip0_3186_44)">
<g clip-path="url(#clip1_3186_44)">
<path fill-rule="evenodd" clip-rule="evenodd" d="M51.1114 23.3706C47.8224 21.173 43.9556 20 40 20V0C47.9112 0 55.6448 2.34596 62.2228 6.74122C68.8008 11.1365 73.9276 17.3836 76.9552 24.6926C79.9826 32.0016 80.7748 40.0444 79.2314 47.8036C77.688 55.5628 73.8784 62.6902 68.2842 68.2842C62.6902 73.8784 55.5628 77.688 47.8036 79.2314C40.0444 80.7748 32.0016 79.9826 24.6926 76.9552C17.3836 73.9276 11.1365 68.8008 6.74122 62.2228C2.34596 55.6448 0 47.9112 0 40H20C20 43.9556 21.173 47.8224 23.3706 51.1114C25.5682 54.4004 28.6918 56.9638 32.3464 58.4776C36.0008 59.9914 40.0222 60.3874 43.9018 59.6156C47.7814 58.844 51.345 56.9392 54.1422 54.1422C56.9392 51.345 58.844 47.7814 59.6156 43.9018C60.3874 40.0222 59.9914 36.0008 58.4776 32.3464C56.9638 28.6918 54.4004 25.5682 51.1114 23.3706Z" fill="#35AFF4"/>
<path fill-rule="evenodd" clip-rule="evenodd" d="M20 1.05699e-05C20 2.62645 19.4827 5.22717 18.4776 7.65369C17.4725 10.0802 15.9993 12.285 14.1421 14.1421C12.285 15.9993 10.0802 17.4725 7.65367 18.4776C5.22715 19.4827 2.62643 20 8.7422e-07 20L0 40C5.25287 40 10.4543 38.9654 15.3073 36.9552C20.1604 34.945 24.57 31.9986 28.2842 28.2842C31.9986 24.57 34.945 20.1604 36.9552 15.3073C38.9654 10.4543 40 5.25287 40 0L20 1.05699e-05Z" fill="#35AFF4"/>
</g>
</g>
<defs>
<clipPath id="clip0_3186_44">
<rect width="80" height="80" fill="white"/>
</clipPath>
<clipPath id="clip1_3186_44">
<rect width="80" height="80" fill="white"/>
</clipPath>
</defs>
</svg>
