<svg width="283" height="48" viewBox="0 0 283 48" fill="none" xmlns="http://www.w3.org/2000/svg">
<g clip-path="url(#clip0_3_10315)">
<path d="M50.0036 25.9766L45.0405 11.0117L34.7524 11.5032L29.4815 28.018L32.1818 27.748L25.7551 48H35.7515L36.6588 45.1755L48.54 45.1323L49.4635 48H60.1026L52.7038 25.7066L50.0036 25.9766ZM39.3969 36.6589L42.5562 26.8407L45.7371 36.5617L39.3969 36.6589Z" fill="white"/>
<path d="M26.8622 36.8426C26.9176 33.7975 25.8089 30.8461 23.7623 28.5906L21.0621 28.8606C21.8905 27.1024 22.3185 25.1823 22.315 23.2387C22.315 17.0928 18.2214 12.308 13.2313 12.5456L0.0107422 13.1774V30.956L2.71101 30.686V48.0001H17.7299C22.7416 48.0001 26.8568 43.0046 26.8568 36.8426H26.8622ZM8.75962 20.9488L10.9846 20.8678C12.216 20.8192 13.2205 22.0127 13.2205 23.5303C13.2205 25.0478 12.216 26.3116 10.9846 26.344L8.75962 26.4142V20.9488ZM15.4887 39.7589L11.4761 39.8021V34.3368L15.4887 34.2612C16.7254 34.2612 17.7353 35.4547 17.7353 36.9614C17.7353 38.4682 16.7254 39.7427 15.4887 39.7589Z" fill="white"/>
<path d="M153.899 15.6617L150.238 5.97314H150.211L136.952 6.60501L132.95 17.7571L135.651 17.4871L124.709 48.0002H137.492L138.659 44.7976L153.942 44.7436L155.157 47.984H168.923L156.616 15.3755L153.899 15.6617ZM142.196 35.1415L146.257 24.0002L150.356 35.0389L142.196 35.1415Z" fill="white"/>
<path d="M170.895 13.9765V47.9999H184.175V12.6533L170.895 13.9765Z" fill="white"/>
<path d="M114.292 35.5518L120.124 19.0153L117.413 19.2853L121.62 7.34473L121.048 7.37173L109.199 7.93879L97.6148 8.48964L93.1648 21.694L104.819 20.5382L107.53 20.2682L97.8903 48H98.2899H109.901H121.609L126.119 35.3789L114.292 35.5518Z" fill="white"/>
<path d="M90.4482 8.83545L79.6634 9.3539V23.0335V26.9759L77.3897 23.2603L69.1593 9.85615L58.9253 10.3476V25.0965L61.6418 24.8264V48.0002H71.8758V31.6959L82.3744 48.0002H82.3798H93.1647V44.2738V21.6941L90.4482 21.9642V8.83545Z" fill="white"/>
<path d="M213.667 30.9505C213.691 31.5086 213.498 32.0543 213.129 32.4732C212.759 32.8921 212.242 33.1516 211.685 33.1971L208.153 33.2403V28.8281L211.685 28.7633C211.96 28.7743 212.229 28.8399 212.478 28.9563C212.727 29.0727 212.95 29.2375 213.135 29.4411C213.319 29.6447 213.461 29.8831 213.553 30.1422C213.644 30.4014 213.683 30.6762 213.667 30.9505ZM212.079 19.874C212.1 19.6009 212.065 19.3264 211.975 19.0675C211.886 18.8086 211.745 18.5707 211.56 18.3683C211.375 18.166 211.151 18.0036 210.902 17.891C210.652 17.7785 210.382 17.7182 210.108 17.7138L208.153 17.784V22.1962L210.108 22.1368C210.666 22.0886 211.183 21.8257 211.551 21.4036C211.918 20.9814 212.108 20.4331 212.079 19.874ZM253.993 35.8974L223.798 47.9514H192.357V11.8596L189.656 12.0648V4.16381L276.605 0V3.46175L279.305 3.19172V25.7984L263.185 32.2304V18.1566L271.204 17.892V8.12782L263.185 8.51666L254.004 8.95949L246.4 9.33213V18.7237L254.004 18.4699L253.993 35.8974ZM221.741 30.8317C221.758 29.5927 221.524 28.3631 221.054 27.2168C220.583 26.0706 219.886 25.0314 219.003 24.162C219.733 22.7537 220.113 21.1902 220.11 19.604C220.11 14.6355 216.497 10.7795 212.101 10.9955L200.479 11.5356V39.8344H213.689C218.106 39.8344 221.741 35.7948 221.741 30.8101V30.8317ZM244.083 9.44554L232.002 10.0288L223.674 10.4338V39.856H244.05V30.4969L232.002 30.6751V28.3852L239.692 28.2394V21.2727L232.002 21.4995V19.2043L244.05 18.7993L244.083 9.44554ZM265.885 32.8785V39.8506H256.704V37.6904L237.203 47.9514H282.567V24.1296L265.885 32.8785Z" fill="#FF0000"/>
<path d="M168.178 14.2466L181.458 12.9289V4.47705L168.178 5.10891V14.2466Z" fill="#FF0000"/>
</g>
<defs>
<clipPath id="clip0_3_10315">
<rect width="282.54" height="48" fill="white"/>
</clipPath>
</defs>
</svg>
