<svg width="1920" height="1080" viewBox="0 0 1920 1080" fill="none" xmlns="http://www.w3.org/2000/svg">
	<mask id="mask0_268_80" style="mask-type:alpha" maskUnits="userSpaceOnUse" x="0" y="0" width="1920" height="1080">
		<rect width="1920" height="1080" fill="#222220" />
	</mask>
	<g mask="url(#mask0_268_80)">
		<g style="mix-blend-mode:screen">
			<g style="mix-blend-mode:screen">
				<path d="M1772.48 52.2522L1771.96 52.4886H1771.58C1770.83 53.199 1770.36 54.156 1770.26 55.1845C1770.21 56.0766 1770.49 56.9551 1771.05 57.6527C1771.61 58.3504 1772.4 58.8185 1773.28 58.968H1774.28H1774.94H1775.32H1775.55C1775.92 58.6461 1776.22 58.2543 1776.43 57.8157C1776.64 57.377 1776.76 56.9005 1776.78 56.4142C1776.82 55.7243 1776.67 55.0373 1776.36 54.4228C1776.04 53.8083 1775.57 53.2879 1774.99 52.9143H1774.61H1774.04H1773.62H1772.67L1772.48 52.2522Z" fill="#E7B851" />
			</g>
			<g style="mix-blend-mode:screen">
				<path d="M1810.08 58.8263L1810.32 59.2047L1810.98 59.7722H1811.26H1811.64H1811.92C1812.56 59.8842 1813.22 59.8099 1813.81 59.5582C1814.41 59.3065 1814.92 58.888 1815.28 58.3533C1815.71 57.7161 1815.93 56.9673 1815.93 56.2014C1815.93 55.4355 1815.71 54.6867 1815.28 54.0495L1814.86 53.6238L1814.1 53.1981H1813.49H1812.16H1811.55L1810.79 53.6238L1810.36 54.0495C1809.93 54.5828 1809.64 55.2232 1809.53 55.9049C1809.42 56.5867 1809.5 57.285 1809.75 57.9276L1810.08 58.8263Z" fill="#EADECF" />
			</g>
			<g style="mix-blend-mode:screen">
				<path d="M1673.02 0.085609V0.700325V1.22065C1673.37 1.98749 1674 2.59072 1674.78 2.90718C1675.57 3.22365 1676.44 3.22938 1677.23 2.9232L1677.61 2.68679L1678.08 2.30849L1678.36 1.97739L1678.69 1.64629L1679.07 1.07877V0.653128V-0.245492V-0.623934V-1.19145V-1.56975C1678.88 -2.03909 1678.58 -2.46002 1678.2 -2.80308C1677.83 -3.14614 1677.38 -3.40315 1676.9 -3.55621C1676.43 -3.71308 1675.93 -3.7647 1675.44 -3.70747C1674.95 -3.65025 1674.48 -3.48556 1674.06 -3.22511L1673.3 -2.75213L1673.02 -2.37383L1672.69 -1.80631V-1.33333V-0.292833L1673.02 0.085609Z" fill="#F9E59F" />
			</g>
			<g style="mix-blend-mode:screen">
				<path d="M1813.63 6.70704L1812.63 7.65286L1812.3 8.12584L1812.02 8.83524V9.35556C1812.01 9.9233 1812.13 10.4859 1812.37 11.0017C1812.6 11.5175 1812.95 11.9733 1813.39 12.3352C1813.8 12.6386 1814.27 12.8506 1814.77 12.9567C1815.26 13.0628 1815.78 13.0605 1816.28 12.95H1816.65L1817.17 12.6663L1817.46 12.3824L1818.07 11.673V11.2947V10.6798V10.2542C1818.09 9.4309 1817.84 8.62509 1817.36 7.95336C1816.88 7.28163 1816.21 6.7788 1815.42 6.51782H1814.72H1813.82L1813.63 6.70704Z" fill="#F9F6D2" />
			</g>
			<g style="mix-blend-mode:screen">
				<path d="M1738.85 12.2876H1739.37H1740.13H1740.65H1740.93C1741.49 12.2671 1742.03 12.1095 1742.51 11.8289C1742.99 11.5483 1743.39 11.1534 1743.68 10.6796V10.1593V9.44988V8.9297L1743.2 7.60544V7.17981C1742.74 6.53335 1742.1 6.0391 1741.36 5.76086H1740.89H1740.37H1739.66H1739.18L1738.29 6.37572L1737.95 6.65948L1737.58 7.17981V7.69998C1737.36 8.08475 1737.22 8.50896 1737.16 8.94818C1737.11 9.3874 1737.14 9.83297 1737.26 10.2593C1737.38 10.6856 1737.58 11.0844 1737.85 11.4324C1738.13 11.7805 1738.47 12.0711 1738.85 12.2876Z" fill="#DFCBB3" />
			</g>
			<g style="mix-blend-mode:screen">
				<path d="M1885.33 21.7467L1885.04 22.0778V22.3142L1884.62 23.0709V23.3547V23.7803V24.1114C1884.6 24.7517 1884.78 25.3818 1885.12 25.9211C1885.47 26.4604 1885.97 26.8843 1886.56 27.1384C1887.25 27.4575 1888.02 27.5604 1888.77 27.4339C1889.52 27.3073 1890.22 26.957 1890.77 26.4289L1891.1 25.9087L1891.38 25.0574V24.4425V23.1655V22.598L1890.81 21.8886L1890.34 21.5103C1889.74 21.1791 1889.06 21.0052 1888.38 21.0052C1887.69 21.0052 1887.02 21.1791 1886.42 21.5103L1885.33 21.7467Z" fill="" />
			</g>
			<g style="mix-blend-mode:screen">
				<path d="M1751.24 207.522L1750.49 208.752V209.414V210.407V211.069L1750.77 211.637V212.015V212.535C1751.14 213.632 1751.79 214.612 1752.66 215.373L1753.37 215.657H1754.46H1755.26L1756.54 214.9L1757.01 214.285L1757.44 213.245V212.488V211.779V211.542C1757.36 211.012 1757.23 210.49 1757.06 209.981C1756.81 209.115 1756.32 208.338 1755.64 207.743C1754.96 207.148 1754.12 206.759 1753.23 206.624H1752.52L1751.62 207.049L1751.24 207.522Z" fill="#F9D46B" />
			</g>
			<g style="mix-blend-mode:screen">
				<path d="M1867.73 -5.35346C1866.8 -5.96898 1865.67 -6.20567 1864.56 -6.01552H1864.14L1863.57 -5.63722L1863.19 -5.25878L1862.63 -4.36016V-3.93452V-3.27246V-2.84682C1862.75 -2.19323 1862.99 -1.56763 1863.33 -1.00224L1863.62 -0.245504L1863.95 0.227477L1864.9 1.07875L1865.37 1.36251H1866.17H1866.74C1867.72 1.19977 1868.6 0.656763 1869.18 -0.148801C1869.77 -0.954364 1870.01 -1.95764 1869.86 -2.94136C1869.68 -3.46451 1869.41 -3.9472 1869.04 -4.36131C1868.67 -4.77543 1868.23 -5.11273 1867.73 -5.35346Z" fill="#F1E9E1" />
			</g>
			<g style="mix-blend-mode:screen">
				<path d="M1877.19 63.4611V64.1705V64.4542V64.8799V65.1164L1877.71 65.7312V65.9677L1878.09 66.2515H1878.37C1878.98 66.4944 1879.63 66.5699 1880.27 66.47C1880.91 66.3701 1881.52 66.0985 1882.02 65.684C1882.49 65.2769 1882.86 64.7605 1883.08 64.1797C1883.31 63.5989 1883.39 62.9713 1883.32 62.3513C1883.25 61.7314 1883.03 61.1379 1882.68 60.6225C1882.33 60.107 1881.86 59.6851 1881.31 59.3936C1880.86 59.1833 1880.38 59.0742 1879.89 59.0742C1879.4 59.0742 1878.91 59.1833 1878.47 59.3936C1877.83 59.8308 1877.36 60.4693 1877.13 61.2067C1876.9 61.9442 1876.92 62.738 1877.19 63.4611Z" fill="" />
			</g>
			<g style="mix-blend-mode:screen">
				<path d="M1834.44 51.4007V51.0224V50.3602L1834.15 49.8874L1833.82 49.509V48.9414L1833.11 47.9009L1832.69 47.5227L1831.98 47.097H1831.41C1830.92 47.0702 1830.42 47.1469 1829.96 47.3222C1829.5 47.4974 1829.08 47.7673 1828.73 48.1147C1828.37 48.4621 1828.1 48.8792 1827.92 49.3392C1827.74 49.7992 1827.65 50.2921 1827.67 50.786L1828.29 51.4954V52.1575L1829.23 53.3399V53.9074C1829.66 54.3575 1830.22 54.6733 1830.82 54.8164C1831.43 54.9595 1832.06 54.9238 1832.65 54.7135C1833.23 54.5032 1833.75 54.1274 1834.12 53.6317C1834.5 53.136 1834.72 52.5418 1834.77 51.9211L1834.44 51.4007Z" fill="#EEE3D8" />
			</g>
			<g style="mix-blend-mode:screen">
				<path d="M1770.4 81.1022L1770.82 82.0482L1771.11 82.4266L1771.58 82.8995L1771.96 83.136L1772.95 83.5617H1773.38H1774.04H1774.51C1775.03 83.3984 1775.51 83.1258 1775.91 82.7624C1776.31 82.3989 1776.63 81.9532 1776.85 81.4553C1777.06 80.9574 1777.17 80.4189 1777.16 79.8765C1777.15 79.3342 1777.02 78.8006 1776.78 78.3118V78.0281L1776.45 77.6498L1775.93 77.2241L1775.51 76.9876L1774.51 76.6566H1773.43H1772.95L1772.01 77.0823L1771.63 77.366L1771.16 77.8862L1770.87 78.2646L1770.16 79.3997V79.8727V80.5821L1770.4 81.1022Z" fill="#9F5504" />
			</g>
			<g style="mix-blend-mode:screen">
				<path d="M1884.57 73.4403L1884.14 73.6768L1883.62 74.1498L1883.34 74.5281L1882.82 75.5213V75.9943V76.7037V77.224C1882.98 77.7767 1883.25 78.2882 1883.63 78.7217C1884 79.1552 1884.47 79.4998 1885 79.7306H1885.37H1886.7H1887.08H1887.36C1888.1 79.3189 1888.67 78.6472 1888.95 77.8443C1889.23 77.0415 1889.2 76.1638 1888.87 75.3794C1888.53 74.5774 1887.89 73.9339 1887.1 73.5751C1886.3 73.2163 1885.4 73.1681 1884.57 73.4403Z" fill="#F9DD85" />
			</g>
			<g style="mix-blend-mode:screen">
				<path d="M1889.3 43.266L1888.59 44.4957V45.0632V45.82V46.3403C1888.74 46.8865 1889.01 47.3903 1889.39 47.8099C1889.76 48.2294 1890.24 48.5525 1890.77 48.7522C1891.24 48.9309 1891.76 48.9983 1892.27 48.9491C1892.77 48.8999 1893.26 48.7356 1893.7 48.4685L1894.03 48.1847L1894.41 47.7591V47.428L1894.74 46.5294V46.1037V45.4889V45.0632C1894.5 44.2674 1894.01 43.5684 1893.35 43.0669C1892.69 42.5655 1891.88 42.2874 1891.05 42.2728H1890.39L1889.58 42.6985L1889.3 43.266Z" fill="#662B02" />
			</g>
			<g style="mix-blend-mode:screen">
				<path d="M1848.96 110.047L1848.67 110.614H1848.39C1848.11 111.256 1847.99 111.951 1848.01 112.648V113.452V113.83L1848.34 114.351L1848.63 114.635L1849.38 115.202H1851.13L1852.27 113.783V112.601V112.364V110.614L1851.09 109.243H1849.29L1848.53 109.905L1848.96 110.047Z" fill="#F9E59F" />
			</g>
			<g style="mix-blend-mode:screen">
				<path d="M1912.05 39.4349L1911.62 38.9148L1911.34 38.5837C1910.8 38.1135 1910.14 37.7853 1909.44 37.6285C1908.74 37.4717 1908.01 37.4911 1907.32 37.685C1906.71 37.9031 1906.15 38.26 1905.7 38.7277C1905.25 39.1954 1904.91 39.7612 1904.72 40.3809C1904.48 41.1833 1904.43 42.0323 1904.59 42.8558C1904.74 43.6793 1905.1 44.4528 1905.62 45.1104C1906.16 45.6724 1906.83 46.0917 1907.57 46.331C1908.32 46.5704 1909.11 46.6223 1909.87 46.482H1910.3L1910.87 46.1509L1911.2 45.8198L1911.86 44.9685V44.5429V43.8807V43.5497V42.9821C1912.14 41.9604 1912.14 40.8824 1911.86 39.8607L1912.05 39.4349Z" fill="#F9EEB8" />
			</g>
			<g style="mix-blend-mode:screen">
				<path d="M1906.33 45.8199V46.151V46.624V47.9483V48.3266C1906.38 48.9079 1906.6 49.4633 1906.94 49.9346L1907.27 50.313L1907.93 50.6913H1908.41H1909.68H1910.02C1910.64 50.6388 1911.24 50.4271 1911.77 50.0765L1912.1 49.6982L1912.47 49.0833V48.6103V47.3334V46.7659L1912.81 46.4348L1913.42 45.5362V45.0632V44.4011V43.9281C1913.19 43.029 1912.71 42.2109 1912.05 41.5634L1911.39 41.0432H1911.01H1910.44H1909.07H1908.64L1908.08 41.2796L1907.7 41.516C1907.22 41.9047 1906.83 42.3943 1906.56 42.9501C1906.29 43.506 1906.15 44.1145 1906.14 44.7322C1906.15 45.1021 1906.21 45.4685 1906.33 45.8199Z" fill="#793903" />
			</g>
			<g style="mix-blend-mode:screen">
				<path d="M1762.64 220.718V220.197V219.393C1762.62 218.841 1762.48 218.301 1762.23 217.81C1761.97 217.319 1761.62 216.891 1761.18 216.556C1760.55 216.045 1759.79 215.74 1758.98 215.681C1758.18 215.622 1757.37 215.812 1756.68 216.226C1755.99 216.639 1755.44 217.256 1755.11 217.992C1754.78 218.728 1754.69 219.547 1754.84 220.339V220.859L1755.12 221.332V221.569L1756.21 222.42L1756.64 222.657H1757.3H1757.77H1758.91H1759.38L1759.95 222.326L1760.33 221.995L1761.18 220.907L1762.64 220.718Z" fill="#793903" />
			</g>
			<g style="mix-blend-mode:screen">
				<path d="M1744.81 166.564L1745.05 166.281V165.855V165.524V164.673V163.774V163.443C1744.49 162.409 1743.59 161.592 1742.52 161.12C1741.44 160.649 1740.23 160.551 1739.09 160.842L1738.38 161.267L1737.62 162.166L1737.34 162.97V164.531L1737.62 165.288L1738.29 166.186L1738.81 166.564L1739.23 166.801C1741.79 168.031 1743.54 167.983 1744.81 166.564Z" fill="#F9E59F" />
			</g>
			<g style="mix-blend-mode:screen">
				<path d="M1902.83 75.6632L1902.31 75.3794H1901.74C1901.26 75.1342 1900.72 75.0066 1900.18 75.0066C1899.64 75.0066 1899.1 75.1342 1898.62 75.3794L1897.81 75.9469V76.1835L1897.58 76.5618V76.8455V77.5077V77.7915V78.5009C1897.65 79.058 1897.85 79.5895 1898.18 80.0505C1898.5 80.5115 1898.92 80.8884 1899.42 81.1494C1900.02 81.4566 1900.69 81.6168 1901.36 81.6168C1902.03 81.6168 1902.7 81.4566 1903.3 81.1494C1903.78 80.9019 1904.19 80.539 1904.5 80.0932C1904.8 79.6474 1904.99 79.1327 1905.05 78.5954V77.6023L1904.72 76.8455L1904.34 76.3254L1902.83 75.6632Z" fill="#EADECF" />
			</g>
			<g style="mix-blend-mode:screen">
				<path d="M1792.68 84.129L1793.05 83.7034V83.325L1793.43 82.4265V82.048V81.0075V80.3455V79.967L1793.05 79.4469L1792.72 79.1158L1791.68 78.5009H1791.45C1790.97 78.2852 1790.45 78.1878 1789.93 78.2171H1789.32L1788.56 78.6901L1788.14 79.1631L1787.47 80.3927V80.8657V82.048C1787.6 82.6121 1787.86 83.1379 1788.23 83.582C1788.6 84.0261 1789.07 84.3758 1789.6 84.602C1790.1 84.7666 1790.62 84.8264 1791.14 84.7775C1791.67 84.7287 1792.17 84.5723 1792.63 84.3183L1792.68 84.129Z" fill="#E7D8C6" />
			</g>
			<g style="mix-blend-mode:screen">
				<path d="M1907.32 26.0032V25.5302L1906.99 24.8682L1906.7 24.4899L1905.85 23.7803L1905.43 23.5439L1904.77 23.3075H1904.25C1903.67 23.3314 1903.11 23.4741 1902.6 23.7265C1902.09 23.9789 1901.63 24.3356 1901.27 24.7736V25.0101V25.3412V25.5776V26.3817V27.3275C1901.45 28.1574 1901.94 28.8854 1902.65 29.3608C1903.35 29.8362 1904.21 30.0226 1905.05 29.8814C1905.83 29.6124 1906.49 29.0735 1906.9 28.3622C1907.32 27.6509 1907.47 26.8142 1907.32 26.0032Z" fill="#F9F6D2" />
			</g>
			<g style="mix-blend-mode:screen">
				<path d="M1843.47 213.954V212.961L1843.19 211.637V211.211C1842.83 210.091 1842.05 209.155 1841.01 208.61H1840.4H1839.26H1837.98L1837.13 209.083C1836.48 209.932 1836.2 211.002 1836.33 212.062C1836.4 212.585 1836.57 213.089 1836.84 213.544C1837.11 213.999 1837.47 214.395 1837.89 214.711C1838.3 215.048 1838.77 215.297 1839.28 215.442C1839.79 215.588 1840.32 215.626 1840.85 215.555C1841.37 215.484 1841.87 215.305 1842.33 215.029C1842.78 214.754 1843.17 214.388 1843.47 213.954Z" fill="#F9DD85" />
			</g>
			<g style="mix-blend-mode:screen">
				<path d="M1882.68 156.065C1882.67 156.554 1882.77 157.039 1882.97 157.488C1883.16 157.936 1883.45 158.338 1883.81 158.666C1884.42 159.289 1885.22 159.682 1886.08 159.777C1886.95 159.871 1887.82 159.663 1888.54 159.186H1888.87L1889.25 158.903L1889.68 158.383V157.957V157.626C1890 157.245 1890.24 156.797 1890.37 156.315C1890.5 155.833 1890.52 155.328 1890.44 154.835C1890.28 153.995 1889.81 153.248 1889.11 152.754C1888.39 152.141 1887.48 151.805 1886.53 151.805C1885.59 151.805 1884.67 152.141 1883.96 152.754C1883.51 153.174 1883.16 153.69 1882.94 154.263C1882.72 154.837 1882.63 155.453 1882.68 156.065Z" fill="#C47F1E" />
			</g>
			<g style="mix-blend-mode:screen">
				<path d="M1838.74 79.0211L1839.17 79.494L1839.55 79.7777C1840.11 80.1997 1840.78 80.4726 1841.48 80.5717C1842.19 80.6708 1842.9 80.5931 1843.57 80.3454C1844.18 80.0979 1844.71 79.6986 1845.13 79.1855C1845.54 78.6725 1845.82 78.0624 1845.93 77.413C1846.14 76.581 1846.13 75.7108 1845.9 74.8835C1845.68 74.0563 1845.25 73.2992 1844.65 72.6835C1844.06 72.1648 1843.35 71.8024 1842.58 71.629C1841.81 71.4555 1841.01 71.4766 1840.25 71.6903H1839.88L1839.31 72.1159L1839.02 72.447L1838.46 73.3457V73.7713V74.4335V75.3793C1838.3 76.435 1838.43 77.5124 1838.84 78.5008L1838.74 79.0211Z" fill="#D6BDA1" />
			</g>
			<g style="mix-blend-mode:screen">
				<path d="M1771.96 158.855L1770.73 159.612L1770.26 160.132L1769.83 160.984V161.693V162.308V162.686V163.254C1769.65 164.387 1769.78 165.547 1770.21 166.612L1770.73 167.227L1771.63 167.794H1772.43H1773.9L1774.66 167.51L1775.46 166.801L1775.84 166.091V165.429V165.193C1775.99 164.683 1776.1 164.161 1776.17 163.632C1776.34 162.745 1776.25 161.829 1775.91 160.991C1775.58 160.153 1775.01 159.428 1774.28 158.903H1773.62H1772.62L1771.96 158.855Z" fill="#3B1703" />
			</g>
			<g style="mix-blend-mode:screen">
				<path d="M1912.05 60.9547C1912.54 60.6933 1912.97 60.337 1913.32 59.9065C1913.67 59.4761 1913.93 58.9802 1914.08 58.448V57.975V57.2656V56.84L1913.56 55.8467L1913.28 55.5157L1912.76 55.09L1912.33 54.8535C1911.7 54.7026 1911.03 54.7026 1910.39 54.8535H1909.59H1909.02L1907.84 55.2792L1907.37 55.6103L1906.85 56.2251L1906.56 56.6981C1906.41 57.1639 1906.34 57.6557 1906.38 58.1456C1906.41 58.6355 1906.55 59.1138 1906.76 59.553C1906.98 59.9923 1907.29 60.384 1907.66 60.7057C1908.03 61.0273 1908.46 61.2727 1908.93 61.4276C1909.45 61.5608 1910 61.5875 1910.54 61.5063C1911.07 61.4251 1911.59 61.2376 1912.05 60.9547Z" fill="#DFCBB3" />
			</g>
			<g style="mix-blend-mode:screen">
				<path d="M1863.71 52.6778L1864 52.0156V51.7318V51.0224V50.2657V49.9346V49.509V49.2252C1863.64 48.6887 1863.14 48.2598 1862.56 47.9848C1861.97 47.7098 1861.33 47.5991 1860.69 47.6645C1860.01 47.7303 1859.37 47.9815 1858.82 48.3904C1858.28 48.7993 1857.86 49.3501 1857.61 49.9819C1857.35 50.4873 1857.22 51.0465 1857.22 51.6136C1857.22 52.1808 1857.35 52.7399 1857.61 53.2453C1857.85 53.6807 1858.18 54.0565 1858.58 54.3436C1858.98 54.6306 1859.44 54.8212 1859.93 54.9007C1860.72 55.0357 1861.53 54.8867 1862.23 54.4799C1862.92 54.0732 1863.45 53.4349 1863.71 52.6778Z" fill="#F9DD85" />
			</g>
			<g style="mix-blend-mode:screen">
				<path d="M1827.63 101.865L1827.25 102.243L1826.92 103.047V103.52V104.04L1826.59 104.561L1826.16 105.743V106.311V107.162L1826.4 107.682C1826.66 108.102 1827.01 108.46 1827.42 108.732C1827.84 109.004 1828.3 109.185 1828.79 109.261C1829.28 109.337 1829.78 109.307 1830.26 109.174C1830.73 109.04 1831.17 108.806 1831.55 108.486V107.588L1832.12 107.304L1832.5 105.838L1832.88 105.412C1832.98 104.77 1832.9 104.112 1832.64 103.515C1832.38 102.919 1831.95 102.412 1831.41 102.054C1830.88 101.619 1830.23 101.366 1829.55 101.332C1828.87 101.298 1828.19 101.485 1827.63 101.865Z" fill="#C47F1E" />
			</g>
			<g style="mix-blend-mode:screen">
				<path d="M1914.74 115.77V115.344V114.635V114.114V113.026V112.601L1914.32 112.033L1913.94 111.702C1913.48 111.363 1912.94 111.136 1912.38 111.037C1911.81 110.939 1911.23 110.972 1910.68 111.135H1910.44H1910.11L1909.5 111.655L1909.26 111.939V112.175C1908.92 112.964 1908.9 113.85 1909.19 114.656C1909.48 115.463 1910.06 116.13 1910.82 116.526C1911.47 116.816 1912.2 116.899 1912.9 116.764C1913.6 116.628 1914.25 116.281 1914.74 115.77Z" fill="#6D341B" />
			</g>
			<g style="mix-blend-mode:screen">
				<path d="M1881.69 157.295L1881.12 156.68H1880.79L1880.22 156.443H1879.79H1878.8H1878.33H1877.76H1877.33L1876.81 156.822L1876.48 157.2L1876.1 157.815V158.241V159.376V159.849V160.511V160.936L1876.72 161.788L1877.05 162.119L1877.62 162.45H1878.04H1879.08H1879.56H1880.22H1880.64C1881.08 162.196 1881.45 161.855 1881.75 161.448C1882.04 161.04 1882.24 160.576 1882.35 160.085C1882.5 159.104 1882.26 158.102 1881.69 157.295Z" fill="#D59C38" />
			</g>
			<g style="mix-blend-mode:screen">
				<path d="M1916.4 178.72V179.334L1916.68 179.713C1917.1 180.288 1917.66 180.747 1918.31 181.045C1918.95 181.343 1919.66 181.47 1920.37 181.415C1921.02 181.352 1921.65 181.13 1922.19 180.766C1922.74 180.403 1923.19 179.912 1923.49 179.334C1923.91 178.574 1924.13 177.72 1924.13 176.851C1924.13 175.983 1923.91 175.129 1923.49 174.368C1923.11 173.682 1922.55 173.112 1921.86 172.721C1921.18 172.329 1920.4 172.13 1919.62 172.145H1919.14L1918.53 172.382L1918.1 172.618L1917.35 173.328L1917.06 173.706L1916.73 174.274V174.652V175.172C1916.25 176.122 1916.06 177.189 1916.16 178.247L1916.4 178.72Z" fill="#F9E59F" />
			</g>
			<g style="mix-blend-mode:screen">
				<path d="M1854.11 314.693L1852.93 315.45L1852.46 316.017L1852.08 316.916V317.578V318.24V318.618V319.139C1851.95 320.285 1852.13 321.445 1852.6 322.497L1853.12 323.112L1854.06 323.632H1854.82H1856.34L1857.04 323.301L1857.85 322.544L1858.23 321.835V321.125V320.889C1858.38 320.38 1858.47 319.857 1858.51 319.328C1858.66 318.427 1858.55 317.501 1858.19 316.662C1857.83 315.823 1857.24 315.106 1856.48 314.599H1855.77H1854.77L1854.11 314.693Z" fill="#E7B851" />
			</g>
			<g style="mix-blend-mode:screen">
				<path d="M1834.82 34.9422V34.3746V33.949C1834.34 33.0435 1833.52 32.3634 1832.55 32.0571C1831.7 31.7834 1830.78 31.8353 1829.96 32.2024C1829.15 32.5695 1828.5 33.2257 1828.15 34.0435V34.3273V34.7056V35.9827V36.361V36.5975C1828.36 37.034 1828.65 37.4228 1829.02 37.7401C1829.39 38.0573 1829.81 38.2961 1830.28 38.442C1830.94 38.6466 1831.65 38.6713 1832.34 38.5136C1833.02 38.3558 1833.64 38.0211 1834.15 37.5433V37.2122L1834.44 36.6921V36.3138V35.3678L1834.82 34.9422Z" fill="#3B1703" />
			</g>
			<g style="mix-blend-mode:screen">
				<path d="M1913.61 173.422L1914.32 174.179L1914.7 174.463L1915.27 174.747H1915.74H1916.78H1917.25H1917.87H1918.29C1918.74 174.414 1919.11 173.988 1919.38 173.498C1919.65 173.009 1919.81 172.466 1919.85 171.909C1919.9 171.389 1919.83 170.865 1919.65 170.375C1919.47 169.885 1919.18 169.44 1918.81 169.071V168.835L1918.39 168.551L1917.77 168.314H1917.3H1916.26H1915.79L1915.17 168.551L1914.79 168.787L1914.04 169.497L1913.75 169.875L1913.42 170.537V171.01V172.098V172.571L1913.66 173.233L1913.61 173.422Z" fill="#F9F6D2" />
			</g>
			<g style="mix-blend-mode:screen">
				<path d="M1918.48 226.771V226.015L1918.2 225.163V224.88V224.501V224.265C1917.71 223.84 1917.12 223.561 1916.48 223.46C1915.85 223.36 1915.19 223.442 1914.6 223.697C1913.9 224.008 1913.31 224.521 1912.91 225.17C1912.51 225.819 1912.3 226.575 1912.33 227.339V227.954L1912.76 228.71L1913.18 229.136L1914.32 229.845H1914.89H1915.79H1916.4C1917.05 229.612 1917.62 229.215 1918.07 228.693C1918.52 228.171 1918.82 227.541 1918.95 226.866L1918.48 226.771Z" fill="#F9E59F" />
			</g>
			<path d="M1272.64 -1340.04L1189.03 -1256.44L2904.65 459.176L2988.26 375.569L1272.64 -1340.04Z" fill="url(#paint0_linear_268_80)" />
			<path d="M1204.07 -1271.46L1189.02 -1256.41L2904.64 459.201L2919.69 444.152L1204.07 -1271.46Z" fill="url(#paint1_linear_268_80)" />
			<path d="M804.922 -1044.81L799.704 -1039.59L2623.22 783.909L2628.43 778.692L804.922 -1044.81Z" fill="url(#paint2_linear_268_80)" />
			<path d="M1050.89 -1300.17L1045.67 -1294.95L2869.18 528.546L2874.4 523.329L1050.89 -1300.17Z" fill="url(#paint3_linear_268_80)" />
			<path d="M1346.49 -1461L1341.28 -1455.78L3164.79 367.716L3170.01 362.499L1346.49 -1461Z" fill="url(#paint4_linear_268_80)" />
			<path d="M712.732 -1048L707.514 -1042.78L2531.03 780.716L2536.24 775.498L712.732 -1048Z" fill="url(#paint5_linear_268_80)" />
			<path d="M523.217 -1043.73L518 -1038.51L2341.51 784.987L2346.73 779.77L523.217 -1043.73Z" fill="url(#paint6_linear_268_80)" />
			<path d="M1158.38 -1421.94L1153.17 -1416.72L2976.68 406.779L2981.89 401.561L1158.38 -1421.94Z" fill="url(#paint7_linear_268_80)" />
			<g style="mix-blend-mode:screen">
				<path d="M2248.18 -291.063C2469.8 -69.4384 2634.49 125.134 2616.04 143.674C2597.6 162.213 2402.93 -2.51562 2181.3 -224.141C1959.68 -445.766 1794.95 -640.338 1813.44 -658.878C1831.93 -677.418 2026.55 -512.689 2248.18 -291.063Z" fill="url(#paint8_radial_268_80)" />
			</g>
			<g style="mix-blend-mode:screen">
				<path d="M1980.96 -255.592C2202.59 -33.9669 2367.27 160.605 2348.82 179.145C2330.38 197.685 2135.71 32.9558 1914.08 -188.669C1692.46 -410.294 1527.73 -604.867 1546.22 -623.406C1564.71 -641.946 1759.33 -477.217 1980.96 -255.592Z" fill="url(#paint9_radial_268_80)" />
			</g>
			<g style="mix-blend-mode:screen">
				<path d="M1966.3 -240.93C2090.92 -116.355 2183.53 -6.91388 2173.12 3.72754C2162.72 14.369 2053.32 -78.4715 1928.7 -203.094C1804.07 -327.717 1711.52 -437.347 1721.92 -447.752C1732.33 -458.157 1841.72 -365.553 1966.3 -240.93Z" fill="url(#paint10_radial_268_80)" />
			</g>
			<g style="mix-blend-mode:screen">
				<path d="M1936.03 32.9086C2157.65 254.534 2322.34 449.106 2303.89 467.646C2285.45 486.185 2090.78 321.456 1869.15 99.8312C1647.53 -121.794 1482.8 -316.366 1501.29 -334.906C1519.78 -353.446 1714.4 -188.717 1936.03 32.9086Z" fill="url(#paint11_radial_268_80)" />
			</g>
			<g style="mix-blend-mode:screen">
				<path d="M1921.51 47.5698C2045.99 172.145 2138.59 281.586 2128.19 292.228C2117.78 302.869 2008.39 209.792 1883.67 85.1695C1758.95 -39.4532 1666.59 -148.847 1676.99 -159.252C1687.4 -169.657 1796.79 -77.0529 1921.51 47.5698Z" fill="url(#paint12_radial_268_80)" />
			</g>
		</g>
	</g>
	<defs>
		<linearGradient id="paint0_linear_268_80" x1="1074.05" y1="-1448.33" x2="3134.12" y2="598.379" gradientUnits="userSpaceOnUse">
			<stop stop-color="#F4EFEA" />
			<stop offset="0.06" stop-color="#F3EDE8" />
			<stop offset="0.53" stop-color="#EEE3D8" />
			<stop offset="0.99" stop-color="#E3D1BD" />
		</linearGradient>
		<linearGradient id="paint1_linear_268_80" x1="2708.2" y1="247.709" x2="1669" y2="-791.498" gradientUnits="userSpaceOnUse">
			<stop stop-color="#F4E0AE" />
			<stop offset="0.2" stop-color="#EACD8C" />
			<stop offset="0.32" stop-color="#E5C47C" />
			<stop offset="0.36" stop-color="#E0BE77" />
			<stop offset="0.42" stop-color="#D2AD69" />
			<stop offset="0.5" stop-color="#BC9152" />
			<stop offset="0.54" stop-color="#AA7A40" />
			<stop offset="0.62" stop-color="#C09657" />
			<stop offset="0.72" stop-color="#D4AF6B" />
			<stop offset="0.8" stop-color="#E1BF78" />
			<stop offset="0.87" stop-color="#E5C47C" />
		</linearGradient>
		<linearGradient id="paint2_linear_268_80" x1="2409.31" y1="564.391" x2="1304.77" y2="-540.163" gradientUnits="userSpaceOnUse">
			<stop stop-color="#F4E0AE" />
			<stop offset="0.2" stop-color="#EACD8C" />
			<stop offset="0.32" stop-color="#E5C47C" />
			<stop offset="0.36" stop-color="#E0BE77" />
			<stop offset="0.42" stop-color="#D2AD69" />
			<stop offset="0.5" stop-color="#BC9152" />
			<stop offset="0.54" stop-color="#AA7A40" />
			<stop offset="0.62" stop-color="#C09657" />
			<stop offset="0.72" stop-color="#D4AF6B" />
			<stop offset="0.8" stop-color="#E1BF78" />
			<stop offset="0.87" stop-color="#E5C47C" />
		</linearGradient>
		<linearGradient id="paint3_linear_268_80" x1="2655.28" y1="309.028" x2="1550.73" y2="-795.526" gradientUnits="userSpaceOnUse">
			<stop stop-color="#F4E0AE" />
			<stop offset="0.2" stop-color="#EACD8C" />
			<stop offset="0.32" stop-color="#E5C47C" />
			<stop offset="0.36" stop-color="#E0BE77" />
			<stop offset="0.42" stop-color="#D2AD69" />
			<stop offset="0.5" stop-color="#BC9152" />
			<stop offset="0.54" stop-color="#AA7A40" />
			<stop offset="0.62" stop-color="#C09657" />
			<stop offset="0.72" stop-color="#D4AF6B" />
			<stop offset="0.8" stop-color="#E1BF78" />
			<stop offset="0.87" stop-color="#E5C47C" />
		</linearGradient>
		<linearGradient id="paint4_linear_268_80" x1="2950.85" y1="148.164" x2="1846.31" y2="-956.39" gradientUnits="userSpaceOnUse">
			<stop stop-color="#F4E0AE" />
			<stop offset="0.2" stop-color="#EACD8C" />
			<stop offset="0.32" stop-color="#E5C47C" />
			<stop offset="0.36" stop-color="#E0BE77" />
			<stop offset="0.42" stop-color="#D2AD69" />
			<stop offset="0.5" stop-color="#BC9152" />
			<stop offset="0.54" stop-color="#AA7A40" />
			<stop offset="0.62" stop-color="#C09657" />
			<stop offset="0.72" stop-color="#D4AF6B" />
			<stop offset="0.8" stop-color="#E1BF78" />
			<stop offset="0.87" stop-color="#E5C47C" />
		</linearGradient>
		<linearGradient id="paint5_linear_268_80" x1="2316.86" y1="561.331" x2="1212.31" y2="-543.223" gradientUnits="userSpaceOnUse">
			<stop stop-color="#F4E0AE" />
			<stop offset="0.2" stop-color="#EACD8C" />
			<stop offset="0.32" stop-color="#E5C47C" />
			<stop offset="0.36" stop-color="#E0BE77" />
			<stop offset="0.42" stop-color="#D2AD69" />
			<stop offset="0.5" stop-color="#BC9152" />
			<stop offset="0.54" stop-color="#AA7A40" />
			<stop offset="0.62" stop-color="#C09657" />
			<stop offset="0.72" stop-color="#D4AF6B" />
			<stop offset="0.8" stop-color="#E1BF78" />
			<stop offset="0.87" stop-color="#E5C47C" />
		</linearGradient>
		<linearGradient id="paint6_linear_268_80" x1="2127.58" y1="565.502" x2="1023.03" y2="-539.052" gradientUnits="userSpaceOnUse">
			<stop stop-color="#F4E0AE" />
			<stop offset="0.2" stop-color="#EACD8C" />
			<stop offset="0.32" stop-color="#E5C47C" />
			<stop offset="0.36" stop-color="#E0BE77" />
			<stop offset="0.42" stop-color="#D2AD69" />
			<stop offset="0.5" stop-color="#BC9152" />
			<stop offset="0.54" stop-color="#AA7A40" />
			<stop offset="0.62" stop-color="#C09657" />
			<stop offset="0.72" stop-color="#D4AF6B" />
			<stop offset="0.8" stop-color="#E1BF78" />
			<stop offset="0.87" stop-color="#E5C47C" />
		</linearGradient>
		<linearGradient id="paint7_linear_268_80" x1="2762.47" y1="187.428" x2="1657.93" y2="-917.126" gradientUnits="userSpaceOnUse">
			<stop stop-color="#F4E0AE" />
			<stop offset="0.2" stop-color="#EACD8C" />
			<stop offset="0.32" stop-color="#E5C47C" />
			<stop offset="0.36" stop-color="#E0BE77" />
			<stop offset="0.42" stop-color="#D2AD69" />
			<stop offset="0.5" stop-color="#BC9152" />
			<stop offset="0.54" stop-color="#AA7A40" />
			<stop offset="0.62" stop-color="#C09657" />
			<stop offset="0.72" stop-color="#D4AF6B" />
			<stop offset="0.8" stop-color="#E1BF78" />
			<stop offset="0.87" stop-color="#E5C47C" />
		</linearGradient>
		<radialGradient id="paint8_radial_268_80" cx="0" cy="0" r="1" gradientUnits="userSpaceOnUse" gradientTransform="translate(2062.74 -105.523) rotate(-44.9998) scale(45.4149 567.686)">
			<stop stop-color="#8C4703" />
			<stop offset="0.09" stop-color="#7B3F03" />
			<stop offset="0.49" stop-color="#391D01" />
			<stop offset="0.78" stop-color="#100800" />
			<stop offset="0.93" />
		</radialGradient>
		<radialGradient id="paint9_radial_268_80" cx="0" cy="0" r="1" gradientUnits="userSpaceOnUse" gradientTransform="translate(1801.51 -76.0469) rotate(-44.9998) scale(45.4149 567.686)">
			<stop stop-color="#8C4703" />
			<stop offset="0.09" stop-color="#7B3F03" />
			<stop offset="0.49" stop-color="#391D01" />
			<stop offset="0.78" stop-color="#100800" />
			<stop offset="0.93" />
		</radialGradient>
		<radialGradient id="paint10_radial_268_80" cx="0" cy="0" r="1" gradientUnits="userSpaceOnUse" gradientTransform="translate(2192.41 -500.782) rotate(-44.9998) scale(28.3914 317.984)">
			<stop stop-color="#F9EEB8" />
			<stop offset="0.04" stop-color="#EBE1AE" />
			<stop offset="0.23" stop-color="#A59D7A" />
			<stop offset="0.41" stop-color="#6A654E" />
			<stop offset="0.58" stop-color="#3C3A2D" />
			<stop offset="0.72" stop-color="#1B1A14" />
			<stop offset="0.85" stop-color="#070705" />
			<stop offset="0.93" />
		</radialGradient>
	</defs>
</svg>