<svg width="880" height="495" viewBox="0 0 880 495" fill="none" xmlns="http://www.w3.org/2000/svg">
<path d="M483.798 233.127L482.964 238.333C479.751 234.713 474.801 232.109 467.046 232.109C453.168 232.109 443.323 242.669 443.323 257.56C443.323 272.452 453.168 283.117 467.046 283.117C474.237 283.117 479.696 280.67 482.964 276.893L483.798 282.095H496.072V233.127H483.798ZM469.75 271.388C461.945 271.388 456.486 265.265 456.486 257.51C456.486 249.755 461.945 243.843 469.75 243.843C477.556 243.843 483.06 249.709 483.06 257.51C483.06 265.311 477.45 271.388 469.75 271.388Z" fill="#D9D9D9"/>
<path d="M539.509 242.614V233.127H501.66V244.044H524.562L501.403 272.663V282.1H541.039V271.182H516.349L539.509 242.614Z" fill="#D9D9D9"/>
<path d="M582.248 211.677V239.053C578.994 234.974 573.939 232.109 566.092 232.109C552.214 232.109 542.364 242.669 542.364 257.556C542.364 272.442 552.214 283.112 566.092 283.112C573.279 283.112 578.728 280.665 582.001 276.902L582.831 282.104H595.118V211.677H582.248ZM568.787 271.379C560.986 271.379 555.518 265.27 555.518 257.501C555.518 249.732 560.986 243.838 568.787 243.838C576.588 243.838 582.097 249.705 582.097 257.501C582.097 265.297 576.501 271.379 568.787 271.379Z" fill="#D9D9D9"/>
<path d="M640.562 233.127L639.719 238.333C636.506 234.713 631.556 232.109 623.801 232.109C609.923 232.109 600.078 242.669 600.078 257.56C600.078 272.452 609.923 283.117 623.801 283.117C630.992 283.117 636.451 280.67 639.719 276.893L640.562 282.095H652.832V233.127H640.562ZM626.51 271.388C618.704 271.388 613.246 265.265 613.246 257.51C613.246 249.755 618.704 243.843 626.51 243.843C634.315 243.843 639.82 249.709 639.82 257.51C639.82 265.311 634.21 271.388 626.51 271.388Z" fill="#D9D9D9"/>
<path d="M686.891 232.105C679.594 232.105 674.342 235.368 671.793 238.787L670.954 233.127H659.093V282.1H672.151V254.705C672.151 247.922 677.252 244.246 683.018 244.246C688.784 244.246 693.17 247.917 693.17 254.705V282.1H706.228V251.341C706.228 239.557 698.221 232.109 686.895 232.109L686.891 232.105Z" fill="#D9D9D9"/>
<path d="M727.71 211.677L724.258 220.834L720.77 211.677H715.733V226.187H719.185V215.902H719.258L722.92 226.187H725.56L729.227 215.902H729.295V226.187H732.747V211.677H727.71Z" fill="#D9D9D9"/>
<path d="M702.038 214.459H706.264V226.187H709.715V214.459H713.946V211.677H702.038V214.459Z" fill="#D9D9D9"/>
<path d="M334.285 211.677H152.634C145.81 211.677 142.395 219.927 147.217 224.753L201.9 279.437C206.74 284.277 214.583 284.277 219.418 279.437L257.803 241.051C262.414 236.44 270.302 239.704 270.302 246.23V273.955C270.302 282.104 280.156 286.188 285.922 280.422L340.253 226.091C345.574 220.77 341.807 211.677 334.281 211.677H334.285Z" fill="#D9D9D9"/>
<path d="M353.618 211.677H366.493V263.445L402.174 211.677H412.496V263.445L448.181 211.677H463.123L414.022 282.1L399.639 282.095V236.752L368.024 282.1H353.618V211.677Z" fill="#D9D9D9"/>
</svg>
