<svg width="212" height="33" viewBox="0 0 212 33" fill="none" xmlns="http://www.w3.org/2000/svg">
<g clip-path="url(#clip0_501_45)">
<path d="M151 26.5V6.90002C151 6.60002 151.2 6.40002 151.5 6.40002H155.4C155.5 6.40002 155.7 6.50002 155.8 6.60002L165.2 17.9V6.90002C165.2 6.60002 165.4 6.40002 165.7 6.40002H170.2C170.5 6.40002 170.7 6.60002 170.7 6.90002V26.5C170.7 26.8 170.5 27 170.2 27H166.3C166.2 27 166 26.9 165.9 26.8L156.5 15.5V26.5C156.5 26.8 156.3 27 156 27H151.6C151.2 27 151 26.7 151 26.5Z" fill="#D9D9D9"/>
<path d="M174.8 26.5V6.90002C174.8 6.60002 175 6.40002 175.3 6.40002H190.4C190.7 6.40002 190.9 6.60002 190.9 6.90002V10.3C190.9 10.6 190.7 10.8 190.4 10.8H180.3V14.6H189.1C189.4 14.6 189.6 14.8 189.6 15.1V18.2C189.6 18.5 189.4 18.7 189.1 18.7H180.3V22.8H190.8C191.1 22.8 191.3 23 191.3 23.3V26.7C191.3 27 191.1 27.2 190.8 27.2H175.3C175 27 174.8 26.7 174.8 26.5Z" fill="#D9D9D9"/>
<path d="M199.7 26.5V10.8H193.8C193.5 10.8 193.3 10.6 193.3 10.3V6.90002C193.3 6.60002 193.5 6.40002 193.8 6.40002H211.2C211.5 6.40002 211.7 6.60002 211.7 6.90002V10.3C211.7 10.6 211.5 10.8 211.2 10.8H205.3V26.5C205.3 26.8 205.1 27 204.8 27H200.2C199.9 27 199.7 26.7 199.7 26.5Z" fill="#D9D9D9"/>
<path d="M25.5998 24.3C30.1838 24.3 33.8998 20.5839 33.8998 16C33.8998 11.416 30.1838 7.69995 25.5998 7.69995C21.0158 7.69995 17.2998 11.416 17.2998 16C17.2998 20.5839 21.0158 24.3 25.5998 24.3Z" fill="#D9D9D9"/>
<path fill-rule="evenodd" clip-rule="evenodd" d="M38.8999 22.5C38.6999 22.6 38.3999 22.4 38.5999 22.2C42.7999 17.3 44.1999 11.5 41.6999 7.19998C38.5999 1.89997 30.5999 0.799973 22.7999 3.59997C14.4999 6.59997 9.09987 12.9 10.1999 19.3C12.3999 32.3 38.1999 31.2 47.1999 30.5C47.4999 30.5 47.4999 30.9 47.2999 30.9C24.1999 36.2 3.79987 33 0.799873 21.4C-2.10013 10.2 14.5999 3.69997 22.0999 1.69997C32.3999 -1.00003 45.5999 -0.900027 48.2999 6.59997C50.0999 11.4 46.0999 17.6 38.8999 22.5Z" fill="#D9D9D9"/>
<path d="M54.9996 26.3L63.6996 6.70002C63.7996 6.50002 63.9996 6.40002 64.1996 6.40002H69.0997C69.2997 6.40002 69.4997 6.50002 69.5997 6.70002L78.2996 26.3C78.3996 26.6 78.1996 27 77.7996 27H73.0997C72.8997 27 72.6997 26.9 72.5997 26.7L71.0997 23H61.9996L60.4996 26.7C60.3996 26.9 60.1996 27 59.9996 27H55.3996C55.0996 27 54.8996 26.6 54.9996 26.3ZM69.4996 18.9L66.4996 11.5L63.4996 18.9H69.4996Z" fill="#D9D9D9"/>
<path d="M80.3999 26.5V6.90002C80.3999 6.60002 80.5999 6.40002 80.8999 6.40002H84.6999C84.8999 6.40002 84.9999 6.50002 85.0999 6.60002L92.2999 18.6L99.4999 6.60002C99.5999 6.50002 99.6999 6.40002 99.8999 6.40002H103.7C104 6.40002 104.2 6.60002 104.2 6.90002V26.5C104.2 26.8 104 27 103.7 27H99.5999C99.2999 27 99.0999 26.8 99.0999 26.5V15.4L93.5999 24.7C93.4999 24.8 93.3999 24.9 93.1999 24.9H91.2999C91.0999 24.9 90.9999 24.8 90.8999 24.7L85.3999 15.7V26.5C85.3999 26.8 85.1999 27 84.8999 27H80.7999C80.5999 27 80.3999 26.7 80.3999 26.5Z" fill="#D9D9D9"/>
<path d="M118.2 27.4C115.2 27.4 112.8 26.6 111.1 24.9C109.4 23.2 108.6 20.9 108.6 17.8V6.90002C108.6 6.60002 108.8 6.40002 109.1 6.40002H113.7C114 6.40002 114.2 6.60002 114.2 6.90002V17.6C114.2 21.1 115.5 22.8 118.3 22.8C121.1 22.8 122.5 21 122.5 17.6V6.90002C122.5 6.60002 122.7 6.40002 123 6.40002H127.5C127.8 6.40002 128 6.60002 128 6.90002V17.8C128 20.8 127.1 23.2 125.5 24.9C123.6 26.5 121.2 27.4 118.2 27.4Z" fill="#D9D9D9"/>
<path d="M139.1 27.4C137.4 27.4 135.8 27.2 134.2 26.8C132.9 26.5 131.7 26 130.8 25.5C130.6 25.4 130.5 25.1 130.6 24.9L132 21.7C132 21.6 132.1 21.5 132.3 21.5C132.5 21.4 132.6 21.5 132.7 21.5C133.5 22 134.4 22.3 135.4 22.6C136.6 23 137.9 23.2 139.1 23.2C141.5 23.2 142.7 22.6 142.7 21.3C142.7 20.8 142.5 20.2 141.6 19.8C140.9 19.5 139.9 19.2 138.4 18.9C136.8 18.6 135.5 18.2 134.5 17.8C133.5 17.4 132.6 16.8 131.9 16C131.2 15.2 130.8 14.1 130.8 12.7C130.8 11.5 131.1 10.3 131.8 9.39998C132.5 8.39998 133.5 7.59998 134.8 6.99998C136.2 6.39998 137.8 6.09998 139.8 6.09998C141.2 6.09998 142.5 6.29998 143.8 6.59998C144.9 6.89998 145.9 7.19998 146.8 7.69998C147 7.79998 147.1 8.09998 147 8.29998L145.7 11.5C145.7 11.6 145.6 11.7 145.4 11.8C145.2 11.8 145.1 11.8 145.1 11.8C143.3 10.9 141.6 10.5 139.8 10.5C138.6 10.5 137.7 10.7 137.1 11.1C136.5 11.5 136.2 12 136.2 12.6C136.2 13 136.4 13.6 137.3 14C137.9 14.3 139 14.6 140.4 14.9C142 15.2 143.3 15.6 144.3 16C145.3 16.4 146.2 17 146.9 17.8C147.6 18.6 148 19.7 148 21.1C148 22.3 147.7 23.4 147 24.4C146.3 25.4 145.3 26.2 143.9 26.8C142.8 27.1 141.1 27.4 139.1 27.4Z" fill="#D9D9D9"/>
</g>
<defs>
<clipPath id="clip0_501_45">
<rect width="212" height="33" fill="white"/>
</clipPath>
</defs>
</svg>
