<svg width="40.000000" height="40.000000" viewBox="0 0 40 40" fill="none" xmlns="http://www.w3.org/2000/svg" xmlns:xlink="http://www.w3.org/1999/xlink">
	<desc>
			Created with Pixso.
	</desc>
	<defs>
		<clipPath id="clip12_229">
			<rect id="Arrow - Down" width="20.000000" height="20.000000" transform="matrix(0 -1 -1 0 30 30)" fill="white" fill-opacity="0"/>
		</clipPath>
	</defs>
	<rect id="Rectangle 398" rx="2.000000" width="40.000000" height="40.000000" transform="matrix(0 -1 -1 0 40 40)" fill="#FE390C" fill-opacity="1.000000"/>
	<rect id="Arrow - Down" width="20.000000" height="20.000000" transform="matrix(0 -1 -1 0 30 30)" fill="#000000" fill-opacity="0"/>
	<g clip-path="url(#clip12_229)">
		<path id="Combined-Shape" d="M26.6666 19.7715C26.6666 19.4551 26.4315 19.1936 26.1264 19.1522L26.0416 19.1465L15.055 19.147L19.0241 15.1941C19.2687 14.9505 19.2696 14.5548 19.026 14.3102C18.8046 14.0878 18.4574 14.0669 18.2124 14.2479L18.1422 14.3083L13.1005 19.3283C13.0682 19.3604 13.0402 19.3951 13.0164 19.4318C13.0097 19.4428 13.0029 19.4542 12.9964 19.4657C12.9905 19.4756 12.9851 19.4858 12.98 19.4962C12.973 19.5113 12.9661 19.5269 12.9598 19.5428C12.9547 19.5551 12.9505 19.567 12.9466 19.579C12.942 19.5939 12.9375 19.6098 12.9337 19.6259C12.9308 19.6372 12.9285 19.648 12.9266 19.6589C12.9238 19.6751 12.9214 19.6919 12.9197 19.7088C12.9183 19.7218 12.9174 19.7346 12.9169 19.7474C12.9168 19.7552 12.9166 19.7633 12.9166 19.7715L12.9169 19.7957C12.9174 19.808 12.9182 19.8202 12.9195 19.8325L12.9166 19.7715C12.9166 19.8109 12.9203 19.8495 12.9273 19.8869C12.9289 19.8959 12.9308 19.905 12.933 19.9142C12.9374 19.933 12.9425 19.9511 12.9484 19.9689C12.9513 19.9777 12.9547 19.9871 12.9583 19.9965C12.9656 20.0153 12.9736 20.0332 12.9823 20.0507C12.9864 20.0589 12.9909 20.0675 12.9957 20.076C13.0035 20.0899 13.0115 20.1031 13.02 20.1159C13.026 20.125 13.0327 20.1345 13.0396 20.1438L13.045 20.151C13.0619 20.173 13.0801 20.1939 13.0997 20.2134L13.1004 20.214L18.1421 25.2348C18.3867 25.4784 18.7824 25.4776 19.026 25.233C19.2474 25.0107 19.2669 24.6634 19.0848 24.4191L19.0241 24.3492L15.0566 20.397L26.0416 20.3965C26.3868 20.3965 26.6666 20.1167 26.6666 19.7715Z" fill="#FFFFFF" fill-opacity="1.000000" fill-rule="nonzero"/>
	</g>
</svg>
