<svg width="103.696289" height="31.992981" viewBox="0 0 103.696 31.993" fill="none" xmlns="http://www.w3.org/2000/svg" xmlns:xlink="http://www.w3.org/1999/xlink">
	<desc>
			Created with Pixso.
	</desc>
	<defs/>
	<path id="Vector" d="M103.17 16.2687C102.625 15.9164 101.921 16.0446 101.536 16.5889C101.472 16.6851 100.063 18.7346 97.5972 18.7346C96.6365 18.7346 95.8999 18.4464 95.4194 17.838C95.3875 17.8059 95.3555 17.7419 95.3235 17.7098C95.3235 17.7098 95.3555 17.7098 95.3555 17.6778C101.184 14.3472 101.12 11.497 100.864 10.4402C100.511 9.15918 99.3906 8.32648 97.9495 8.32648C94.6189 8.32648 92.4092 12.0414 92.4092 15.5001C92.4092 15.9485 92.4412 16.3648 92.5051 16.7811C91.3203 17.6458 89.4949 18.7346 87.8936 18.7346C86.9648 18.7346 86.2603 18.4464 85.812 17.902C85.6519 17.7098 85.5237 17.4857 85.4277 17.2615C89.8792 15.9805 91.5764 13.1302 91.2563 10.8565C91.0642 9.3833 89.9434 8.32648 88.5662 8.32648C85.4597 8.32648 83.218 11.5931 82.8657 14.7955C82.2573 14.7315 81.7449 14.5714 81.2644 14.2512C81.3286 13.7387 81.3926 13.2263 81.3926 12.746C81.3926 11.6891 81.2004 10.7924 80.8162 10.0879C80.3037 9.15918 79.439 8.64673 78.4463 8.64673C77.9019 8.64673 77.4214 8.935 77.1333 9.44739C76.5569 10.5042 76.9412 12.5538 77.9978 14.1871C78.1899 14.5073 78.4143 14.7955 78.6704 15.0838C78.094 16.9412 76.877 18.7026 75.3398 18.7026C74.6353 18.7026 74.1228 18.4785 73.6746 18.0301C73.0662 17.3575 72.6497 16.1726 72.5217 14.6675C76.877 9.22321 79.0227 3.875 77.8057 1.34503C77.3894 0.480347 76.6208 0 75.6921 0C72.6816 0 70.8884 3.90704 70.1838 11.9453C70.1519 12.4257 70.1196 13.0342 70.1196 13.6747C68.5186 15.8524 65.8604 18.7026 63.4905 18.7026C62.8181 18.7026 62.3057 18.4785 61.9854 17.998C61.9534 17.966 61.9214 17.902 61.8894 17.8699C61.9214 17.8699 61.9534 17.838 61.9854 17.8059C67.8459 14.027 67.75 11.1768 67.4617 10.1519C67.1414 9.03107 66.1167 8.29449 64.8037 8.29449C61.4089 8.29449 59.1033 12.2015 59.1033 15.8524C59.1033 16.1726 59.1353 16.4929 59.1672 16.8131C58.0784 17.5817 57.2136 18.2863 56.3491 18.9588C56.4771 17.966 56.6692 16.6851 56.8933 14.7955C56.9575 14.4113 56.9895 14.091 57.0215 13.9309C57.2136 12.5538 54.9399 12.2656 54.6836 13.8028C54.4275 15.4041 53.7549 18.7026 51.8655 18.7026C50.7446 18.7026 50.1362 17.4536 50.2642 15.6282C50.4243 12.746 51.9937 10.4081 53.915 10.4081C54.5876 10.4081 54.908 11.1127 54.908 11.1127C55.5164 12.2015 57.4058 11.2728 56.9895 10.1199C56.7974 9.60748 56.189 8.29449 53.9792 8.29449C49.4956 8.29449 48.0864 12.842 47.8943 15.8524C47.8623 16.3328 47.8623 16.8131 47.9265 17.2935C47.2859 18.0621 46.5493 18.7026 45.8127 18.7026C45.1082 18.7026 44.6599 17.902 44.916 16.0765C45.1724 14.3152 45.3645 12.8741 45.4604 12.0414C46.0049 8.23041 41.2332 8.32648 41.2332 8.32648C41.2332 8.32648 41.1692 6.08478 39.3438 6.08478C38.415 6.08478 37.5503 6.82135 37.5503 8.19843C37.5503 9.47943 38.6072 10.1199 38.6072 10.1199C38.3831 12.1055 37.4543 18.7026 35.3726 18.7026C34.4438 18.7026 34.3799 17.7098 34.4758 17.0053C34.604 16.0446 34.7642 14.3792 34.8281 13.9629C35.0203 12.5858 32.7466 12.2976 32.4905 13.8348C32.2341 15.436 31.5615 18.7346 29.6721 18.7346C28.5513 18.7346 27.9429 17.3256 28.0388 15.5962C28.199 12.6819 29.7683 10.4402 31.6897 10.4402C32.3623 10.4402 32.6826 11.1447 32.6826 11.1447C33.1948 12.2336 35.1484 11.465 34.7642 10.1519C34.604 9.5755 33.9636 8.32648 31.7539 8.32648C27.2703 8.32648 25.8611 12.8741 25.6689 15.8844C25.637 16.3648 25.637 16.8131 25.6689 17.2294C25.0286 18.0941 24.26 18.7346 23.5234 18.7346C22.8508 18.7346 22.3384 18.3824 22.4666 16.8772C22.5305 16.1726 23.3313 11.3369 23.2991 10.4722C23.2031 8.99902 22.5305 8.35852 20.8972 8.35852C19.168 8.35852 17.887 9.25525 17.3425 9.79968C17.3425 9.79968 18.1431 3.7149 18.3032 2.52997C18.4634 1.31305 16.0935 1.28101 15.9653 2.52997C15.9014 3.0744 15.261 7.87817 14.6846 12.3616C13.3394 15.308 10.6814 19.7914 6.74219 19.7914C-0.719482 19.7914 2.70703 3.52277 9.72046 3.52277C11.3538 3.52277 10.6172 6.1488 9.52832 7.71802C8.75977 8.87091 10.7134 10.1519 11.8022 8.32648C14.8125 3.2345 12.2825 1.34503 9.88062 1.34503C-0.495361 1.34503 -4.33838 22.0332 6.4541 22.0332C10.0088 22.0332 12.4106 20.0477 13.948 17.8699C13.7878 19.0869 13.6917 19.9196 13.6597 20.0797C13.4675 21.3607 15.8694 21.2646 15.9976 20.1758C16.0935 19.5032 16.4458 16.653 16.7341 14.4433C16.8943 13.1943 18.4314 10.8885 20.1606 10.8885C20.5771 10.8885 20.8333 11.3048 20.8013 11.6571C20.7371 12.0734 20.0005 17.4857 20.0327 18.2863C20.1606 20.5601 21.7939 21.0724 23.3313 21.0724C24.5481 21.0724 25.541 20.496 26.3416 19.5993C26.886 20.496 27.7188 21.0724 28.8716 21.0724C31.4656 21.0724 32.3623 19.215 32.3623 19.215C32.3623 19.215 32.6826 21.0724 34.9243 21.0724C39.4719 21.0724 40.5286 13.1623 40.7529 10.5042C41.009 10.5042 42.6104 10.6003 42.8984 11.497C43.1548 12.3616 42.354 15.1158 42.29 17.966C42.2581 19.4712 42.8025 21.0724 45.1724 21.0724C46.6133 21.0724 47.7664 20.4 48.5669 19.6633C49.1113 20.528 49.9441 21.0724 51.0649 21.0724C52.3459 21.0724 53.2104 20.6561 53.7549 20.2398C53.7229 20.496 53.6909 20.7202 53.6589 20.9764L53.6589 21.0084C53.6589 20.9764 47.6702 25.2997 47.6702 29.3669C47.6702 30.9682 48.4067 31.993 50.2964 31.993C54.0432 31.993 55.228 26.9651 55.7725 22.8339C55.8047 22.6417 55.8367 22.4495 55.8367 22.2894C56.4131 21.8411 56.9575 21.4247 57.502 21.0084C58.2705 20.4 59.0391 19.8235 59.9038 19.183C59.9358 19.247 59.9998 19.3111 60.032 19.3751C60.8325 20.464 62.0173 21.0404 63.4585 21.0404C66.1807 21.0404 68.7107 18.9588 70.5042 16.9092C70.7922 17.902 71.2085 18.8627 71.9131 19.6313C72.7778 20.5601 73.9626 21.0724 75.3079 21.0724C77.9019 21.0724 79.6953 18.9908 80.656 16.5889C81.3606 16.9092 82.1611 17.1014 82.9939 17.1654C83.186 17.998 83.5061 18.7667 84.0186 19.3751C84.6592 20.1437 85.844 21.0724 87.9258 21.0724C90.0073 21.0724 92.0569 19.9516 93.4341 19.0229C93.498 19.119 93.562 19.215 93.6262 19.3111C94.2666 20.1117 95.5156 21.0724 97.6292 21.0724C101.376 21.0724 103.458 17.998 103.554 17.8699C103.842 17.3575 103.682 16.621 103.17 16.2687ZM50.5845 29.7192C50.2322 29.7192 49.9761 29.4951 49.9761 29.0467C49.9761 26.9971 53.1465 24.2109 53.1785 24.2109C52.7942 26.9651 51.6733 29.7192 50.5845 29.7192ZM64.7395 10.5042C65.0278 10.5042 65.0918 10.7284 65.1558 10.8565C65.2839 11.3048 64.8357 13.0021 61.4089 15.372C61.6011 13.1302 62.9783 10.5042 64.7395 10.5042ZM75.6279 2.40186C76.6208 2.40186 75.8203 5.79651 72.6497 10.5363C73.3862 4.22729 74.4111 2.40186 75.6279 2.40186ZM88.3101 10.5042C88.8223 10.5042 88.8545 11.0166 88.8865 11.2087C89.0144 12.1695 88.1179 13.8989 85.1714 14.8916C85.4917 12.81 86.8689 10.5042 88.3101 10.5042ZM97.9175 10.5042C98.2698 10.5042 98.4619 10.7604 98.5579 11.0806C98.75 11.7532 97.8535 13.4505 94.7151 15.372C94.7791 13.1302 96.124 10.5042 97.9175 10.5042Z" fill="#A7AAB4" fill-opacity="1.000000" fill-rule="nonzero"/>
</svg>
