<svg width="111.860352" height="31.733154" viewBox="0 0 111.86 31.7332" fill="none" xmlns="http://www.w3.org/2000/svg" xmlns:xlink="http://www.w3.org/1999/xlink">
	<desc>
			Created with Pixso.
	</desc>
	<defs/>
	<path id="Vector" d="M5.75732 0.110352C3.46777 1.06952 0.950684 3.77576 0.155762 7.17511C-0.851074 11.481 3.33862 13.3022 3.68213 12.7059C4.08667 12.0043 2.9314 11.767 2.6936 9.53284C2.38647 6.64716 3.72803 3.42273 5.4165 2.00793C5.73022 1.74512 5.71533 2.11096 5.71533 2.78766C5.71533 3.99774 5.64844 14.861 5.64844 17.1282C5.64844 20.1959 5.52173 21.1647 5.29419 22.1219C5.06372 23.092 4.69287 23.7474 4.97363 23.9999C5.2876 24.2823 6.62769 23.6105 7.40332 22.5278C8.3335 21.2294 8.65894 19.67 8.71753 17.9766C8.78809 15.9352 8.78516 12.6959 8.78809 10.8482C8.79077 9.15363 8.81665 4.19153 8.75854 1.2085C8.74414 0.476807 6.71484 -0.290833 5.75732 0.110352Z" fill="#A7AAB4" fill-opacity="1.000000" fill-rule="nonzero"/>
	<path id="Vector" d="M87.0598 14.4672C86.9861 16.062 86.6331 17.3086 86.1948 18.1879C85.3467 19.8902 83.5867 20.4188 82.8394 17.9717C82.4319 16.6379 82.4128 14.4101 82.7058 12.5487C83.0039 10.6525 83.8359 9.22034 85.2141 9.34955C86.5732 9.47717 87.2095 11.2286 87.0598 14.4672ZM64.145 24.3621C64.1265 27.012 63.7095 29.3354 62.8152 30.0103C61.5466 30.9672 59.8416 30.2494 60.1946 28.3157C60.5071 26.6046 61.9844 24.8571 64.1484 22.7219C64.1484 22.7219 64.1531 23.2088 64.145 24.3621ZM63.7986 14.4515C63.7209 15.9042 63.3445 17.3634 62.9336 18.1879C62.0854 19.8902 60.3125 20.4223 59.5779 17.9717C59.0754 16.2973 59.1958 14.1303 59.4443 12.7649C59.7668 10.9933 60.5486 9.34973 61.9526 9.34973C63.3179 9.34973 63.991 10.8474 63.7986 14.4515ZM50.5242 14.4295C50.4409 15.9678 50.1406 17.2538 49.6592 18.1879C48.7876 19.8785 47.0637 20.4146 46.3035 17.9717C45.7554 16.2101 45.9419 13.8083 46.1699 12.5109C46.5083 10.5854 47.3555 9.22034 48.6782 9.34973C50.0369 9.48248 50.6975 11.2286 50.5242 14.4295ZM111.358 16.2263C111.025 16.2263 110.874 16.5688 110.749 17.145C110.313 19.1489 109.856 19.6012 109.267 19.6012C108.608 19.6012 108.016 18.6091 107.864 16.6229C107.745 15.061 107.764 12.1859 107.917 9.32581C107.948 8.73816 107.786 8.15674 106.21 7.58417C105.531 7.33789 104.546 6.97522 104.055 8.1601C102.668 11.5077 102.125 14.1653 101.998 15.2448C101.991 15.3007 101.923 15.3122 101.91 15.1815C101.829 14.3169 101.647 12.7455 101.625 9.44421C101.62 8.80011 101.484 8.25183 100.773 7.80292C100.312 7.51166 98.9106 6.99652 98.4062 7.60938C97.9692 8.1106 97.4631 9.45947 96.9373 11.0584C96.5098 12.358 96.2122 13.2371 96.2122 13.2371C96.2122 13.2371 96.2178 9.73059 96.2229 8.40057C96.2251 7.89874 95.8809 7.73157 95.7771 7.70123C95.3101 7.56586 94.3896 7.33936 93.999 7.33936C93.5171 7.33936 93.3989 7.60864 93.3989 8.00122C93.3989 8.0528 93.323 12.6178 93.323 15.8101C93.323 15.9488 93.323 16.1 93.3237 16.2608C93.0571 17.7279 92.1924 19.7196 91.2522 19.7196C90.3108 19.7196 89.8665 18.887 89.8665 15.0814C89.8665 12.8615 89.9331 11.8959 89.9658 10.2902C89.9849 9.36536 90.0217 8.65515 90.0195 8.49396C90.0127 7.99969 89.158 7.75061 88.7603 7.65851C88.3608 7.56586 88.0137 7.52972 87.7424 7.54517C87.3586 7.56702 87.0872 7.81854 87.0872 8.16479C87.0872 8.35065 87.0894 8.70349 87.0894 8.70349C86.595 7.92682 85.8 7.38623 85.2712 7.22961C83.8467 6.80652 82.3601 7.18158 81.2388 8.75037C80.3477 9.99707 79.8105 11.409 79.5991 13.4376C79.4443 14.9208 79.4949 16.4246 79.7695 17.6965C79.4377 19.1316 78.8213 19.7196 78.1465 19.7196C77.167 19.7196 76.4568 18.1207 76.5391 15.3551C76.5935 13.5363 76.9575 12.2597 77.3555 10.413C77.5251 9.62573 77.3872 9.21356 77.0415 8.81854C76.7244 8.4563 76.0488 8.27118 75.0776 8.49884C74.386 8.66113 73.3967 8.83569 72.4919 8.96973C72.4919 8.96973 72.5466 8.75189 72.5913 8.3678C72.8267 6.35352 70.6379 6.51691 69.9395 7.16034C69.5227 7.54443 69.2388 7.99744 69.1311 8.81195C68.9604 10.1046 70.0146 10.7142 70.0146 10.7142C69.6687 12.2977 68.8208 14.3658 67.9456 15.8613C67.4768 16.6624 67.1179 17.2561 66.655 17.8872C66.6533 17.6522 66.6521 17.4171 66.6514 17.1832C66.6406 13.8545 66.6851 11.2349 66.7046 10.2904C66.7236 9.36554 66.7607 8.67413 66.7585 8.51294C66.7534 8.15161 66.5422 8.01495 66.1033 7.8421C65.7148 7.68921 65.2559 7.58337 64.7798 7.54651C64.1787 7.49982 63.8167 7.81836 63.8259 8.19531C63.8279 8.26648 63.8279 8.70349 63.8279 8.70349C63.3337 7.92682 62.5386 7.38623 62.0098 7.22961C60.5852 6.8067 59.0986 7.18158 57.9775 8.75037C57.0864 9.99707 56.5029 11.7464 56.3376 13.4222C56.1836 14.984 56.2122 16.311 56.4219 17.4293C56.1956 18.5488 55.5442 19.7196 54.8079 19.7196C53.8665 19.7196 53.3308 18.887 53.3308 15.0814C53.3308 12.8615 53.3975 11.8959 53.4302 10.2904C53.4492 9.36554 53.4858 8.65515 53.4836 8.49414C53.4768 7.99988 52.6221 7.75079 52.2246 7.65851C51.8083 7.56232 51.4492 7.52692 51.1733 7.54742C50.8093 7.57434 50.5535 7.90027 50.5535 8.14337L50.5535 8.70349C50.0591 7.92682 49.2642 7.38623 48.7354 7.22961C47.3108 6.8067 45.8325 7.18762 44.7029 8.75037C43.9663 9.76941 43.3701 10.8991 43.0632 13.4C42.9746 14.1226 42.9353 14.7995 42.9404 15.4319C42.6467 17.2284 41.3494 19.2986 40.2883 19.2986C39.6672 19.2986 39.0759 18.0942 39.0759 15.5272C39.0759 12.1079 39.2874 7.23975 39.3232 6.77057C39.3232 6.77057 40.6641 6.74774 40.9236 6.74475C41.5925 6.73743 42.1982 6.75323 43.0891 6.70764C43.5359 6.68488 43.9663 5.08142 43.5051 4.883C43.2961 4.79315 41.8191 4.71448 41.2334 4.70203C40.741 4.69092 39.3704 4.58942 39.3704 4.58942C39.3704 4.58942 39.4932 1.35803 39.522 1.01666C39.5461 0.732178 39.178 0.585693 38.967 0.496826C38.4539 0.279724 37.9944 0.175781 37.4502 0.0635986C36.6982 -0.0915527 36.3569 0.0601807 36.2903 0.694885C36.1899 1.6582 36.1379 4.47968 36.1379 4.47968C35.5862 4.47968 33.7009 4.37177 33.1489 4.37177C32.636 4.37177 32.0825 6.57758 32.7915 6.60468C33.6074 6.63629 35.0291 6.66382 35.9717 6.69202C35.9717 6.69202 35.9297 11.6406 35.9297 13.1686C35.9297 13.3311 35.9304 13.4875 35.9314 13.6395C35.4126 16.3431 33.5857 17.8036 33.5857 17.8036C33.978 16.0149 33.1765 14.6716 31.7327 13.5346C31.2007 13.1157 30.1506 12.3224 28.9758 11.4531C28.9758 11.4531 29.6562 10.7826 30.2598 9.43311C30.6873 8.47717 30.7058 7.38361 29.6562 7.1424C27.9221 6.74365 26.4922 8.01721 26.0657 9.37683C25.7354 10.4303 25.9116 11.2117 26.5588 12.0236C26.6062 12.0829 26.6575 12.1435 26.7102 12.2045C26.3188 12.959 25.781 13.9748 25.3257 14.7626C24.0615 16.9497 23.1064 18.6797 22.3848 18.6797C21.8079 18.6797 21.8157 16.9232 21.8157 15.2787C21.8157 13.8611 21.9202 11.7297 22.0039 9.52295C22.0315 8.79315 21.6665 8.37738 21.0549 8.00079C20.6831 7.77203 19.8899 7.32227 19.4304 7.32227C18.7429 7.32227 16.7588 7.41583 14.8843 12.8383C14.6479 13.5218 14.1838 14.7671 14.1838 14.7671L14.2241 8.24634C14.2241 8.09344 14.1426 7.94568 13.9561 7.84454C13.6401 7.67303 12.7964 7.32227 12.0464 7.32227C11.689 7.32227 11.5105 7.48846 11.5105 7.81989L11.4451 18.0217C11.4451 18.797 11.4653 19.7012 11.5417 20.0966C11.6184 20.4926 11.7419 20.8147 11.895 21.0064C12.0481 21.1977 12.2251 21.3436 12.5168 21.4039C12.7883 21.4598 14.2754 21.6507 14.3525 21.0825C14.4453 20.4014 14.4487 19.6649 15.2297 16.9177C16.4453 12.6408 18.0298 10.554 18.7751 9.81293C18.9053 9.68335 19.0542 9.67566 19.0469 9.88763C19.0151 10.8253 18.9033 13.1686 18.8279 15.1589C18.6262 20.486 19.5952 21.4733 20.9802 21.4733C22.0396 21.4733 23.5332 20.4207 25.134 17.7558C26.1323 16.0951 27.1013 14.4668 27.7976 13.2932C28.283 13.7424 28.8274 14.2258 29.3716 14.7422C30.636 15.9424 31.0513 17.0829 30.7759 18.1647C30.5652 18.9919 29.7717 19.8443 28.3594 19.0158C27.948 18.774 27.7722 18.5873 27.3584 18.3148C27.136 18.1685 26.7964 18.1246 26.593 18.2781C26.0642 18.6767 25.762 19.1838 25.5891 19.8115C25.4211 20.4223 26.033 20.7452 26.6672 21.0276C27.2131 21.2708 28.3867 21.491 29.1353 21.5161C32.0515 21.6136 34.3875 20.1081 36.0137 16.2244C36.3049 19.5786 37.5437 21.4764 39.6963 21.4764C41.1353 21.4764 42.5781 19.6163 43.2092 17.7863C43.3901 18.5323 43.6584 19.181 44.0046 19.7296C45.6633 22.3575 48.8809 21.7919 50.4971 19.5604C50.9968 18.8708 51.073 18.623 51.073 18.623C51.3086 20.7302 53.0056 21.4664 53.9771 21.4664C55.0652 21.4664 56.1887 20.952 56.9761 19.1793C57.0684 19.3717 57.1692 19.5554 57.2791 19.7296C58.9377 22.3575 62.1553 21.7919 63.7715 19.5604C63.8479 19.4556 63.9138 19.3608 63.9717 19.2755L64.0193 20.6595C64.0193 20.6595 63.0972 21.5054 62.5312 22.0243C60.0369 24.3102 58.1421 26.0442 58.0029 28.0634C57.8254 30.6381 59.9124 31.5949 61.4934 31.7203C63.1697 31.8534 64.6077 30.9267 65.49 29.6298C66.2668 28.4882 66.7751 26.0312 66.7378 23.6046C66.7229 22.6328 66.6985 21.3973 66.6792 20.0729C67.5549 19.0561 68.5413 17.7709 69.4495 16.2668C70.4395 14.6276 71.5002 12.4261 72.0435 10.7129C72.0435 10.7129 72.9651 10.7208 73.9487 10.6564C74.2634 10.6359 74.3538 10.7001 74.2954 10.9308C74.2253 11.2094 73.0527 15.7317 74.1228 18.7443C74.8552 20.8066 76.5063 21.4702 77.4854 21.4702C78.6311 21.4702 79.7273 20.6048 80.3149 19.3197C80.3857 19.463 80.4597 19.6016 80.5405 19.7296C82.199 22.3575 85.4055 21.7885 87.033 19.5604C87.4004 19.0576 87.6086 18.623 87.6086 18.623C87.958 20.8038 89.6538 21.4775 90.6252 21.4775C91.6372 21.4775 92.5974 21.0627 93.3765 19.2192C93.4092 20.0309 93.4604 20.6946 93.5413 20.9037C93.5906 21.0318 93.8782 21.1924 94.0874 21.27C95.0129 21.6132 95.957 21.4509 96.3064 21.3803C96.5483 21.3314 96.7368 21.1373 96.7627 20.636C96.8306 19.3199 96.7888 17.1086 97.1877 15.4651C97.8577 12.707 98.4824 11.6372 98.7788 11.1075C98.9446 10.8109 99.1318 10.7618 99.1384 11.0759C99.1523 11.7114 99.1841 13.5775 99.4436 16.0847C99.634 17.9286 99.8887 19.0186 100.084 19.3636C100.643 20.35 101.332 20.3967 101.894 20.3967C102.251 20.3967 102.998 20.298 102.931 19.6703C102.898 19.3643 102.955 17.4734 103.616 14.7562C104.047 12.9818 104.766 11.3787 105.025 10.7924C105.121 10.5762 105.165 10.7466 105.164 10.7797C105.109 12.0017 104.986 15.9987 105.484 18.1847C106.159 21.1461 108.111 21.4775 108.792 21.4775C110.244 21.4775 111.431 20.3728 111.832 17.466C111.928 16.7665 111.785 16.2263 111.358 16.2263Z" fill="#A7AAB4" fill-opacity="1.000000" fill-rule="nonzero"/>
</svg>
