<svg width="143.719238" height="31.997986" viewBox="0 0 143.719 31.998" fill="none" xmlns="http://www.w3.org/2000/svg" xmlns:xlink="http://www.w3.org/1999/xlink">
	<desc>
			Created with Pixso.
	</desc>
	<defs/>
	<path id="Vector" d="M16.1729 0C25.1055 0 32.3459 7.16266 32.3459 15.999C32.3459 24.8353 25.1055 31.998 16.1729 31.998C7.24048 31.998 0 24.8353 0 15.999C0 7.16266 7.24048 0 16.1729 0ZM89.7791 8.76434C93.5813 8.76434 96.6558 12.0037 96.6558 15.999C96.6558 19.9943 93.5813 23.2336 89.7791 23.2336C88.0022 23.2336 86.3293 22.5297 85.0828 21.2895L84.9944 21.2L84.9944 28.0567L84.9927 28.0944C84.9741 28.2808 84.8208 28.4326 84.6323 28.4508L84.5942 28.4526L82.1565 28.4526L82.1184 28.4508C81.9299 28.4326 81.7766 28.2808 81.7581 28.0944L81.7563 28.0567L81.7563 9.5202L81.7581 9.48248C81.7766 9.29614 81.9299 9.14435 82.1184 9.1261L82.1565 9.12427L84.5942 9.12427L84.6323 9.1261C84.8208 9.14435 84.9741 9.29614 84.9927 9.48248L84.9944 9.5202L84.9944 10.798C86.2498 9.5022 87.978 8.76434 89.7791 8.76434ZM12.207 8.40442C6.65845 13.8934 8.44116 23.6475 8.44116 23.6475C8.44116 23.6475 18.3196 25.3932 23.8501 19.9222C26.9246 16.8808 26.8154 11.8238 23.5955 8.65637C20.3755 5.48895 15.2815 5.36298 12.207 8.40442ZM102.077 3.54535L102.115 3.54718C102.304 3.56543 102.457 3.71716 102.475 3.90356L102.477 3.94128L102.477 10.798C103.733 9.5022 105.461 8.76434 107.262 8.76434C111.064 8.76434 114.139 12.0037 114.139 15.999C114.139 19.9943 111.064 23.2336 107.262 23.2336C105.485 23.2336 103.812 22.5297 102.566 21.2895L102.477 21.2L102.477 22.4778L102.475 22.5155C102.457 22.7018 102.304 22.8536 102.115 22.8718L102.077 22.8737L99.6394 22.8737C99.4338 22.8737 99.2605 22.7143 99.241 22.5155L99.239 22.4778L99.239 3.94128C99.239 3.73798 99.4001 3.56665 99.6013 3.54718L99.6394 3.54535L102.077 3.54535ZM123.107 8.76434C127.219 8.76434 130.548 12.0037 130.548 15.999C130.548 19.9943 127.219 23.2336 123.107 23.2336C118.996 23.2336 115.667 19.9943 115.667 15.999C115.667 12.0037 118.996 8.76434 123.107 8.76434ZM69.9858 8.76434C71.7627 8.76434 73.4355 9.46826 74.6821 10.7085L74.7705 10.798L74.7705 9.5202L74.7722 9.48248C74.7908 9.29614 74.9441 9.14435 75.1326 9.1261L75.1707 9.12427L77.6084 9.12427C77.814 9.12427 77.9871 9.28369 78.0068 9.48248L78.0085 9.5202L78.0085 22.4778L78.0068 22.5155C77.9883 22.7018 77.835 22.8536 77.6465 22.8718L77.6084 22.8737L75.1707 22.8737L75.1326 22.8718C74.9441 22.8536 74.7908 22.7018 74.7722 22.5155L74.7705 22.4778L74.7705 21.2C73.5151 22.4958 71.7869 23.2336 69.9858 23.2336C66.1836 23.2336 63.1091 19.9943 63.1091 15.999C63.1091 12.0037 66.1836 8.76434 69.9858 8.76434ZM143.319 9.10626C143.392 9.10626 143.465 9.12427 143.519 9.16028C143.673 9.26147 143.73 9.47345 143.647 9.633L143.628 9.66418L139.444 15.963L143.665 22.3158C143.701 22.3878 143.719 22.4598 143.719 22.5317C143.719 22.7173 143.575 22.8713 143.393 22.8898L143.355 22.8917L140.572 22.8917C140.371 22.8917 140.185 22.7997 140.071 22.644L140.044 22.6038L137.534 18.4645L135.023 22.6038C134.923 22.7698 134.744 22.8746 134.546 22.8898L134.496 22.8917L131.676 22.8917C131.603 22.8917 131.531 22.8737 131.476 22.8377C131.322 22.7365 131.265 22.5245 131.348 22.365L131.367 22.3338L135.587 15.981L131.403 9.68219C131.367 9.62817 131.349 9.55621 131.349 9.48419C131.349 9.29865 131.492 9.14465 131.675 9.12616L131.712 9.12427L134.532 9.12427C134.734 9.12427 134.92 9.21631 135.033 9.37201L135.06 9.41223L137.516 13.4794L139.972 9.39423C140.073 9.22809 140.251 9.12335 140.449 9.10815L140.499 9.10626L143.319 9.10626ZM55.814 8.76434C58.6021 8.76434 60.8745 10.8581 60.9253 13.4799L60.926 13.5695L60.9443 22.4778L60.9424 22.5155C60.9241 22.7018 60.7705 22.8536 60.582 22.8718L60.5439 22.8737L58.0881 22.8737C57.8826 22.8737 57.7095 22.7143 57.6897 22.5155L57.6877 22.4778L57.6877 14.5593C57.6877 12.8856 56.3962 11.6078 54.8499 11.6078C53.4741 11.6078 52.344 12.7883 52.0972 14.3308L52.0847 14.4153L52.1028 22.4778L52.1008 22.5155C52.0825 22.7018 51.9292 22.8536 51.7407 22.8718L51.7026 22.8737L49.2466 22.8737C49.041 22.8737 48.8679 22.7143 48.8481 22.5155L48.8464 22.4778L48.8464 14.5593C48.8464 12.8856 47.5547 11.6078 46.0083 11.6078C44.5415 11.6078 43.3384 12.9478 43.2122 14.6351L43.2068 14.7213L43.2068 22.4778L43.2048 22.5155C43.1865 22.7018 43.033 22.8536 42.8447 22.8718L42.8066 22.8737L40.3687 22.8737L40.3306 22.8718C40.1423 22.8536 39.9888 22.7018 39.9705 22.5155L39.9685 22.4778L39.9685 9.5202L39.9705 9.48248C39.9888 9.29614 40.1423 9.14435 40.3306 9.1261L40.3687 9.12427L42.8066 9.12427L42.8447 9.1261C43.033 9.14435 43.1865 9.29614 43.2048 9.48248L43.2068 9.5202L43.2068 10.672C44.0801 9.48419 45.4807 8.76434 46.9727 8.76434C48.8828 8.74634 50.6655 9.79016 51.5571 11.4639C52.3394 9.82617 53.9949 8.78235 55.814 8.76434ZM106.698 11.6618C104.417 11.6618 102.58 13.5209 102.498 15.8539L102.496 15.945L102.496 16.053C102.514 18.4285 104.387 20.3362 106.698 20.3362C109.008 20.3362 110.9 18.3925 110.9 15.999C110.9 13.6055 109.027 11.6618 106.698 11.6618ZM123.089 11.6618C120.779 11.6618 118.887 13.6055 118.887 15.999C118.887 18.3925 120.76 20.3362 123.089 20.3362C125.4 20.3362 127.292 18.3925 127.292 15.999C127.292 13.6055 125.4 11.6618 123.089 11.6618ZM70.5498 11.6618C68.2393 11.6618 66.3474 13.6055 66.3474 15.999C66.3474 18.3925 68.2212 20.3362 70.5498 20.3362C72.8311 20.3362 74.6865 18.4765 74.7507 16.1429L74.7522 16.053L74.7522 15.945C74.7341 13.5695 72.8604 11.6618 70.5498 11.6618ZM89.2151 11.6618C86.9343 11.6618 85.0967 13.5209 85.0149 15.8539L85.0127 15.945L85.0127 16.053C85.031 18.4285 86.9048 20.3362 89.2151 20.3362C91.5437 20.3362 93.4175 18.3925 93.4175 15.999C93.4175 13.6055 91.5437 11.6618 89.2151 11.6618ZM18.0286 9.37622L19.6113 12.5977L22.8677 14.1633L19.6113 15.7291L18.0286 18.9504L16.4458 15.7291L13.1895 14.1633L16.4458 12.5977L18.0286 9.37622Z" fill="#A7AAB4" fill-opacity="1.000000" fill-rule="nonzero"/>
</svg>
