<svg width="113.217384" height="28.000000" viewBox="0 0 113.217 28" fill="none" xmlns="http://www.w3.org/2000/svg" xmlns:xlink="http://www.w3.org/1999/xlink">
	<desc>
			Created with Pixso.
	</desc>
	<defs/>
	<rect id="slack" width="113.217384" height="28.000000" fill="#FFFFFF" fill-opacity="0"/>
	<path id="Vector" d="M36.1749 21.9445L37.5873 18.7493C39.1136 19.8588 41.141 20.4357 43.1457 20.4357C44.6264 20.4357 45.5603 19.881 45.5603 19.0378C45.5376 16.6858 36.6989 18.5275 36.6305 12.6253C36.6078 9.62988 39.3414 7.32227 43.214 7.32227C45.5148 7.32227 47.8156 7.87695 49.4558 9.14172L48.1345 12.4034C46.631 11.4715 44.763 10.8058 42.9862 10.8058C41.7788 10.8058 40.9815 11.3606 40.9815 12.0706C41.0043 14.3782 49.9114 13.1135 50.0025 18.7493C50.0025 21.8113 47.3372 23.9636 43.5101 23.9636C40.7082 23.9636 38.134 23.3202 36.1749 21.9445ZM90.3689 17.5955L94.2643 19.7034C92.8064 22.2551 90.0272 23.9636 86.8152 23.9636C82.0997 23.9636 78.2727 20.236 78.2727 15.6429C78.2727 11.0499 82.0997 7.32227 86.8152 7.32227C90.0044 7.32227 92.8064 9.05298 94.2643 11.5825L90.3689 13.6904C89.6627 12.4922 88.3415 11.6712 86.8152 11.6712C84.56 11.6712 82.7376 13.4463 82.7376 15.6429C82.7376 17.8396 84.56 19.6147 86.8152 19.6147C88.3415 19.6147 89.6627 18.7937 90.3689 17.5955ZM51.9616 0.421631L56.8365 0.421631L56.8365 23.653L51.9616 23.653L51.9616 0.421631ZM96.1779 0.421631L101.053 0.421631L101.053 14.0676L106.566 7.65509L112.534 7.65509L105.723 15.3767L113.081 23.653L106.839 23.653L101.053 16.6858L101.053 23.653L96.1779 23.653L96.1779 0.421631ZM71.3247 17.6399L71.3247 13.7125C70.6185 12.5588 69.1606 11.6712 67.5204 11.6712C65.2652 11.6712 63.4428 13.4463 63.4428 15.6429C63.4428 17.8396 65.2652 19.6147 67.5204 19.6147C69.1606 19.6147 70.6185 18.7715 71.3247 17.6399ZM71.3247 7.65509L76.1997 7.65509L76.1997 23.6308L71.3247 23.6308L71.3247 21.7448C70.5274 23.0539 68.5455 23.9636 66.4725 23.9636C62.1899 23.9636 58.8184 20.236 58.8184 15.6208C58.8184 11.0056 62.1899 7.32227 66.4725 7.32227C68.5455 7.32227 70.5274 8.23199 71.3247 9.54114L71.3247 7.65509Z" fill="#A7AAB4" fill-opacity="1.000000" fill-rule="nonzero"/>
	<path id="Vector" d="M6.03673 17.6177C6.03673 19.2375 4.6927 20.5466 3.02974 20.5466C1.36679 20.5466 0.0227661 19.2375 0.0227661 17.6177C0.0227661 15.998 1.36679 14.6888 3.02974 14.6888L6.03673 14.6888L6.03673 17.6177ZM7.54022 17.6177C7.54022 15.998 8.88425 14.6888 10.5472 14.6888C12.2101 14.6888 13.5542 15.998 13.5542 17.6177L13.5542 24.9399C13.5542 26.5597 12.2101 27.8688 10.5472 27.8688C8.88425 27.8688 7.54022 26.5597 7.54022 24.9399L7.54022 17.6177Z" fill="#A7AAB4" fill-opacity="1.000000" fill-rule="nonzero"/>
	<path id="Vector" d="M10.5472 5.85779C8.88426 5.85779 7.54024 4.54865 7.54024 2.92889C7.54024 1.30914 8.88426 0 10.5472 0C12.2102 0 13.5542 1.30914 13.5542 2.92889L13.5542 5.85779L10.5472 5.85779ZM10.5472 7.34442C12.2102 7.34442 13.5542 8.6535 13.5542 10.2733C13.5542 11.8931 12.2102 13.2021 10.5472 13.2021L3.00699 13.2021C1.34402 13.2021 0 11.8931 0 10.2733C0 8.6535 1.34402 7.34442 3.00699 7.34442L10.5472 7.34442Z" fill="#A7AAB4" fill-opacity="1.000000" fill-rule="nonzero"/>
	<path id="Vector" d="M22.5979 10.2733C22.5979 8.6535 23.9419 7.34442 25.6049 7.34442C27.2678 7.34442 28.6119 8.6535 28.6119 10.2733C28.6119 11.8931 27.2678 13.2021 25.6049 13.2021L22.5979 13.2021L22.5979 10.2733ZM21.0944 10.2733C21.0944 11.8931 19.7504 13.2021 18.0874 13.2021C16.4245 13.2021 15.0804 11.8931 15.0804 10.2733L15.0804 2.92889C15.0804 1.30914 16.4245 0 18.0874 0C19.7504 0 21.0944 1.30914 21.0944 2.92889L21.0944 10.2733Z" fill="#A7AAB4" fill-opacity="1.000000" fill-rule="nonzero"/>
	<path id="Vector" d="M18.0874 22.011C19.7504 22.011 21.0944 23.3202 21.0944 24.9399C21.0944 26.5597 19.7504 27.8688 18.0874 27.8688C16.4245 27.8688 15.0804 26.5597 15.0804 24.9399L15.0804 22.011L18.0874 22.011ZM18.0874 20.5466C16.4245 20.5466 15.0804 19.2375 15.0804 17.6177C15.0804 15.998 16.4245 14.6888 18.0874 14.6888L25.6277 14.6888C27.2906 14.6888 28.6346 15.998 28.6346 17.6177C28.6346 19.2375 27.2906 20.5466 25.6277 20.5466L18.0874 20.5466Z" fill="#A7AAB4" fill-opacity="1.000000" fill-rule="nonzero"/>
</svg>
