<svg width="112.219971" height="31.858643" viewBox="0 0 112.22 31.8586" fill="none" xmlns="http://www.w3.org/2000/svg" xmlns:xlink="http://www.w3.org/1999/xlink">
	<desc>
			Created with Pixso.
	</desc>
	<defs/>
	<path id="Vector" d="M103.429 27.3685L106.649 27.3685L112.22 13.2499L109.033 13.2499L106.73 20.2817L104.304 13.2499L100.746 13.2499L104.982 23.4481L103.429 27.3685ZM87.4465 16.6015L87.4465 23.8386L84.198 23.8386L84.198 13.2499L86.4805 13.2499L87.1592 14.1749C88.043 13.435 88.9888 13.0029 90.0786 13.0029C91.5386 13.0029 92.6487 13.435 93.3271 14.5045C94.314 13.5993 95.3628 13.0029 96.6995 13.0029C99.2078 13.0029 100.668 14.2986 100.668 17.8145L100.668 23.8386L97.4192 23.8386L97.4192 18.1847C97.4192 16.5604 96.761 16.0873 95.7122 16.0873C95.0955 16.0873 94.5818 16.2516 94.0056 16.6218C94.0474 16.9919 94.0676 17.3824 94.0676 17.8145L94.0676 23.8386L90.8188 23.8386L90.8188 18.1847C90.8188 16.5604 90.1606 16.0873 89.0918 16.0873C88.4954 16.0873 88.002 16.2313 87.4465 16.6015ZM76.1165 17.5062L80.2905 17.5062C80.0645 16.1288 79.324 15.4706 78.2139 15.4706C77.2676 15.4706 76.3635 16.0259 76.1165 17.5062ZM78.4402 24.0445C75.3147 24.0445 72.8059 22.5023 72.8059 18.4312C72.8059 14.6273 75.2324 12.9827 78.0288 12.9827C81.4006 12.9827 82.9019 15.3469 82.9019 19.0686L76.0957 19.0686C76.3223 20.8983 77.4531 21.4333 78.9543 21.4333C80.406 21.4333 81.5415 21.0751 82.4202 20.4839L81.9792 23.0608C81.1406 23.7086 80.134 24.0445 78.4402 24.0445ZM66.3435 21.3101C67.0835 21.3101 67.6387 21.1863 68.2144 20.7548L68.2144 16.1491C67.7007 15.8403 67.187 15.6968 66.4465 15.6968C64.8633 15.6968 63.9585 16.7658 63.9585 18.5544C63.9585 20.3024 64.884 21.3101 66.3435 21.3101ZM68.8518 23.0577C68.009 23.6951 67.043 24.0856 65.665 24.0856C62.7659 24.0856 60.6689 22.297 60.6689 18.6163C60.6689 14.9564 63.0747 12.9827 66.1584 12.9827C66.8779 12.9827 67.5774 13.0856 68.2144 13.332L68.2144 8.83765L71.4634 8.83765L71.4634 23.8386L69.407 23.8386L68.8518 23.0577ZM46.9038 17.5676L46.9038 9.71997L50.2756 9.71997L50.2756 17.5062C50.2756 20.3024 51.5298 20.8781 53.2571 20.8781C55.1284 20.8781 56.0945 20.0555 56.0945 17.5062L56.0945 9.71997L59.4871 9.71997L59.4871 17.5676C59.4871 22.194 57.4722 24.1266 53.0928 24.1266C49.0215 24.1266 46.9038 22.4612 46.9038 17.5676Z" fill="#A7AAB4" fill-opacity="1.000000" fill-rule="nonzero"/>
	<path id="Vector" d="M38.3103 18.156C38.1733 18.0463 38.0195 17.9725 37.8521 17.9407C36.8633 18.9266 35.6565 19.9649 34.5847 20.6627C34.0903 20.9913 33.4685 21.1556 33.0566 21.1556C32.1089 21.1556 31.697 20.2519 31.5732 18.8153C31.4084 16.8857 31.2971 14.5746 31.2971 11.0026C31.2971 7.33905 30.4658 4.84851 28.2507 4.65302C28.1572 4.64465 28.0625 4.63898 27.9639 4.63898C26.6042 4.63898 25.9448 5.33673 25.0796 7.10248C24.3381 8.62122 23.1846 10.8383 21.0422 15.0259C19.1882 18.639 17.1282 21.8414 15.3562 24.0584C14.8628 24.673 14.4727 25.0952 14.1062 25.3354C13.8613 25.4966 13.6262 25.5772 13.3789 25.5772C12.6794 25.5772 12.1689 24.9871 11.9983 23.6129C11.9578 23.2863 11.9365 22.9156 11.9365 22.498C11.9365 19.6654 13.0081 15.067 14.8616 8.2926C16.2214 3.36615 15.6448 0 12.678 0C12.6733 0 12.6685 0 12.6638 0C12.6577 0 12.6514 0 12.6445 0L12.6426 0.000549316C11.9707 0.00830078 11.4138 0.251648 10.8774 0.673828C10.3491 1.08978 9.82031 1.98828 9.3269 3.19611C8.77051 4.55682 5.3877 11.3421 0.00366211 14.8377C-0.0598145 16.1667 0.692627 17.4951 2.21704 17.6392C3.60474 17.7707 4.59009 17.1858 5.85889 16.3336C5.76367 16.7573 5.67578 17.1536 5.5957 17.5159C5.50098 17.9438 5.42041 18.313 5.35596 18.611C5.25928 19.0544 5.198 19.3399 5.17969 19.4189C5.00342 20.2275 4.87769 20.9954 4.79614 21.7244C4.03687 28.5102 7.18213 31.8586 10.8655 31.8586C11.481 31.8586 12.0908 31.7853 12.6965 31.6314C16.7549 30.6025 20.6616 25.9474 25.2861 15.2313C25.2158 16.397 25.2085 17.4858 25.259 18.496C25.5637 24.6376 27.9929 26.4803 31.425 26.4803C34.0208 26.4803 36.4514 25.1259 37.6873 23.4423C38.594 22.2516 38.9648 20.9377 38.9648 19.9113C38.9648 19.1147 38.7122 18.4789 38.3103 18.156Z" fill="#A7AAB4" fill-opacity="1.000000" fill-rule="nonzero"/>
</svg>
