<svg class="svg-icon" style="width: 1em;height: 1em;vertical-align: middle;fill: #fff;overflow: hidden;" viewBox="0 0 1024 1024" version="1.1" xmlns="http://www.w3.org/2000/svg"><path d="M580.266667 614.4H34.133333v68.266667h546.133334c56.32 0 102.4 46.08 102.4 102.4s-46.08 102.4-102.4 102.4-102.4-46.08-102.4-102.4h-68.266667c0 94.208 76.458667 170.666667 170.666667 170.666666s170.666667-76.458667 170.666666-170.666666-76.458667-170.666667-170.666666-170.666667zM546.133333 256C546.133333 171.349333 477.184 102.4 392.533333 102.4S238.933333 171.349333 238.933333 256h68.266667a85.333333 85.333333 0 0 1 170.666667 0 85.333333 85.333333 0 0 1-85.333334 85.333333H34.133333v68.266667h358.4c84.650667 0 153.6-68.949333 153.6-153.6zM798.037333 136.533333c-112.981333 0-204.8 91.818667-204.8 204.8h68.266667c0-75.434667 61.098667-136.533333 136.533333-136.533333s136.533333 61.098667 136.533334 136.533333-61.098667 136.533333-136.533334 136.533334H34.133333v68.266666h763.904c112.981333 0 204.8-91.818667 204.8-204.8s-92.16-204.8-204.8-204.8z"  /></svg>