<?xml version="1.0" encoding="UTF-8"?>
<!DOCTYPE svg PUBLIC "-//W3C//DTD SVG 1.1//EN" "http://www.w3.org/Graphics/SVG/1.1/DTD/svg11.dtd">
<!-- Creator: CorelDRAW X6 -->
<svg xmlns="http://www.w3.org/2000/svg" xml:space="preserve" width="100%" height="100%" version="1.1" style="shape-rendering:geometricPrecision; text-rendering:geometricPrecision; image-rendering:optimizeQuality; fill-rule:evenodd; clip-rule:evenodd"
viewBox="0 0 500 500"
 xmlns:xlink="http://www.w3.org/1999/xlink">
 <defs>
  <style type="text/css">
   <![CDATA[
    .str0 {stroke:#801A00;stroke-width:5}
    .fil2 {fill:url(#id0)}
    .fil0 {fill:url(#id1)}
    .fil1 {fill:url(#id2)}
   ]]>
  </style>
  <linearGradient id="id0" gradientUnits="userSpaceOnUse" x1="250" y1="452.63" x2="250" y2="190.46">
   <stop offset="0" style="stop-color:#C82800"/>
   <stop offset="1" style="stop-color:#FF3300"/>
  </linearGradient>
  <linearGradient id="id1" gradientUnits="userSpaceOnUse" x1="249.999" y1="447.697" x2="249.999" y2="62.301">
   <stop offset="0" style="stop-color:#921D00"/>
   <stop offset="1" style="stop-color:#FF3300"/>
  </linearGradient>
  <linearGradient id="id2" gradientUnits="userSpaceOnUse" x1="249.998" y1="73.702" x2="249.998" y2="211.3">
   <stop offset="0" style="stop-color:#DB2C00"/>
   <stop offset="1" style="stop-color:#FF6B46"/>
  </linearGradient>
 </defs>
 <g id="Layer_x0020_1">
  <metadata id="CorelCorpID_0Corel-Layer"/>
  <polygon class="fil0 str0" points="480,370 370,480 250,360 130,480 20,370 140,250 20,130 130,20 250,140 370,20 480,130 360,250 "/>
  <polygon class="fil1" points="370,42 458,130 338,250 162,250 42,130 130,42 250,162 "/>
  <path class="fil2" d="M375 212l-37 38 120 120 -88 88 -120 -120 -120 120 -88 -88 120 -120 -37 -38c38,-17 80,-27 125,-27 45,0 87,10 125,27z"/>
 </g>
</svg>
